{
    "accessors": [
        {
            "bufferView": 0,
            "byteOffset": 0,
            "componentType": 5126,
            "count": 36,
            "max": [
                0.5,
                0.5,
                0.5
            ],
            "min": [
                -0.5,
                -0.5,
                -0.5
            ],
            "normalized": false,
            "type": "VEC3"
        },
        {
            "bufferView": 1,
            "byteOffset": 0,
            "componentType": 5125,
            "count": 36,
            "max": [
                35
            ],
            "min": [
                0
            ],
            "normalized": false,
            "type": "SCALAR"
        }
    ],
    "asset": {
        "version": "2.0"
    },
    "bufferViews": [
        {
            "buffer": 0,
            "byteLength": 432,
            "byteOffset": 0
        },
        {
            "buffer": 0,
            "byteLength": 144,
            "byteOffset": 432
        }
    ],
    "buffers": [
        {
            "byteLength": 576,
            "uri": "concave_trimesh_only0.bin"
        }
    ],
    "extensions": {
        "OMI_collider": {
            "colliders": [
                {
                    "mesh": 0,
                    "type": "trimesh"
                }
            ]
        }
    },
    "extensionsUsed": [
        "OMI_collider"
    ],
    "meshes": [
        {
            "extras": {
                "targetNames": []
            },
            "primitives": [
                {
                    "attributes": {
                        "POSITION": 0
                    },
                    "indices": 1,
                    "mode": 4
                }
            ]
        }
    ],
    "nodes": [
        {
            "children": [
                1
            ],
            "name": "ConcaveTrimeshOnly"
        },
        {
            "extensions": {
                "OMI_collider": {
                    "collider": 0
                }
            },
            "name": "ConcaveTrimeshCollider"
        }
    ],
    "scene": 0,
    "scenes": [
        {
            "nodes": [
                0
            ]
        }
    ]
}
