{
  "asset": {
    "generator": "glTF-Transform v3.8.0",
    "version": "2.0"
  },
  "accessors": [
    {
      "name": "primitive indices of ID 4",
      "type": "SCALAR",
      "componentType": 5125,
      "count": 59958,
      "bufferView": 0,
      "byteOffset": 0
    },
    {
      "name": "POSITION",
      "type": "VEC3",
      "componentType": 5126,
      "count": 9851,
      "max": [
        11.43052864074707,
        11.43052864074707,
        11.43052864074707
      ],
      "min": [
        -11.656551361083984,
        -11.656551361083984,
        -11.656551361083984
      ],
      "bufferView": 1,
      "byteOffset": 0
    }
  ],
  "bufferViews": [
    {
      "buffer": 0,
      "byteOffset": 0,
      "byteLength": 239836,
      "target": 34963
    },
    {
      "buffer": 0,
      "byteOffset": 239840,
      "byteLength": 118212,
      "byteStride": 12,
      "target": 34962
    }
  ],
  "buffers": [
    {
      "name": "gyroid",
      "byteLength": 358056,
      "uri": "data:application/octet-stream;base64,"
    }
  ],
  "materials": [
    {
      "pbrMetallicRoughness": {
        "baseColorFactor": [
          1,
          1,
          0,
          1
        ],
        "roughnessFactor": 0.2,
        "metallicFactor": 1
      },
      "emissiveFactor": [
        0,
        0,
        0
      ],
      "alphaMode": "OPAQUE",
      "doubleSided": false
    }
  ],
  "meshes": [
    {
      "primitives": [
        {
          "attributes": {
            "POSITION": 1
          },
          "mode": 4,
          "material": 0,
          "indices": 0
        }
      ],
      "extensions": {
        "EXT_mesh_manifold": {
          "manifoldPrimitive": {
            "indices": 0,
            "mode": 4,
            "attributes": {
              "POSITION": 2
            }
          }
        }
      }
    }
  ],
  "nodes": [
    {
      "name": "wrapper",
      "rotation": [
        -0.7071067811865476,
        0,
        0,
        0.7071067811865476
      ],
      "scale": [
        0.001,
        0.001,
        0.001
      ],
      "children": [
        1
      ],
      "translation": [
        0,
        0,
        0
      ]
    },
    {
      "mesh": 0
    }
  ],
  "scenes": [
    {
      "nodes": [
        0
      ]
    }
  ],
  "extensionsUsed": [
    "EXT_mesh_manifold"
  ],
  "scene": 0
}
