{
  "accessors": [
    {
      "bufferView": 0,
      "byteOffset": 0,
      "count": 1230,
      "componentType": 5126,
      "type": "VEC3",
      "min": [
        -0.1501786708831787,
        -0.1501786708831787,
        0
      ],
      "max": [
        0.1501786708831787,
        0.1501786708831787,
        0
      ]
    },
    {
      "bufferView": 0,
      "byteOffset": 12,
      "count": 1230,
      "componentType": 5126,
      "type": "VEC3"
    },
    {
      "bufferView": 0,
      "byteOffset": 24,
      "count": 1230,
      "componentType": 5126,
      "type": "VEC2"
    },
    {
      "bufferView": 1,
      "byteOffset": 0,
      "count": 32190,
      "componentType": 5126,
      "type": "VEC3",
      "min": [
        -0.1501786708831787,
        -0.1501786708831787,
        0
      ],
      "max": [
        0.1501786708831787,
        0.1501786708831787,
        0.05017867311835289
      ]
    },
    {
      "bufferView": 1,
      "byteOffset": 12,
      "count": 32190,
      "componentType": 5126,
      "type": "VEC3"
    },
    {
      "bufferView": 1,
      "byteOffset": 24,
      "count": 32190,
      "componentType": 5126,
      "type": "VEC2"
    }
  ],
  "asset": {
    "generator": "zoo.dev",
    "version": "2.0"
  },
  "buffers": [
    {
      "byteLength": 1069440,
      "uri": "data:application/octet-stream;base64,"
    }
  ],
  "bufferViews": [
    {
      "buffer": 0,
      "byteLength": 39360,
      "byteOffset": 0,
      "byteStride": 32,
      "target": 34962
    },
    {
      "buffer": 0,
      "byteLength": 1030080,
      "byteOffset": 39360,
      "byteStride": 32,
      "target": 34962
    }
  ],
  "scene": 0,
  "extensions": {
    "KITTYCAD_boundary_representation": {
      "solids": [
        {
          "shells": [
            [
              0,
              1
            ]
          ],
          "mesh": 0
        }
      ],
      "shells": [
        {
          "faces": [
            [
              0,
              1
            ],
            [
              1,
              1
            ]
          ]
        }
      ],
      "faces": [
        {
          "surface": [
            0,
            1
          ],
          "loops": [
            [
              0,
              1
            ],
            [
              1,
              1
            ]
          ]
        },
        {
          "surface": [
            1,
            1
          ],
          "loops": [
            [
              2,
              1
            ],
            [
              3,
              1
            ]
          ]
        }
      ],
      "loops": [
        {
          "edges": [
            [
              0,
              -1
            ]
          ]
        },
        {
          "edges": [
            [
              1,
              -1
            ]
          ]
        },
        {
          "edges": [
            [
              0,
              1
            ]
          ]
        },
        {
          "edges": [
            [
              1,
              1
            ]
          ]
        }
      ],
      "edges": [
        {
          "curve": [
            0,
            1
          ],
          "start": null,
          "end": null,
          "closed": true,
          "t": [
            0,
            6.28319
          ]
        },
        {
          "curve": [
            1,
            1
          ],
          "start": null,
          "end": null,
          "closed": true,
          "t": [
            0,
            6.28319
          ]
        }
      ],
      "vertices": [
        [
          0.15018,
          0,
          0
        ],
        [
          -0.04982,
          0,
          0
        ]
      ],
      "surfaces": [
        {
          "type": "plane",
          "plane": {
            "xAxis": [
              -1,
              0,
              0
            ],
            "yAxis": [
              0,
              1,
              0
            ],
            "origin": [
              0,
              0,
              0
            ]
          }
        },
        {
          "type": "torus",
          "torus": {
            "xAxis": [
              1,
              0,
              0
            ],
            "yAxis": [
              0,
              1,
              0
            ],
            "origin": [
              0,
              0,
              0
            ],
            "majorRadius": 0.1,
            "minorRadius": 0.05018
          }
        }
      ],
      "curves3D": [
        {
          "type": "circle",
          "circle": {
            "xAxis": [
              1,
              0,
              0
            ],
            "yAxis": [
              0,
              1,
              0
            ],
            "origin": [
              0,
              0,
              0
            ],
            "radius": 0.15018
          }
        },
        {
          "type": "circle",
          "circle": {
            "xAxis": [
              -1,
              0,
              0
            ],
            "yAxis": [
              0,
              1,
              0
            ],
            "origin": [
              0,
              0,
              0
            ],
            "radius": 0.04982
          }
        }
      ]
    }
  },
  "extensionsUsed": [
    "KITTYCAD_boundary_representation"
  ],
  "meshes": [
    {
      "primitives": [
        {
          "attributes": {
            "POSITION": 0,
            "NORMAL": 1,
            "TEXCOORD_0": 2
          }
        },
        {
          "attributes": {
            "POSITION": 3,
            "NORMAL": 4,
            "TEXCOORD_0": 5
          }
        }
      ]
    }
  ],
  "nodes": [
    {
      "children": [
        1
      ]
    },
    {
      "children": [
        2
      ]
    },
    {
      "extensions": {
        "KITTYCAD_boundary_representation": {
          "solid": 0
        }
      },
      "mesh": 0
    }
  ],
  "scenes": [
    {
      "nodes": [
        0
      ]
    }
  ]
}