{
  "accessors": [
    {
      "bufferView": 0,
      "byteOffset": 0,
      "count": 576,
      "componentType": 5126,
      "type": "VEC3",
      "min": [
        -20,
        0,
        -22.21813201904297
      ],
      "max": [
        20,
        10,
        -0
      ]
    },
    {
      "bufferView": 0,
      "byteOffset": 12,
      "count": 576,
      "componentType": 5126,
      "type": "VEC3"
    },
    {
      "bufferView": 0,
      "byteOffset": 24,
      "count": 576,
      "componentType": 5126,
      "type": "VEC2"
    },
    {
      "bufferView": 1,
      "byteOffset": 0,
      "count": 12,
      "componentType": 5126,
      "type": "VEC3",
      "min": [
        -20,
        0,
        0
      ],
      "max": [
        20,
        10,
        0
      ]
    },
    {
      "bufferView": 1,
      "byteOffset": 12,
      "count": 12,
      "componentType": 5126,
      "type": "VEC3"
    },
    {
      "bufferView": 1,
      "byteOffset": 24,
      "count": 12,
      "componentType": 5126,
      "type": "VEC2"
    },
    {
      "bufferView": 2,
      "byteOffset": 0,
      "count": 141,
      "componentType": 5126,
      "type": "VEC3",
      "min": [
        -20,
        0,
        -22.21813201904297
      ],
      "max": [
        20,
        0,
        -0
      ]
    },
    {
      "bufferView": 2,
      "byteOffset": 12,
      "count": 141,
      "componentType": 5126,
      "type": "VEC3"
    },
    {
      "bufferView": 2,
      "byteOffset": 24,
      "count": 141,
      "componentType": 5126,
      "type": "VEC2"
    },
    {
      "bufferView": 3,
      "byteOffset": 0,
      "count": 141,
      "componentType": 5126,
      "type": "VEC3",
      "min": [
        -20,
        10,
        -22.21813201904297
      ],
      "max": [
        20,
        10,
        -0
      ]
    },
    {
      "bufferView": 3,
      "byteOffset": 12,
      "count": 141,
      "componentType": 5126,
      "type": "VEC3"
    },
    {
      "bufferView": 3,
      "byteOffset": 24,
      "count": 141,
      "componentType": 5126,
      "type": "VEC2"
    }
  ],
  "asset": {
    "generator": "zoo.dev",
    "version": "2.0"
  },
  "buffers": [
    {
      "byteLength": 27840,
      "uri": "data:application/octet-stream;base64,"
    }
  ],
  "bufferViews": [
    {
      "buffer": 0,
      "byteLength": 18432,
      "byteOffset": 0,
      "byteStride": 32,
      "target": 34962
    },
    {
      "buffer": 0,
      "byteLength": 384,
      "byteOffset": 18432,
      "byteStride": 32,
      "target": 34962
    },
    {
      "buffer": 0,
      "byteLength": 4512,
      "byteOffset": 18816,
      "byteStride": 32,
      "target": 34962
    },
    {
      "buffer": 0,
      "byteLength": 4512,
      "byteOffset": 23328,
      "byteStride": 32,
      "target": 34962
    }
  ],
  "scene": 0,
  "extensions": {
    "KITTYCAD_boundary_representation": {
      "solids": [
        {
          "shells": [
            [
              0,
              1
            ]
          ],
          "mesh": 0
        }
      ],
      "shells": [
        {
          "faces": [
            [
              0,
              1
            ],
            [
              1,
              1
            ],
            [
              2,
              1
            ],
            [
              3,
              1
            ]
          ]
        }
      ],
      "faces": [
        {
          "surface": [
            0,
            1
          ],
          "loops": [
            [
              0,
              1
            ]
          ]
        },
        {
          "surface": [
            1,
            1
          ],
          "loops": [
            [
              1,
              1
            ]
          ]
        },
        {
          "surface": [
            2,
            -1
          ],
          "loops": [
            [
              2,
              1
            ]
          ]
        },
        {
          "surface": [
            3,
            1
          ],
          "loops": [
            [
              3,
              1
            ]
          ]
        }
      ],
      "loops": [
        {
          "edges": [
            [
              0,
              1
            ],
            [
              1,
              1
            ],
            [
              2,
              -1
            ],
            [
              3,
              -1
            ]
          ]
        },
        {
          "edges": [
            [
              4,
              1
            ],
            [
              3,
              1
            ],
            [
              5,
              -1
            ],
            [
              1,
              -1
            ]
          ]
        },
        {
          "edges": [
            [
              0,
              1
            ],
            [
              4,
              1
            ]
          ]
        },
        {
          "edges": [
            [
              2,
              1
            ],
            [
              5,
              1
            ]
          ]
        }
      ],
      "edges": [
        {
          "curve": [
            0,
            1
          ],
          "start": 0,
          "end": 1,
          "t": [
            0,
            1
          ]
        },
        {
          "curve": [
            1,
            1
          ],
          "start": 1,
          "end": 2,
          "t": [
            0,
            10
          ]
        },
        {
          "curve": [
            2,
            1
          ],
          "start": 3,
          "end": 2,
          "t": [
            0,
            1
          ]
        },
        {
          "curve": [
            3,
            1
          ],
          "start": 0,
          "end": 3,
          "t": [
            0,
            10
          ]
        },
        {
          "curve": [
            4,
            1
          ],
          "start": 1,
          "end": 0,
          "t": [
            0,
            40
          ]
        },
        {
          "curve": [
            5,
            1
          ],
          "start": 2,
          "end": 3,
          "t": [
            0,
            40
          ]
        }
      ],
      "vertices": [
        [
          20,
          0,
          -0
        ],
        [
          -20,
          0,
          -0
        ],
        [
          -20,
          10,
          -0
        ],
        [
          20,
          10,
          -0
        ]
      ],
      "surfaces": [
        {
          "type": "nurbs",
          "nurbs": {
            "controlPoints": [
              [
                20,
                0,
                -0
              ],
              [
                20,
                10,
                -0
              ],
              [
                20,
                0,
                -0
              ],
              [
                20,
                10,
                -0
              ],
              [
                0,
                0,
                -50.00000000000001
              ],
              [
                0,
                10,
                -50.00000000000001
              ],
              [
                -20,
                0,
                -0
              ],
              [
                -20,
                10,
                -0
              ]
            ],
            "numControlPoints": [
              4,
              2
            ],
            "numKnots": [
              8,
              4
            ],
            "knotVector": [
              0,
              0,
              0,
              0,
              1,
              1,
              1,
              1,
              0,
              0,
              10,
              10
            ],
            "order": [
              4,
              2
            ]
          }
        },
        {
          "type": "plane",
          "plane": {
            "xAxis": [
              1,
              0,
              -0
            ],
            "yAxis": [
              -0,
              1,
              0
            ],
            "origin": [
              0,
              5,
              -0
            ]
          }
        },
        {
          "type": "plane",
          "plane": {
            "xAxis": [
              1,
              0,
              0
            ],
            "yAxis": [
              0,
              0,
              -1
            ],
            "origin": [
              0,
              0,
              -0
            ]
          }
        },
        {
          "type": "plane",
          "plane": {
            "xAxis": [
              1,
              0,
              0
            ],
            "yAxis": [
              0,
              0,
              -1
            ],
            "origin": [
              0,
              10,
              -0
            ]
          }
        }
      ],
      "curves3D": [
        {
          "type": "nurbs",
          "nurbs": {
            "controlPoints": [
              [
                20,
                0,
                -0
              ],
              [
                20,
                0,
                -0
              ],
              [
                0,
                0,
                -50.00000000000001
              ],
              [
                -20,
                0,
                -0
              ]
            ],
            "order": 4,
            "knotVector": [
              0,
              0,
              0,
              0,
              1,
              1,
              1,
              1
            ]
          }
        },
        {
          "type": "line",
          "line": {
            "origin": [
              -20,
              0,
              -0
            ],
            "direction": [
              0,
              1,
              0
            ]
          }
        },
        {
          "type": "nurbs",
          "nurbs": {
            "controlPoints": [
              [
                20,
                10,
                -0
              ],
              [
                20,
                10,
                -0
              ],
              [
                0,
                10,
                -50.00000000000001
              ],
              [
                -20,
                10,
                -0
              ]
            ],
            "order": 4,
            "knotVector": [
              0,
              0,
              0,
              0,
              1,
              1,
              1,
              1
            ]
          }
        },
        {
          "type": "line",
          "line": {
            "origin": [
              20,
              0,
              -0
            ],
            "direction": [
              0,
              1,
              0
            ]
          }
        },
        {
          "type": "line",
          "line": {
            "origin": [
              -20,
              0,
              -0
            ],
            "direction": [
              1,
              0,
              -0
            ]
          }
        },
        {
          "type": "line",
          "line": {
            "origin": [
              -20,
              10,
              -0
            ],
            "direction": [
              1,
              0,
              -0
            ]
          }
        }
      ]
    }
  },
  "extensionsUsed": [
    "KITTYCAD_boundary_representation"
  ],
  "meshes": [
    {
      "primitives": [
        {
          "attributes": {
            "POSITION": 0,
            "NORMAL": 1,
            "TEXCOORD_0": 2
          }
        },
        {
          "attributes": {
            "POSITION": 3,
            "NORMAL": 4,
            "TEXCOORD_0": 5
          }
        },
        {
          "attributes": {
            "POSITION": 6,
            "NORMAL": 7,
            "TEXCOORD_0": 8
          }
        },
        {
          "attributes": {
            "POSITION": 9,
            "NORMAL": 10,
            "TEXCOORD_0": 11
          }
        }
      ]
    }
  ],
  "nodes": [
    {
      "children": [
        1
      ]
    },
    {
      "children": [
        2
      ]
    },
    {
      "extensions": {
        "KITTYCAD_boundary_representation": {
          "solid": 0
        }
      },
      "mesh": 0
    }
  ],
  "scenes": [
    {
      "nodes": [
        0
      ]
    }
  ]
}