{
  "accessors": [
    {
      "bufferView": 0,
      "byteOffset": 0,
      "count": 576,
      "componentType": 5126,
      "type": "VEC3",
      "min": [
        -2,
        0,
        -2.221813201904297
      ],
      "max": [
        2,
        1,
        -0
      ]
    },
    {
      "bufferView": 0,
      "byteOffset": 12,
      "count": 576,
      "componentType": 5126,
      "type": "VEC3"
    },
    {
      "bufferView": 0,
      "byteOffset": 24,
      "count": 576,
      "componentType": 5126,
      "type": "VEC2"
    },
    {
      "bufferView": 1,
      "byteOffset": 0,
      "count": 12,
      "componentType": 5126,
      "type": "VEC3",
      "min": [
        -2,
        0,
        0
      ],
      "max": [
        2,
        1,
        0
      ]
    },
    {
      "bufferView": 1,
      "byteOffset": 12,
      "count": 12,
      "componentType": 5126,
      "type": "VEC3"
    },
    {
      "bufferView": 1,
      "byteOffset": 24,
      "count": 12,
      "componentType": 5126,
      "type": "VEC2"
    },
    {
      "bufferView": 2,
      "byteOffset": 0,
      "count": 141,
      "componentType": 5126,
      "type": "VEC3",
      "min": [
        -2,
        0,
        -2.221813201904297
      ],
      "max": [
        2,
        0,
        -0
      ]
    },
    {
      "bufferView": 2,
      "byteOffset": 12,
      "count": 141,
      "componentType": 5126,
      "type": "VEC3"
    },
    {
      "bufferView": 2,
      "byteOffset": 24,
      "count": 141,
      "componentType": 5126,
      "type": "VEC2"
    },
    {
      "bufferView": 3,
      "byteOffset": 0,
      "count": 141,
      "componentType": 5126,
      "type": "VEC3",
      "min": [
        -2,
        1,
        -2.221813201904297
      ],
      "max": [
        2,
        1,
        -0
      ]
    },
    {
      "bufferView": 3,
      "byteOffset": 12,
      "count": 141,
      "componentType": 5126,
      "type": "VEC3"
    },
    {
      "bufferView": 3,
      "byteOffset": 24,
      "count": 141,
      "componentType": 5126,
      "type": "VEC2"
    }
  ],
  "asset": {
    "generator": "kittycad.io",
    "version": "2.0"
  },
  "buffers": [
    {
      "byteLength": 27840,
      "uri": "data:application/octet-stream;base64,"
    }
  ],
  "bufferViews": [
    {
      "buffer": 0,
      "byteLength": 18432,
      "byteOffset": 0,
      "byteStride": 32,
      "target": 34962
    },
    {
      "buffer": 0,
      "byteLength": 384,
      "byteOffset": 18432,
      "byteStride": 32,
      "target": 34962
    },
    {
      "buffer": 0,
      "byteLength": 4512,
      "byteOffset": 18816,
      "byteStride": 32,
      "target": 34962
    },
    {
      "buffer": 0,
      "byteLength": 4512,
      "byteOffset": 23328,
      "byteStride": 32,
      "target": 34962
    }
  ],
  "scene": 0,
  "extensions": {
    "KITTYCAD_boundary_representation": {
      "solids": [
        {
          "outerShell": 0,
          "mesh": 0
        }
      ],
      "shells": [
        {
          "faces": [
            0,
            1,
            2,
            3
          ]
        }
      ],
      "faces": [
        {
          "surface": 0,
          "outerLoop": 0
        },
        {
          "surface": 1,
          "outerLoop": 1
        },
        {
          "surface": 2,
          "outerLoop": 2
        },
        {
          "surface": 3,
          "outerLoop": 3
        }
      ],
      "loops": [
        {
          "edges": [
            0,
            1,
            -2,
            -3
          ]
        },
        {
          "edges": [
            4,
            3,
            -5,
            -1
          ]
        },
        {
          "edges": [
            0,
            4
          ]
        },
        {
          "edges": [
            2,
            5
          ]
        }
      ],
      "edges": [
        {
          "curve": 0,
          "start": 0,
          "end": 1,
          "closed": false
        },
        {
          "curve": 1,
          "start": 1,
          "end": 2,
          "closed": false
        },
        {
          "curve": 2,
          "start": 3,
          "end": 2,
          "closed": false
        },
        {
          "curve": 3,
          "start": 0,
          "end": 3,
          "closed": false
        },
        {
          "curve": 4,
          "start": 1,
          "end": 0,
          "closed": false
        },
        {
          "curve": 5,
          "start": 2,
          "end": 3,
          "closed": false
        }
      ],
      "vertices": [
        [
          2,
          0,
          -0
        ],
        [
          -2,
          0,
          -0
        ],
        [
          -2,
          1,
          -0
        ],
        [
          2,
          1,
          -0
        ]
      ],
      "surfaces": [
        {
          "type": "nurbs",
          "nurbs": {
            "controlPoints": [
              [
                2,
                0,
                -0,
                1
              ],
              [
                2,
                1,
                -0,
                1
              ],
              [
                2,
                0,
                -0,
                1
              ],
              [
                2,
                1,
                -0,
                1
              ],
              [
                0,
                0,
                -5,
                1
              ],
              [
                0,
                1,
                -5,
                1
              ],
              [
                -2,
                0,
                -0,
                1
              ],
              [
                -2,
                1,
                -0,
                1
              ]
            ],
            "numControlPoints": [
              4,
              2
            ],
            "numKnots": [
              8,
              4
            ],
            "knotVector": [
              0,
              0,
              0,
              0,
              1,
              1,
              1,
              1,
              0,
              0,
              1,
              1
            ],
            "order": [
              4,
              2
            ]
          }
        },
        {
          "type": "plane",
          "plane": {
            "normal": [
              0,
              0,
              1
            ],
            "point": [
              0,
              0.5,
              -0
            ]
          }
        },
        {
          "type": "plane",
          "plane": {
            "normal": [
              0,
              1,
              -0
            ],
            "point": [
              0,
              0,
              -0
            ]
          }
        },
        {
          "type": "plane",
          "plane": {
            "normal": [
              0,
              1,
              -0
            ],
            "point": [
              0,
              1,
              -0
            ]
          }
        }
      ],
      "curves": [
        {
          "type": "nurbs",
          "nurbs": {
            "controlPoints": [
              [
                2,
                0,
                -0,
                1
              ],
              [
                2,
                0,
                -0,
                1
              ],
              [
                0,
                0,
                -5,
                1
              ],
              [
                -2,
                0,
                -0,
                1
              ]
            ],
            "knotVector": [
              0,
              0,
              0,
              0,
              1,
              1,
              1,
              1
            ],
            "order": 4
          }
        },
        {
          "type": "line",
          "line": {
            "start": [
              -2,
              0,
              0
            ],
            "direction": [
              0,
              1,
              0
            ]
          },
          "domain": {
            "min": 0,
            "max": 1
          }
        },
        {
          "type": "nurbs",
          "nurbs": {
            "controlPoints": [
              [
                2,
                1,
                -0,
                1
              ],
              [
                2,
                1,
                -0,
                1
              ],
              [
                0,
                1,
                -5,
                1
              ],
              [
                -2,
                1,
                -0,
                1
              ]
            ],
            "knotVector": [
              0,
              0,
              0,
              0,
              1,
              1,
              1,
              1
            ],
            "order": 4
          }
        },
        {
          "type": "line",
          "line": {
            "start": [
              2,
              0,
              0
            ],
            "direction": [
              0,
              1,
              0
            ]
          },
          "domain": {
            "min": 0,
            "max": 1
          }
        },
        {
          "type": "line",
          "line": {
            "start": [
              -2,
              0,
              -0
            ],
            "direction": [
              1,
              0,
              -0
            ]
          },
          "domain": {
            "min": 0,
            "max": 4
          }
        },
        {
          "type": "line",
          "line": {
            "start": [
              -2,
              1,
              -0
            ],
            "direction": [
              1,
              0,
              -0
            ]
          },
          "domain": {
            "min": 0,
            "max": 4
          }
        }
      ]
    }
  },
  "extensionsUsed": [
    "KITTYCAD_boundary_representation"
  ],
  "meshes": [
    {
      "primitives": [
        {
          "attributes": {
            "POSITION": 0,
            "NORMAL": 1,
            "TEXCOORD_0": 2
          }
        },
        {
          "attributes": {
            "POSITION": 3,
            "NORMAL": 4,
            "TEXCOORD_0": 5
          }
        },
        {
          "attributes": {
            "POSITION": 6,
            "NORMAL": 7,
            "TEXCOORD_0": 8
          }
        },
        {
          "attributes": {
            "POSITION": 9,
            "NORMAL": 10,
            "TEXCOORD_0": 11
          }
        }
      ]
    }
  ],
  "nodes": [
    {
      "children": [
        1
      ]
    },
    {
      "children": [
        2
      ]
    },
    {
      "extensions": {
        "KITTYCAD_boundary_representation": {
          "solid": 0
        }
      },
      "mesh": 0
    }
  ],
  "scenes": [
    {
      "nodes": [
        0
      ]
    }
  ]
}