{
    "accessors": [
        {
            "bufferView": 0,
            "byteOffset": 0,
            "componentType": 5126,
            "count": 36,
            "max": [
                0.5,
                0.5,
                0.5
            ],
            "min": [
                -0.5,
                -0.5,
                -0.5
            ],
            "normalized": false,
            "type": "VEC3"
        },
        {
            "bufferView": 1,
            "byteOffset": 0,
            "componentType": 5125,
            "count": 36,
            "max": [
                35
            ],
            "min": [
                0
            ],
            "normalized": false,
            "type": "SCALAR"
        }
    ],
    "asset": {
        "version": "2.0"
    },
    "bufferViews": [
        {
            "buffer": 0,
            "byteLength": 432,
            "byteOffset": 0
        },
        {
            "buffer": 0,
            "byteLength": 144,
            "byteOffset": 432
        }
    ],
    "buffers": [
        {
            "byteLength": 576,
            "uri": "concave_trimesh_only0.bin"
        }
    ],
    "extensions": {
        "OMI_physics_shape": {
            "shapes": [
                {
                    "type": "trimesh",
                    "trimesh": {
                        "mesh": 0
                    }
                }
            ]
        }
    },
    "extensionsUsed": [
        "OMI_physics_body",
        "OMI_physics_shape"
    ],
    "meshes": [
        {
            "extras": {
                "targetNames": []
            },
            "primitives": [
                {
                    "attributes": {
                        "POSITION": 0
                    },
                    "indices": 1,
                    "mode": 4
                }
            ]
        }
    ],
    "nodes": [
        {
            "extensions": {
                "OMI_physics_body": {
                    "collider": {
                        "shape": 0
                    }
                }
            },
            "name": "ConcaveTrimeshShape"
        }
    ],
	"scene": 0,
	"scenes": [{ "nodes": [0] }]
}
