<?xml version="1.0" encoding="utf-8"?>
<!-- Generator: Adobe Illustrator 19.2.1, SVG Export Plug-In . SVG Version: 6.00 Build 0)  -->
<svg version="1.1" id="glTF" xmlns="http://www.w3.org/2000/svg" xmlns:xlink="http://www.w3.org/1999/xlink" x="0px" y="0px"
	 width="1000px" height="500px" viewBox="0 0 1000 500" enable-background="new 0 0 1000 500" xml:space="preserve">
<g>
	<g>
		<path fill="#86C540" d="M419.671,403.727c14.757-16.554,22.561-40.735,22.561-73.316V148.37h-31.174v28.48h-0.385
			c-5.905-11.029-14.113-19.303-24.631-24.823c-10.524-5.515-22.069-8.275-34.637-8.275c-17.193,0-31.691,3.271-43.49,9.814
			c-11.804,6.543-21.299,14.95-28.479,25.209c-7.187,10.264-12.315,21.552-15.395,33.868c-3.079,12.315-4.618,24.378-4.618,36.177
			c0,13.603,1.858,26.496,5.581,38.679c3.716,12.19,9.296,22.9,16.741,32.137c7.439,9.236,16.675,16.548,27.71,21.936
			c11.035,5.388,23.994,8.082,38.877,8.082c6.158,0,12.376-0.769,18.665-2.309c6.291-1.539,12.19-3.782,17.71-6.735
			c5.514-2.946,10.452-6.669,14.817-11.16c4.36-4.487,7.95-9.813,10.776-15.972h0.757v13.084c0,11.293-1.094,21.553-3.272,30.79
			c-2.182,9.237-5.712,17.127-10.583,23.668c-4.877,6.543-11.035,11.672-18.474,15.395c-7.445,3.717-16.549,5.581-27.325,5.581
			c-5.389,0-11.035-0.579-16.935-1.732c-2.13-0.416-4.2-0.928-6.211-1.53c-2.188-0.772-4.358-1.557-6.51-2.356
			c-0.2-0.085-0.399-0.172-0.598-0.259v0.036c-84.527-31.572-140.157-85.246-140.157-146.152
			c0-97.147,141.523-175.899,316.1-175.899c97.253,0,184.451,22.15,242.436,60.593C676.24,70.283,562.757,25.022,433.005,25
			C234.282,24.965,73.17,125.674,73.153,249.938c-0.012,84.821,75.042,158.697,185.893,197.058
			C347.965,450.04,393.094,433.537,419.671,403.727z M406.248,271.526c-2.182,9.236-5.58,17.512-10.199,24.823
			c-4.617,7.314-10.715,13.219-18.28,17.703c-7.571,4.493-16.742,6.735-27.517,6.735c-10.777,0-19.761-2.242-26.941-6.735
			c-7.186-4.484-12.959-10.39-17.319-17.703c-4.366-7.311-7.444-15.454-9.237-24.439c-1.797-8.978-2.694-17.956-2.694-26.94
			c0-9.489,1.088-18.6,3.271-27.326c2.178-8.719,5.641-16.417,10.392-23.092c4.745-6.669,10.837-11.991,18.281-15.972
			c7.439-3.975,16.417-5.965,26.941-5.965c10.259,0,18.984,2.057,26.17,6.158c7.18,4.107,13.019,9.561,17.511,16.356
			c4.486,6.801,7.758,14.432,9.814,22.899c2.051,8.467,3.079,17.066,3.079,25.786C409.52,253.052,408.425,262.289,406.248,271.526z"
			/>
		<path fill="#86C540" d="M434.849,422.485c-18.854,17.113-52.532,36.647-98.397,44.316c30.707,5.339,63.065,8.194,96.49,8.198
			c129.236,0.025,242.425-45.091,305.881-109.055c-57.984,38.206-144.83,59.951-241.728,59.951
			C474.077,425.897,456.469,425.086,434.849,422.485z"/>
	</g>
	<g>
		<g>
			<path fill="#86C540" d="M633.84,347.908h-46.965V189.705h-58.922v-40.234h164.81v40.234H633.84V347.908L633.84,347.908z"/>
		</g>
		<g>
			<path fill="#86C540" d="M764.173,347.908h-46.967V149.471h144.988v40.234h-98.021v37.128h85.803v40.233h-85.803V347.908
				L764.173,347.908z"/>
		</g>
	</g>
	<path fill="#86C540" d="M469.554,100.031h32.714v247.313h-32.714V100.031z"/>
</g>
<g>
	<polygon fill="#86C540" points="902.783,155.289 895.435,155.289 895.435,174.4 889.017,174.4 889.017,155.289 881.67,155.289 
		881.67,149.769 902.782,149.769 902.782,155.289 	"/>
	<polygon fill="#86C540" points="905.647,149.769 915.1,149.769 919.342,166.19 919.411,166.19 923.654,149.769 933.107,149.769 
		933.107,174.4 927.069,174.4 927.069,155.703 927.001,155.703 921.826,174.4 916.929,174.4 911.752,155.703 911.683,155.703 
		911.683,174.4 905.647,174.4 905.647,149.769 	"/>
</g>
</svg>
