{
    "accessors": [
        {
            "bufferView": 0,
            "byteOffset": 0,
            "componentType": 5126,
            "count": 24,
            "max": [0.25, 0.25, 0.25],
            "min": [-0.25, -0.25, -0.25],
            "normalized": false,
            "type": "VEC3"
        },
        {
            "bufferView": 1,
            "byteOffset": 0,
            "componentType": 5126,
            "count": 24,
            "max": [1, 0, 1, 1],
            "min": [-1, -0.00001525948755, -1, 1],
            "normalized": false,
            "type": "VEC4"
        },
        {
            "bufferView": 2,
            "byteOffset": 0,
            "componentType": 5126,
            "count": 24,
            "max": [1, 1, 1],
            "min": [-1, -1, -1],
            "normalized": false,
            "type": "VEC3"
        },
        {
            "bufferView": 3,
            "byteOffset": 0,
            "componentType": 5126,
            "count": 24,
            "max": [1, 1],
            "min": [0, 0],
            "normalized": false,
            "type": "VEC2"
        },
        {
            "bufferView": 4,
            "byteOffset": 0,
            "componentType": 5123,
            "count": 36,
            "max": [23],
            "min": [0],
            "normalized": false,
            "type": "SCALAR"
        },
        {
            "bufferView": 5,
            "byteOffset": 0,
            "componentType": 5126,
            "count": 1950,
            "max": [0.05, 0.25, 0.05],
            "min": [-0.05, -0.25, -0.05],
            "normalized": false,
            "type": "VEC3"
        },
        {
            "bufferView": 6,
            "byteOffset": 0,
            "componentType": 5126,
            "count": 1950,
            "max": [1, 0, 1, 1],
            "min": [-1, -0.00002157984454, -1, 1],
            "normalized": false,
            "type": "VEC4"
        },
        {
            "bufferView": 7,
            "byteOffset": 0,
            "componentType": 5126,
            "count": 1950,
            "max": [1, 1, 1],
            "min": [-1, -1, -1],
            "normalized": false,
            "type": "VEC3"
        },
        {
            "bufferView": 8,
            "byteOffset": 0,
            "componentType": 5126,
            "count": 1950,
            "max": [1, 1],
            "min": [0, 0],
            "normalized": false,
            "type": "VEC2"
        },
        {
            "bufferView": 9,
            "byteOffset": 0,
            "componentType": 5123,
            "count": 10368,
            "max": [1949],
            "min": [0],
            "normalized": false,
            "type": "SCALAR"
        },
        {
            "bufferView": 10,
            "byteOffset": 0,
            "componentType": 5126,
            "count": 1950,
            "max": [0.05, 0.25, 0.05],
            "min": [-0.05, -0.25, -0.05],
            "normalized": false,
            "type": "VEC3"
        },
        {
            "bufferView": 11,
            "byteOffset": 0,
            "componentType": 5126,
            "count": 1950,
            "max": [1, 0, 1, 1],
            "min": [-1, -0.00002157984454, -1, 1],
            "normalized": false,
            "type": "VEC4"
        },
        {
            "bufferView": 12,
            "byteOffset": 0,
            "componentType": 5126,
            "count": 1950,
            "max": [1, 1, 1],
            "min": [-1, -1, -1],
            "normalized": false,
            "type": "VEC3"
        },
        {
            "bufferView": 13,
            "byteOffset": 0,
            "componentType": 5126,
            "count": 1950,
            "max": [1, 1],
            "min": [0, 0],
            "normalized": false,
            "type": "VEC2"
        },
        {
            "bufferView": 14,
            "byteOffset": 0,
            "componentType": 5123,
            "count": 10368,
            "max": [1949],
            "min": [0],
            "normalized": false,
            "type": "SCALAR"
        },
        {
            "bufferView": 15,
            "byteOffset": 0,
            "componentType": 5126,
            "count": 1950,
            "max": [0.05, 0.25, 0.05],
            "min": [-0.05, -0.25, -0.05],
            "normalized": false,
            "type": "VEC3"
        },
        {
            "bufferView": 16,
            "byteOffset": 0,
            "componentType": 5126,
            "count": 1950,
            "max": [1, 0, 1, 1],
            "min": [-1, -0.00002157984454, -1, 1],
            "normalized": false,
            "type": "VEC4"
        },
        {
            "bufferView": 17,
            "byteOffset": 0,
            "componentType": 5126,
            "count": 1950,
            "max": [1, 1, 1],
            "min": [-1, -1, -1],
            "normalized": false,
            "type": "VEC3"
        },
        {
            "bufferView": 18,
            "byteOffset": 0,
            "componentType": 5126,
            "count": 1950,
            "max": [1, 1],
            "min": [0, 0],
            "normalized": false,
            "type": "VEC2"
        },
        {
            "bufferView": 19,
            "byteOffset": 0,
            "componentType": 5123,
            "count": 10368,
            "max": [1949],
            "min": [0],
            "normalized": false,
            "type": "SCALAR"
        }
    ],
    "asset": {
        "generator": "Godot Engine v4.4.dev.custom_build@1855bc0edb8caa8c7d0ee19f3867674bc7aeb43f",
        "version": "2.0"
    },
    "bufferViews": [
        { "buffer": 0, "byteLength": 288, "byteOffset": 0, "byteStride": 12, "target": 34962 },
        { "buffer": 0, "byteLength": 384, "byteOffset": 288, "byteStride": 16, "target": 34962 },
        { "buffer": 0, "byteLength": 288, "byteOffset": 672, "byteStride": 12, "target": 34962 },
        { "buffer": 0, "byteLength": 192, "byteOffset": 960, "byteStride": 8, "target": 34962 },
        { "buffer": 0, "byteLength": 72, "byteOffset": 1152, "target": 34963 },
        { "buffer": 0, "byteLength": 23400, "byteOffset": 1224, "byteStride": 12, "target": 34962 },
        { "buffer": 0, "byteLength": 31200, "byteOffset": 24624, "byteStride": 16, "target": 34962 },
        { "buffer": 0, "byteLength": 23400, "byteOffset": 55824, "byteStride": 12, "target": 34962 },
        { "buffer": 0, "byteLength": 15600, "byteOffset": 79224, "byteStride": 8, "target": 34962 },
        { "buffer": 0, "byteLength": 20736, "byteOffset": 94824, "target": 34963 },
        { "buffer": 0, "byteLength": 23400, "byteOffset": 115560, "byteStride": 12, "target": 34962 },
        { "buffer": 0, "byteLength": 31200, "byteOffset": 138960, "byteStride": 16, "target": 34962 },
        { "buffer": 0, "byteLength": 23400, "byteOffset": 170160, "byteStride": 12, "target": 34962 },
        { "buffer": 0, "byteLength": 15600, "byteOffset": 193560, "byteStride": 8, "target": 34962 },
        { "buffer": 0, "byteLength": 20736, "byteOffset": 209160, "target": 34963 },
        { "buffer": 0, "byteLength": 23400, "byteOffset": 229896, "byteStride": 12, "target": 34962 },
        { "buffer": 0, "byteLength": 31200, "byteOffset": 253296, "byteStride": 16, "target": 34962 },
        { "buffer": 0, "byteLength": 23400, "byteOffset": 284496, "byteStride": 12, "target": 34962 },
        { "buffer": 0, "byteLength": 15600, "byteOffset": 307896, "byteStride": 8, "target": 34962 },
        { "buffer": 0, "byteLength": 20736, "byteOffset": 323496, "target": 34963 }
    ],
    "buffers": [{ "byteLength": 344232, "uri": "hanging_rope0.bin" }],
    "cameras": [{ "perspective": { "yfov": 1.30899693899575, "zfar": 4000, "znear": 0.05 }, "type": "perspective" }],
    "extensions": {
        "OMI_physics_joint": {
            "physicsJoints": [
                { "limits": [{ "damping": 1, "linearAxes": [0, 1, 2], "max": 0, "min": 0, "stiffness": 0.3 }] }
            ]
        },
        "OMI_physics_shape": {
            "shapes": [
                { "box": { "size": [0.5, 0.5, 0.5] }, "type": "box" },
                { "capsule": { "height": 0.5, "radius": 0.05 }, "type": "capsule" }
            ]
        }
    },
    "extensionsUsed": ["GODOT_single_root", "OMI_physics_body", "OMI_physics_joint", "OMI_physics_shape"],
    "materials": [
        {
            "extensions": {},
            "pbrMetallicRoughness": {
                "baseColorFactor": [1, 1, 1, 1],
                "metallicFactor": 0,
                "roughnessFactor": 1
            }
        },
        {
            "extensions": {},
            "pbrMetallicRoughness": {
                "baseColorFactor": [1, 1, 1, 1],
                "metallicFactor": 0,
                "roughnessFactor": 1
            }
        },
        {
            "extensions": {},
            "pbrMetallicRoughness": {
                "baseColorFactor": [1, 1, 1, 1],
                "metallicFactor": 0,
                "roughnessFactor": 1
            }
        },
        {
            "extensions": {},
            "pbrMetallicRoughness": {
                "baseColorFactor": [1, 1, 1, 1],
                "metallicFactor": 0,
                "roughnessFactor": 1
            }
        }
    ],
    "meshes": [
        {
            "extras": { "targetNames": [] },
            "primitives": [
                {
                    "attributes": { "NORMAL": 2, "POSITION": 0, "TANGENT": 1, "TEXCOORD_0": 3 },
                    "indices": 4,
                    "material": 0,
                    "mode": 4
                }
            ]
        },
        {
            "extras": { "targetNames": [] },
            "primitives": [
                {
                    "attributes": { "NORMAL": 7, "POSITION": 5, "TANGENT": 6, "TEXCOORD_0": 8 },
                    "indices": 9,
                    "material": 1,
                    "mode": 4
                }
            ]
        },
        {
            "extras": { "targetNames": [] },
            "primitives": [
                {
                    "attributes": { "NORMAL": 12, "POSITION": 10, "TANGENT": 11, "TEXCOORD_0": 13 },
                    "indices": 14,
                    "material": 2,
                    "mode": 4
                }
            ]
        },
        {
            "extras": { "targetNames": [] },
            "primitives": [
                {
                    "attributes": { "NORMAL": 17, "POSITION": 15, "TANGENT": 16, "TEXCOORD_0": 18 },
                    "indices": 19,
                    "material": 3,
                    "mode": 4
                }
            ]
        }
    ],
    "nodes": [
        { "children": [1, 6, 11, 16, 19], "name": "HangingRope" },
        {
            "children": [2, 5],
            "extensions": { "OMI_physics_body": { "motion": { "type": "static" } } },
            "name": "Ceiling",
            "translation": [0, 1.5, 0]
        },
        {
            "children": [3],
            "extensions": { "OMI_physics_body": { "collider": { "shape": 0 } } },
            "name": "CeilingCollider"
        },
        { "mesh": 0, "name": "CeilingMesh" },
        {
            "extensions": { "OMI_physics_joint": { "connectedNode": 5, "joint": 0 } },
            "name": "PinJoint1",
            "rotation": [0, 0, -0.25881914260901, 0.965925800162279],
            "translation": [0.197224363737311, 0.00160251509060894, 0]
        },
        { "name": "CeilingJointAttachment", "translation": [-0.00000002794178, -0.25, 0] },
        {
            "children": [7, 10, 4],
            "extensions": { "OMI_physics_body": { "motion": { "type": "dynamic" } } },
            "name": "RopeSegmentTop",
            "rotation": [
                0, 0, 0.258819142609008, 0.965925800162279
            ],
            "translation": [-0.17, 1.15, 0]
        },
        {
            "children": [8],
            "extensions": { "OMI_physics_body": { "collider": { "shape": 1 } } },
            "name": "RopeColliderTop",
            "rotation": [
                0, 0, 0.707106796640861,
                0.707106765732234
            ]
        },
        { "mesh": 1, "name": "RopeMeshTop" },
        {
            "extensions": { "OMI_physics_joint": { "connectedNode": 10, "joint": 0 } },
            "name": "PinJoint2",
            "rotation": [0, 0, -0.17364804748477, 0.984807775966826],
            "translation": [0.224696991890219, 0.00335123794016523, 0]
        },
        {
            "name": "RopeSegmentTopJointAttachment",
            "rotation": [0, 0, -0.25881914260901, 0.965925800162279],
            "translation": [-0.23320516309786, -0.00392300274365, -0]
        },
        {
            "children": [12, 15, 9],
            "extensions": { "OMI_physics_body": { "motion": { "type": "dynamic" } } },
            "name": "RopeSegmentMiddle",
            "rotation": [0, 0, 0.173648047484773, 0.984807775966826],
            "translation": [-0.58, 0.95, 0]
        },
        {
            "children": [13],
            "extensions": { "OMI_physics_body": { "collider": { "shape": 1 } } },
            "name": "RopeColliderMiddle",
            "rotation": [0, 0, 0.707106796640861, 0.707106765732234]
        },
        { "mesh": 2, "name": "RopeMeshMiddle" },
        {
            "extensions": { "OMI_physics_joint": { "connectedNode": 15, "joint": 0 } },
            "name": "PinJoint3",
            "translation": [0.23, 0, 0]
        },
        {
            "name": "RopeSegmentMiddleJointAttachment",
            "rotation": [0, 0, -0.17364804748477, 0.984807775966826],
            "translation": [-0.23409391611441, 0.0000689599576140232, -0]
        },
        {
            "children": [17, 14],
            "extensions": { "OMI_physics_body": { "motion": { "type": "dynamic" } } },
            "name": "RopeSegmentBottom",
            "translation": [-1.03, 0.87, 0]
        },
        {
            "children": [18],
            "extensions": { "OMI_physics_body": { "collider": { "shape": 1 } } },
            "name": "RopeColliderBottom",
            "rotation": [0, 0, 0.707106796640861, 0.707106765732234]
        },
        { "mesh": 3, "name": "RopeMeshBottom" },
        { "camera": 0, "name": "Camera", "translation": [0, 0.6, 1.5] }
    ],
    "scene": 0,
    "scenes": [{ "nodes": [0] }]
}
