{
    "accessors": [
        {
            "bufferView": 0,
            "byteOffset": 0,
            "componentType": 5126,
            "count": 1950,
            "max": [0.05, 0.25, 0.05],
            "min": [-0.05, -0.25, -0.05],
            "normalized": false,
            "type": "VEC3"
        },
        {
            "bufferView": 1,
            "byteOffset": 0,
            "componentType": 5126,
            "count": 1950,
            "max": [1, 0, 1, 1],
            "min": [-1, -0.00002157984454, -1, 1],
            "normalized": false,
            "type": "VEC4"
        },
        {
            "bufferView": 2,
            "byteOffset": 0,
            "componentType": 5126,
            "count": 1950,
            "max": [1, 1, 1],
            "min": [-1, -1, -1],
            "normalized": false,
            "type": "VEC3"
        },
        {
            "bufferView": 3,
            "byteOffset": 0,
            "componentType": 5126,
            "count": 1950,
            "max": [1, 1],
            "min": [0, 0],
            "normalized": false,
            "type": "VEC2"
        },
        {
            "bufferView": 4,
            "byteOffset": 0,
            "componentType": 5123,
            "count": 10368,
            "max": [1949],
            "min": [0],
            "normalized": false,
            "type": "SCALAR"
        },
        {
            "bufferView": 5,
            "byteOffset": 0,
            "componentType": 5126,
            "count": 1950,
            "max": [0.05, 0.25, 0.05],
            "min": [-0.05, -0.25, -0.05],
            "normalized": false,
            "type": "VEC3"
        },
        {
            "bufferView": 6,
            "byteOffset": 0,
            "componentType": 5126,
            "count": 1950,
            "max": [1, 0, 1, 1],
            "min": [-1, -0.00002157984454, -1, 1],
            "normalized": false,
            "type": "VEC4"
        },
        {
            "bufferView": 7,
            "byteOffset": 0,
            "componentType": 5126,
            "count": 1950,
            "max": [1, 1, 1],
            "min": [-1, -1, -1],
            "normalized": false,
            "type": "VEC3"
        },
        {
            "bufferView": 8,
            "byteOffset": 0,
            "componentType": 5126,
            "count": 1950,
            "max": [1, 1],
            "min": [0, 0],
            "normalized": false,
            "type": "VEC2"
        },
        {
            "bufferView": 9,
            "byteOffset": 0,
            "componentType": 5123,
            "count": 10368,
            "max": [1949],
            "min": [0],
            "normalized": false,
            "type": "SCALAR"
        },
        {
            "bufferView": 10,
            "byteOffset": 0,
            "componentType": 5126,
            "count": 24,
            "max": [0.5, 0.125, 0.5],
            "min": [-0.5, -0.125, -0.5],
            "normalized": false,
            "type": "VEC3"
        },
        {
            "bufferView": 11,
            "byteOffset": 0,
            "componentType": 5126,
            "count": 24,
            "max": [1, 0, 1, 1],
            "min": [-1, -0.00001525948755, -1, 1],
            "normalized": false,
            "type": "VEC4"
        },
        {
            "bufferView": 12,
            "byteOffset": 0,
            "componentType": 5126,
            "count": 24,
            "max": [1, 1, 1],
            "min": [-1, -1, -1],
            "normalized": false,
            "type": "VEC3"
        },
        {
            "bufferView": 13,
            "byteOffset": 0,
            "componentType": 5126,
            "count": 24,
            "max": [1, 1],
            "min": [0, 0],
            "normalized": false,
            "type": "VEC2"
        },
        {
            "bufferView": 14,
            "byteOffset": 0,
            "componentType": 5123,
            "count": 36,
            "max": [23],
            "min": [0],
            "normalized": false,
            "type": "SCALAR"
        }
    ],
    "asset": {
        "generator": "Godot Engine v4.4.dev.custom_build@1855bc0edb8caa8c7d0ee19f3867674bc7aeb43f",
        "version": "2.0"
    },
    "bufferViews": [
        { "buffer": 0, "byteLength": 23400, "byteOffset": 0, "byteStride": 12, "target": 34962 },
        { "buffer": 0, "byteLength": 31200, "byteOffset": 23400, "byteStride": 16, "target": 34962 },
        { "buffer": 0, "byteLength": 23400, "byteOffset": 54600, "byteStride": 12, "target": 34962 },
        { "buffer": 0, "byteLength": 15600, "byteOffset": 78000, "byteStride": 8, "target": 34962 },
        { "buffer": 0, "byteLength": 20736, "byteOffset": 93600, "target": 34963 },
        { "buffer": 0, "byteLength": 23400, "byteOffset": 114336, "byteStride": 12, "target": 34962 },
        { "buffer": 0, "byteLength": 31200, "byteOffset": 137736, "byteStride": 16, "target": 34962 },
        { "buffer": 0, "byteLength": 23400, "byteOffset": 168936, "byteStride": 12, "target": 34962 },
        { "buffer": 0, "byteLength": 15600, "byteOffset": 192336, "byteStride": 8, "target": 34962 },
        { "buffer": 0, "byteLength": 20736, "byteOffset": 207936, "target": 34963 },
        { "buffer": 0, "byteLength": 288, "byteOffset": 228672, "byteStride": 12, "target": 34962 },
        { "buffer": 0, "byteLength": 384, "byteOffset": 228960, "byteStride": 16, "target": 34962 },
        { "buffer": 0, "byteLength": 288, "byteOffset": 229344, "byteStride": 12, "target": 34962 },
        { "buffer": 0, "byteLength": 192, "byteOffset": 229632, "byteStride": 8, "target": 34962 },
        { "buffer": 0, "byteLength": 72, "byteOffset": 229824, "target": 34963 }
    ],
    "buffers": [{ "byteLength": 229896, "uri": "simple_joint0.bin" }],
    "cameras": [{ "perspective": { "yfov": 1.30899693899575, "zfar": 4000, "znear": 0.05 }, "type": "perspective" }],
    "extensions": {
        "OMI_physics_joint": {
            "physicsJoints": [
                { "limits": [{ "damping": 1, "linearAxes": [0, 1, 2], "max": 0, "min": 0, "stiffness": 0.3 }] }
            ]
        },
        "OMI_physics_shape": {
            "shapes": [
                { "capsule": { "height": 0.5, "radius": 0.05 }, "type": "capsule" },
                { "box": { "size": [1, 0.25, 1] }, "type": "box" }
            ]
        }
    },
    "extensionsUsed": ["GODOT_single_root", "OMI_physics_body", "OMI_physics_joint", "OMI_physics_shape"],
    "materials": [
        {
            "extensions": {},
            "pbrMetallicRoughness": {
                "baseColorFactor": [1, 1, 1, 1],
                "metallicFactor": 0,
                "roughnessFactor": 1
            }
        },
        {
            "extensions": {},
            "pbrMetallicRoughness": {
                "baseColorFactor": [1, 1, 1, 1],
                "metallicFactor": 0,
                "roughnessFactor": 1
            }
        },
        {
            "extensions": {},
            "pbrMetallicRoughness": {
                "baseColorFactor": [1, 1, 1, 1],
                "metallicFactor": 0,
                "roughnessFactor": 1
            }
        }
    ],
    "meshes": [
        {
            "extras": { "targetNames": [] },
            "primitives": [
                {
                    "attributes": { "NORMAL": 2, "POSITION": 0, "TANGENT": 1, "TEXCOORD_0": 3 },
                    "indices": 4,
                    "material": 0,
                    "mode": 4
                }
            ]
        },
        {
            "extras": { "targetNames": [] },
            "primitives": [
                {
                    "attributes": { "NORMAL": 7, "POSITION": 5, "TANGENT": 6, "TEXCOORD_0": 8 },
                    "indices": 9,
                    "material": 1,
                    "mode": 4
                }
            ]
        },
        {
            "extras": { "targetNames": [] },
            "primitives": [
                {
                    "attributes": { "NORMAL": 12, "POSITION": 10, "TANGENT": 11, "TEXCOORD_0": 13 },
                    "indices": 14,
                    "material": 2,
                    "mode": 4
                }
            ]
        }
    ],
    "nodes": [
        { "children": [1, 6, 9, 12], "name": "SimpleJoint" },
        {
            "children": [2, 4],
            "extensions": { "OMI_physics_body": { "motion": { "type": "dynamic" } } },
            "name": "BodyA",
            "rotation": [0, 0, -0.17364804748477, 0.984807775966826],
            "translation": [-0.45, 0.68, 0]
        },
        {
            "children": [3],
            "extensions": { "OMI_physics_body": { "collider": { "shape": 0 } } },
            "name": "ColliderA",
            "rotation": [0, 0, 0.707106796640861, 0.707106765732234]
        },
        { "mesh": 0, "name": "MeshA" },
        {
            "extensions": { "OMI_physics_joint": { "connectedNode": 5, "joint": 0 } },
            "name": "PinJoint",
            "rotation": [0, 0, 0.173648047484773, 0.984807775966826],
            "translation": [0.234093916114409, 0.0000689599576137456, 0]
        },
        { "name": "BodyBJointAttachment", "translation": [-0.23, 0, 0] },
        {
            "children": [7, 5],
            "extensions": { "OMI_physics_body": { "motion": { "type": "dynamic" } } },
            "name": "BodyB",
            "translation": [0, 0.6, 0]
        },
        {
            "children": [8],
            "extensions": { "OMI_physics_body": { "collider": { "shape": 0 } } },
            "name": "ColliderB",
            "rotation": [0, 0, 0.707106796640861, 0.707106765732234]
        },
        { "mesh": 1, "name": "MeshB" },
        {
            "children": [10],
            "extensions": { "OMI_physics_body": { "motion": { "type": "static" } } },
            "name": "FloorBody",
            "translation": [0.1, 0, 0]
        },
        {
            "children": [11],
            "extensions": { "OMI_physics_body": { "collider": { "shape": 1 } } },
            "name": "FloorShape"
        },
        { "mesh": 2, "name": "FloorMesh" },
        { "camera": 0, "name": "Camera", "translation": [0, 0.5, 1.5] }
    ],
    "scene": 0,
    "scenes": [{ "nodes": [0] }]
}
