{
    "accessors": [
        {
            "bufferView": 0,
            "byteOffset": 0,
            "componentType": 5126,
            "count": 24,
            "max": [1, 0.05, 0.05],
            "min": [-1, -0.05, -0.05],
            "normalized": false,
            "type": "VEC3"
        },
        {
            "bufferView": 1,
            "byteOffset": 0,
            "componentType": 5126,
            "count": 24,
            "max": [1, 0, 1, 1],
            "min": [-1, -0.00001525948755, -1, 1],
            "normalized": false,
            "type": "VEC4"
        },
        {
            "bufferView": 2,
            "byteOffset": 0,
            "componentType": 5126,
            "count": 24,
            "max": [1, 1, 1],
            "min": [-1, -1, -1],
            "normalized": false,
            "type": "VEC3"
        },
        {
            "bufferView": 3,
            "byteOffset": 0,
            "componentType": 5126,
            "count": 24,
            "max": [1, 1],
            "min": [0, 0],
            "normalized": false,
            "type": "VEC2"
        },
        {
            "bufferView": 4,
            "byteOffset": 0,
            "componentType": 5123,
            "count": 36,
            "max": [23],
            "min": [0],
            "normalized": false,
            "type": "SCALAR"
        },
        {
            "bufferView": 5,
            "byteOffset": 0,
            "componentType": 5126,
            "count": 2210,
            "max": [0.249716833233833, 0.25, 0.249716833233833],
            "min": [-0.24971683323383, -0.25, -0.24971683323383],
            "normalized": false,
            "type": "VEC3"
        },
        {
            "bufferView": 6,
            "byteOffset": 0,
            "componentType": 5126,
            "count": 2210,
            "max": [1, 0, 1, 1],
            "min": [-1, -0.00002157984454, -1, 1],
            "normalized": false,
            "type": "VEC4"
        },
        {
            "bufferView": 7,
            "byteOffset": 0,
            "componentType": 5126,
            "count": 2210,
            "max": [0.998867988586426, 1, 0.998867988586426],
            "min": [-0.99886876344681, -1, -0.99886721372604],
            "normalized": false,
            "type": "VEC3"
        },
        {
            "bufferView": 8,
            "byteOffset": 0,
            "componentType": 5126,
            "count": 2210,
            "max": [1, 1],
            "min": [0, 0],
            "normalized": false,
            "type": "VEC2"
        },
        {
            "bufferView": 9,
            "byteOffset": 0,
            "componentType": 5123,
            "count": 12672,
            "max": [2209],
            "min": [0],
            "normalized": false,
            "type": "SCALAR"
        }
    ],
    "asset": {
        "generator": "Godot Engine v4.4.dev.custom_build@1855bc0edb8caa8c7d0ee19f3867674bc7aeb43f",
        "version": "2.0"
    },
    "bufferViews": [
        { "buffer": 0, "byteLength": 288, "byteOffset": 0, "byteStride": 12, "target": 34962 },
        { "buffer": 0, "byteLength": 384, "byteOffset": 288, "byteStride": 16, "target": 34962 },
        { "buffer": 0, "byteLength": 288, "byteOffset": 672, "byteStride": 12, "target": 34962 },
        { "buffer": 0, "byteLength": 192, "byteOffset": 960, "byteStride": 8, "target": 34962 },
        { "buffer": 0, "byteLength": 72, "byteOffset": 1152, "target": 34963 },
        { "buffer": 0, "byteLength": 26520, "byteOffset": 1224, "byteStride": 12, "target": 34962 },
        { "buffer": 0, "byteLength": 35360, "byteOffset": 27744, "byteStride": 16, "target": 34962 },
        { "buffer": 0, "byteLength": 26520, "byteOffset": 63104, "byteStride": 12, "target": 34962 },
        { "buffer": 0, "byteLength": 17680, "byteOffset": 89624, "byteStride": 8, "target": 34962 },
        { "buffer": 0, "byteLength": 25344, "byteOffset": 107304, "target": 34963 }
    ],
    "buffers": [{ "byteLength": 132648, "uri": "slider_ball0.bin" }],
    "cameras": [{ "perspective": { "yfov": 1.30899693899575, "zfar": 4000, "znear": 0.05 }, "type": "perspective" }],
    "extensions": {
        "OMI_physics_joint": {
            "physicsJoints": [
                {
                    "limits": [
                        { "damping": 0.5, "linearAxes": [0], "max": 0.25, "min": -1.75, "stiffness": 1 },
                        { "damping": 1, "linearAxes": [1, 2], "max": 0, "min": 0, "stiffness": 1 },
                        { "angularAxes": [0], "max": 0, "min": 0, "stiffness": 1 },
                        { "angularAxes": [1, 2], "damping": 1, "max": 0, "min": 0, "stiffness": 1 }
                    ]
                }
            ]
        },
        "OMI_physics_shape": {
            "shapes": [
                { "box": { "size": [2, 0.1, 0.1] }, "type": "box" },
                { "sphere": { "radius": 0.25 }, "type": "sphere" }
            ]
        }
    },
    "extensionsUsed": ["GODOT_single_root", "OMI_physics_body", "OMI_physics_joint", "OMI_physics_shape"],
    "materials": [
        {
            "extensions": {},
            "pbrMetallicRoughness": {
                "baseColorFactor": [1, 1, 1, 1],
                "metallicFactor": 0,
                "roughnessFactor": 1
            }
        },
        {
            "extensions": {},
            "pbrMetallicRoughness": {
                "baseColorFactor": [1, 1, 1, 1],
                "metallicFactor": 0,
                "roughnessFactor": 1
            }
        }
    ],
    "meshes": [
        {
            "extras": { "targetNames": [] },
            "primitives": [
                {
                    "attributes": { "NORMAL": 2, "POSITION": 0, "TANGENT": 1, "TEXCOORD_0": 3 },
                    "indices": 4,
                    "material": 0,
                    "mode": 4
                }
            ]
        },
        {
            "extras": { "targetNames": [] },
            "primitives": [
                {
                    "attributes": { "NORMAL": 7, "POSITION": 5, "TANGENT": 6, "TEXCOORD_0": 8 },
                    "indices": 9,
                    "material": 1,
                    "mode": 4
                }
            ]
        }
    ],
    "nodes": [
        { "children": [1, 6, 9], "name": "PendulumBalls" },
        {
            "children": [2, 5],
            "extensions": { "OMI_physics_body": { "motion": { "type": "static" } } },
            "name": "SliderLine"
        },
        {
            "children": [3],
            "extensions": { "OMI_physics_body": { "collider": { "shape": 0 } } },
            "name": "SliderLineShape"
        },
        { "mesh": 0, "name": "SliderLineMesh" },
        { "extensions": { "OMI_physics_joint": { "connectedNode": 5, "joint": 0 } }, "name": "SliderJoint" },
        { "name": "SliderLineJointAttachment", "translation": [-0.75, 0, 0] },
        {
            "children": [7, 4],
            "extensions": {
                "OMI_physics_body": {
                    "motion": {
                        "angularVelocity": [0.0174533, 0.0174533, 0.0174533],
                        "linearVelocity": [1, 0, 0],
                        "type": "dynamic"
                    }
                }
            },
            "name": "Ball",
            "translation": [-0.75, 0, 0]
        },
        { "children": [8], "extensions": { "OMI_physics_body": { "collider": { "shape": 1 } } }, "name": "BallShape" },
        { "mesh": 1, "name": "BallMesh" },
        { "camera": 0, "name": "Camera", "translation": [0, 0, 1.5] }
    ],
    "scene": 0,
    "scenes": [{ "nodes": [0] }]
}
