{
    "accessors": [
        {
            "bufferView": 0,
            "byteOffset": 0,
            "componentType": 5126,
            "count": 24,
            "max": [
                1,
                0.05,
                0.05
            ],
            "min": [
                -1,
                -0.05,
                -0.05
            ],
            "normalized": false,
            "type": "VEC3"
        },
        {
            "bufferView": 1,
            "byteOffset": 0,
            "componentType": 5126,
            "count": 24,
            "max": [
                1,
                0,
                1,
                1
            ],
            "min": [
                -1,
                -0.000015,
                -1,
                1
            ],
            "normalized": false,
            "type": "VEC4"
        },
        {
            "bufferView": 2,
            "byteOffset": 0,
            "componentType": 5126,
            "count": 24,
            "max": [
                1,
                1,
                1
            ],
            "min": [
                -1,
                -1,
                -1
            ],
            "normalized": false,
            "type": "VEC3"
        },
        {
            "bufferView": 3,
            "byteOffset": 0,
            "componentType": 5126,
            "count": 24,
            "max": [
                1,
                1
            ],
            "min": [
                0,
                0
            ],
            "normalized": false,
            "type": "VEC2"
        },
        {
            "bufferView": 4,
            "byteOffset": 0,
            "componentType": 5125,
            "count": 36,
            "max": [
                23
            ],
            "min": [
                0
            ],
            "normalized": false,
            "type": "SCALAR"
        },
        {
            "bufferView": 5,
            "byteOffset": 0,
            "componentType": 5126,
            "count": 2210,
            "max": [
                0.249717,
                0.25,
                0.249717
            ],
            "min": [
                -0.249717,
                -0.25,
                -0.249717
            ],
            "normalized": false,
            "type": "VEC3"
        },
        {
            "bufferView": 6,
            "byteOffset": 0,
            "componentType": 5126,
            "count": 2210,
            "max": [
                1,
                0,
                1,
                1
            ],
            "min": [
                -1,
                -0.000022,
                -1,
                1
            ],
            "normalized": false,
            "type": "VEC4"
        },
        {
            "bufferView": 7,
            "byteOffset": 0,
            "componentType": 5126,
            "count": 2210,
            "max": [
                0.998868,
                1,
                0.998868
            ],
            "min": [
                -0.998869,
                -1,
                -0.998867
            ],
            "normalized": false,
            "type": "VEC3"
        },
        {
            "bufferView": 8,
            "byteOffset": 0,
            "componentType": 5126,
            "count": 2210,
            "max": [
                1,
                1
            ],
            "min": [
                0,
                0
            ],
            "normalized": false,
            "type": "VEC2"
        },
        {
            "bufferView": 9,
            "byteOffset": 0,
            "componentType": 5125,
            "count": 12672,
            "max": [
                2209
            ],
            "min": [
                0
            ],
            "normalized": false,
            "type": "SCALAR"
        },
        {
            "bufferView": 10,
            "byteOffset": 0,
            "componentType": 5126,
            "count": 1950,
            "max": [
                0.05,
                0.5,
                0.05
            ],
            "min": [
                -0.05,
                -0.5,
                -0.05
            ],
            "normalized": false,
            "type": "VEC3"
        },
        {
            "bufferView": 11,
            "byteOffset": 0,
            "componentType": 5126,
            "count": 1950,
            "max": [
                1,
                0,
                1,
                1
            ],
            "min": [
                -1,
                -0.000022,
                -1,
                1
            ],
            "normalized": false,
            "type": "VEC4"
        },
        {
            "bufferView": 12,
            "byteOffset": 0,
            "componentType": 5126,
            "count": 1950,
            "max": [
                1,
                1,
                1
            ],
            "min": [
                -1,
                -1,
                -1
            ],
            "normalized": false,
            "type": "VEC3"
        },
        {
            "bufferView": 13,
            "byteOffset": 0,
            "componentType": 5126,
            "count": 1950,
            "max": [
                1,
                1
            ],
            "min": [
                0,
                0
            ],
            "normalized": false,
            "type": "VEC2"
        },
        {
            "bufferView": 14,
            "byteOffset": 0,
            "componentType": 5125,
            "count": 10368,
            "max": [
                1949
            ],
            "min": [
                0
            ],
            "normalized": false,
            "type": "SCALAR"
        }
    ],
    "asset": {
        "generator": "Godot Engine v4.1.dev.custom_build@9f12e7b52d944281a39b7d3a33de6700c76cc23a",
        "version": "2.0"
    },
    "bufferViews": [
        {
            "buffer": 0,
            "byteLength": 288,
            "byteOffset": 0
        },
        {
            "buffer": 0,
            "byteLength": 384,
            "byteOffset": 288
        },
        {
            "buffer": 0,
            "byteLength": 288,
            "byteOffset": 672
        },
        {
            "buffer": 0,
            "byteLength": 192,
            "byteOffset": 960
        },
        {
            "buffer": 0,
            "byteLength": 144,
            "byteOffset": 1152
        },
        {
            "buffer": 0,
            "byteLength": 26520,
            "byteOffset": 1296
        },
        {
            "buffer": 0,
            "byteLength": 35360,
            "byteOffset": 27816
        },
        {
            "buffer": 0,
            "byteLength": 26520,
            "byteOffset": 63176
        },
        {
            "buffer": 0,
            "byteLength": 17680,
            "byteOffset": 89696
        },
        {
            "buffer": 0,
            "byteLength": 50688,
            "byteOffset": 107376
        },
        {
            "buffer": 0,
            "byteLength": 23400,
            "byteOffset": 158064
        },
        {
            "buffer": 0,
            "byteLength": 31200,
            "byteOffset": 181464
        },
        {
            "buffer": 0,
            "byteLength": 23400,
            "byteOffset": 212664
        },
        {
            "buffer": 0,
            "byteLength": 15600,
            "byteOffset": 236064
        },
        {
            "buffer": 0,
            "byteLength": 41472,
            "byteOffset": 251664
        }
    ],
    "buffers": [
        {
            "byteLength": 293136,
            "uri": "swing_and_slide0.bin"
        }
    ],
    "cameras": [
        {
            "perspective": {
                "yfov": 1.30899691581726,
                "zfar": 4000,
                "znear": 0.0500000007450581
            },
            "type": "perspective"
        }
    ],
    "extensions": {
        "OMI_physics_shape": {
            "shapes": [
                {
                    "type": "box",
                    "box": {
                        "size": [2, 0.1, 0.1]
                    }
                },
                {
                    "type": "sphere",
                    "sphere": {
                        "radius": 0.25
                    }
                }
            ]
        },
        "OMI_physics_joint": {
            "constraints": [
                {
                    "linearAxes": [
                        0
                    ],
                    "lowerLimit": -0.25,
                    "stiffness": 0.699999988079071,
                    "upperLimit": 1.75
                },
                {
                    "linearAxes": [
                        1,
                        2
                    ],
                    "stiffness": 0.699999988079071
                },
                {
                    "angularAxes": [
                        0,
                        1
                    ],
                    "stiffness": 0.5
                }
            ]
        }
    },
    "extensionsUsed": [
        "OMI_physics_body",
        "OMI_physics_joint",
        "OMI_physics_shape"
    ],
    "materials": [
        {
            "extensions": {},
            "pbrMetallicRoughness": {
                "baseColorFactor": [
                    0.99999988079071,
                    0.99999988079071,
                    0.99999988079071,
                    1
                ],
                "metallicFactor": 0,
                "roughnessFactor": 1
            }
        },
        {
            "extensions": {},
            "pbrMetallicRoughness": {
                "baseColorFactor": [
                    0.99999988079071,
                    0.99999988079071,
                    0.99999988079071,
                    1
                ],
                "metallicFactor": 0,
                "roughnessFactor": 1
            }
        },
        {
            "extensions": {},
            "pbrMetallicRoughness": {
                "baseColorFactor": [
                    0.99999988079071,
                    0.99999988079071,
                    0.99999988079071,
                    1
                ],
                "metallicFactor": 0,
                "roughnessFactor": 1
            }
        }
    ],
    "meshes": [
        {
            "extras": {
                "targetNames": []
            },
            "primitives": [
                {
                    "attributes": {
                        "NORMAL": 2,
                        "POSITION": 0,
                        "TANGENT": 1,
                        "TEXCOORD_0": 3
                    },
                    "indices": 4,
                    "material": 0,
                    "mode": 4
                }
            ]
        },
        {
            "extras": {
                "targetNames": []
            },
            "primitives": [
                {
                    "attributes": {
                        "NORMAL": 7,
                        "POSITION": 5,
                        "TANGENT": 6,
                        "TEXCOORD_0": 8
                    },
                    "indices": 9,
                    "material": 1,
                    "mode": 4
                }
            ]
        },
        {
            "extras": {
                "targetNames": []
            },
            "primitives": [
                {
                    "attributes": {
                        "NORMAL": 12,
                        "POSITION": 10,
                        "TANGENT": 11,
                        "TEXCOORD_0": 13
                    },
                    "indices": 14,
                    "material": 2,
                    "mode": 4
                }
            ]
        }
    ],
    "nodes": [
        {
            "children": [
                1,
                4,
                5,
                9
            ],
            "extensions": {},
            "name": "SwingAndSlide"
        },
        {
            "children": [
                2
            ],
            "extensions": {
                "OMI_physics_body": {
                    "motion": {
                        "type": "static"
                    }
                }
            },
            "name": "TopBody",
            "translation": [
                0.00000000000208164995657567,
                1,
                0.00000000000208164995657567
            ]
        },
        {
            "children": [
                3
            ],
            "extensions": {
                "OMI_physics_body": {
                    "collider": {
                        "shape": 0
                    }
                }
            },
            "name": "TopBodyShape"
        },
        {
            "extensions": {},
            "mesh": 0,
            "name": "TopBodyMesh"
        },
        {
            "extensions": {
                "OMI_physics_joint": {
                    "constraints": [
                        0,
                        1,
                        2
                    ],
                    "nodeA": 1,
                    "nodeB": 5
                }
            },
            "name": "CustomJoint",
            "translation": [
                -0.75,
                1,
                0.00000000000208164995657567
            ]
        },
        {
            "children": [
                6,
                8
            ],
            "extensions": {
                "OMI_physics_body": {
                    "motion": {
                        "type": "dynamic"
                    }
                }
            },
            "name": "Ball",
            "rotation": [
                0.000000000000000094381003489835,
                0.000000000000000227855912687686,
                -0.38268345594406,
                0.923879563808441
            ],
            "translation": [
                -1.60000002384186,
                0.150000005960464,
                0.00000000000208164995657567
            ]
        },
        {
            "children": [
                7
            ],
            "extensions": {
                "OMI_physics_body": {
                    "collider": {
                        "shape": 1
                    }
                }
            },
            "name": "BallShape"
        },
        {
            "extensions": {},
            "mesh": 1,
            "name": "BallMesh"
        },
        {
            "extensions": {},
            "mesh": 2,
            "name": "BallStringMesh",
            "translation": [
                0.00000000000208164995657567,
                0.699999988079071,
                0.00000000000208164995657567
            ]
        },
        {
            "camera": 0,
            "extensions": {},
            "name": "Camera",
            "translation": [
                0.00000000000208164995657567,
                0.00000000000208164995657567,
                1.5
            ]
        }
    ],
    "scene": 0,
    "scenes": [
        {
            "nodes": [
                0
            ]
        }
    ]
}
