{
    "accessors": [
        {
            "bufferView": 0,
            "byteOffset": 0,
            "componentType": 5126,
            "count": 1950,
            "max": [
                0.05,
                0.25,
                0.05
            ],
            "min": [
                -0.05,
                -0.25,
                -0.05
            ],
            "normalized": false,
            "type": "VEC3"
        },
        {
            "bufferView": 1,
            "byteOffset": 0,
            "componentType": 5126,
            "count": 1950,
            "max": [
                1,
                0,
                1,
                1
            ],
            "min": [
                -1,
                -0.000022,
                -1,
                1
            ],
            "normalized": false,
            "type": "VEC4"
        },
        {
            "bufferView": 2,
            "byteOffset": 0,
            "componentType": 5126,
            "count": 1950,
            "max": [
                1,
                1,
                1
            ],
            "min": [
                -1,
                -1,
                -1
            ],
            "normalized": false,
            "type": "VEC3"
        },
        {
            "bufferView": 3,
            "byteOffset": 0,
            "componentType": 5126,
            "count": 1950,
            "max": [
                1,
                1
            ],
            "min": [
                0,
                0
            ],
            "normalized": false,
            "type": "VEC2"
        },
        {
            "bufferView": 4,
            "byteOffset": 0,
            "componentType": 5125,
            "count": 10368,
            "max": [
                1949
            ],
            "min": [
                0
            ],
            "normalized": false,
            "type": "SCALAR"
        },
        {
            "bufferView": 5,
            "byteOffset": 0,
            "componentType": 5126,
            "count": 1950,
            "max": [
                0.05,
                0.25,
                0.05
            ],
            "min": [
                -0.05,
                -0.25,
                -0.05
            ],
            "normalized": false,
            "type": "VEC3"
        },
        {
            "bufferView": 6,
            "byteOffset": 0,
            "componentType": 5126,
            "count": 1950,
            "max": [
                1,
                0,
                1,
                1
            ],
            "min": [
                -1,
                -0.000022,
                -1,
                1
            ],
            "normalized": false,
            "type": "VEC4"
        },
        {
            "bufferView": 7,
            "byteOffset": 0,
            "componentType": 5126,
            "count": 1950,
            "max": [
                1,
                1,
                1
            ],
            "min": [
                -1,
                -1,
                -1
            ],
            "normalized": false,
            "type": "VEC3"
        },
        {
            "bufferView": 8,
            "byteOffset": 0,
            "componentType": 5126,
            "count": 1950,
            "max": [
                1,
                1
            ],
            "min": [
                0,
                0
            ],
            "normalized": false,
            "type": "VEC2"
        },
        {
            "bufferView": 9,
            "byteOffset": 0,
            "componentType": 5125,
            "count": 10368,
            "max": [
                1949
            ],
            "min": [
                0
            ],
            "normalized": false,
            "type": "SCALAR"
        },
        {
            "bufferView": 10,
            "byteOffset": 0,
            "componentType": 5126,
            "count": 24,
            "max": [
                0.5,
                0.125,
                0.5
            ],
            "min": [
                -0.5,
                -0.125,
                -0.5
            ],
            "normalized": false,
            "type": "VEC3"
        },
        {
            "bufferView": 11,
            "byteOffset": 0,
            "componentType": 5126,
            "count": 24,
            "max": [
                1,
                0,
                1,
                1
            ],
            "min": [
                -1,
                -0.000015,
                -1,
                1
            ],
            "normalized": false,
            "type": "VEC4"
        },
        {
            "bufferView": 12,
            "byteOffset": 0,
            "componentType": 5126,
            "count": 24,
            "max": [
                1,
                1,
                1
            ],
            "min": [
                -1,
                -1,
                -1
            ],
            "normalized": false,
            "type": "VEC3"
        },
        {
            "bufferView": 13,
            "byteOffset": 0,
            "componentType": 5126,
            "count": 24,
            "max": [
                1,
                1
            ],
            "min": [
                0,
                0
            ],
            "normalized": false,
            "type": "VEC2"
        },
        {
            "bufferView": 14,
            "byteOffset": 0,
            "componentType": 5125,
            "count": 36,
            "max": [
                23
            ],
            "min": [
                0
            ],
            "normalized": false,
            "type": "SCALAR"
        }
    ],
    "asset": {
        "generator": "Godot Engine v4.1.dev.custom_build@9f12e7b52d944281a39b7d3a33de6700c76cc23a",
        "version": "2.0"
    },
    "bufferViews": [
        {
            "buffer": 0,
            "byteLength": 23400,
            "byteOffset": 0
        },
        {
            "buffer": 0,
            "byteLength": 31200,
            "byteOffset": 23400
        },
        {
            "buffer": 0,
            "byteLength": 23400,
            "byteOffset": 54600
        },
        {
            "buffer": 0,
            "byteLength": 15600,
            "byteOffset": 78000
        },
        {
            "buffer": 0,
            "byteLength": 41472,
            "byteOffset": 93600
        },
        {
            "buffer": 0,
            "byteLength": 23400,
            "byteOffset": 135072
        },
        {
            "buffer": 0,
            "byteLength": 31200,
            "byteOffset": 158472
        },
        {
            "buffer": 0,
            "byteLength": 23400,
            "byteOffset": 189672
        },
        {
            "buffer": 0,
            "byteLength": 15600,
            "byteOffset": 213072
        },
        {
            "buffer": 0,
            "byteLength": 41472,
            "byteOffset": 228672
        },
        {
            "buffer": 0,
            "byteLength": 288,
            "byteOffset": 270144
        },
        {
            "buffer": 0,
            "byteLength": 384,
            "byteOffset": 270432
        },
        {
            "buffer": 0,
            "byteLength": 288,
            "byteOffset": 270816
        },
        {
            "buffer": 0,
            "byteLength": 192,
            "byteOffset": 271104
        },
        {
            "buffer": 0,
            "byteLength": 144,
            "byteOffset": 271296
        }
    ],
    "buffers": [
        {
            "byteLength": 271440,
            "uri": "weld_joint0.bin"
        }
    ],
    "cameras": [
        {
            "perspective": {
                "yfov": 1.30899691581726,
                "zfar": 4000,
                "znear": 0.05
            },
            "type": "perspective"
        }
    ],
    "extensions": {
        "OMI_physics_shape": {
            "shapes": [
                {
                    "type": "capsule",
                    "capsule": {
                        "height": 0.5,
                        "radius": 0.05
                    }
                },
                {
                    "type": "box",
                    "box": {
                        "size": [1, 0.25, 1]
                    }
                }
            ]
        },
        "OMI_physics_joint": {
            "constraints": [
                {
                    "linearAxes": [0, 1, 2],
                    "angularAxes": [0, 1, 2]
                }
            ]
        }
    },
    "extensionsUsed": [
        "OMI_physics_body",
        "OMI_physics_joint",
        "OMI_physics_shape"
    ],
    "materials": [
        {
            "extensions": {},
            "pbrMetallicRoughness": {
                "baseColorFactor": [
                    0.99999988079071,
                    0.99999988079071,
                    0.99999988079071,
                    1
                ],
                "metallicFactor": 0,
                "roughnessFactor": 1
            }
        },
        {
            "extensions": {},
            "pbrMetallicRoughness": {
                "baseColorFactor": [
                    0.99999988079071,
                    0.99999988079071,
                    0.99999988079071,
                    1
                ],
                "metallicFactor": 0,
                "roughnessFactor": 1
            }
        },
        {
            "extensions": {},
            "pbrMetallicRoughness": {
                "baseColorFactor": [
                    0.99999988079071,
                    0.99999988079071,
                    0.99999988079071,
                    1
                ],
                "metallicFactor": 0,
                "roughnessFactor": 1
            }
        }
    ],
    "meshes": [
        {
            "extras": {
                "targetNames": []
            },
            "primitives": [
                {
                    "attributes": {
                        "NORMAL": 2,
                        "POSITION": 0,
                        "TANGENT": 1,
                        "TEXCOORD_0": 3
                    },
                    "indices": 4,
                    "material": 0,
                    "mode": 4
                }
            ]
        },
        {
            "extras": {
                "targetNames": []
            },
            "primitives": [
                {
                    "attributes": {
                        "NORMAL": 7,
                        "POSITION": 5,
                        "TANGENT": 6,
                        "TEXCOORD_0": 8
                    },
                    "indices": 9,
                    "material": 1,
                    "mode": 4
                }
            ]
        },
        {
            "extras": {
                "targetNames": []
            },
            "primitives": [
                {
                    "attributes": {
                        "NORMAL": 12,
                        "POSITION": 10,
                        "TANGENT": 11,
                        "TEXCOORD_0": 13
                    },
                    "indices": 14,
                    "material": 2,
                    "mode": 4
                }
            ]
        }
    ],
    "nodes": [
        {
            "children": [1, 4, 5, 8, 11],
            "extensions": {},
            "name": "SimpleJoint"
        },
        {
            "children": [2],
            "extensions": {
                "OMI_physics_body": {
                    "type": "rigid"
                }
            },
            "name": "BodyA",
            "rotation": [0.000859406718518585, 0.000151536631165072, -0.17364810407162, 0.984807372093201],
            "translation": [-0.45, 0.68, 0.0]
        },
        {
            "children": [3],
            "extensions": {
                "OMI_physics_shape": {
                    "shape": 0
                }
            },
            "name": "ShapeA",
            "rotation": [0.0, 0.0, 0.70710676908493, 0.70710676908493]
        },
        {
            "extensions": {},
            "mesh": 0,
            "name": "MeshA"
        },
        {
            "extensions": {
                "OMI_physics_joint": {
                    "constraints": [0],
                    "nodeA": 1,
                    "nodeB": 5
                }
            },
            "name": "WeldJoint",
            "translation": [-0.23, 0.6, 0.0]
        },
        {
            "children": [
                6
            ],
            "extensions": {
                "OMI_physics_body": {
                    "type": "rigid"
                }
            },
            "name": "BodyB",
            "translation": [0.0, 0.6, 0.0]
        },
        {
            "children": [
                7
            ],
            "extensions": {
                "OMI_physics_shape": {
                    "shape": 0
                }
            },
            "name": "ShapeB",
            "rotation": [0.0, 0.0, 0.70710676908493, 0.70710676908493]
        },
        {
            "extensions": {},
            "mesh": 1,
            "name": "MeshB"
        },
        {
            "children": [
                9
            ],
            "extensions": {
                "OMI_physics_body": {
                    "type": "static"
                }
            },
            "name": "FloorBody",
            "translation": [0.1, 0.0, 0.0]
        },
        {
            "children": [10],
            "extensions": {
                "OMI_physics_shape": {
                    "shape": 1
                }
            },
            "name": "FloorShape"
        },
        {
            "extensions": {},
            "mesh": 2,
            "name": "FloorMesh"
        },
        {
            "camera": 0,
            "extensions": {},
            "name": "Camera",
            "translation": [0.0, 0.5, 1.5]
        }
    ],
    "scene": 0,
    "scenes": [
        {
            "nodes": [0]
        }
    ]
}
