<svg xmlns="http://www.w3.org/2000/svg" fill="#eee" stroke-linecap="round" stroke-linejoin="round" stroke-width="5.74" font-family="sans-serif" font-size="68.85" font-weight="700" viewBox="0 0 1222 669">
  <defs>
    <marker id="x" fill="red" markerHeight="1" markerWidth="1" orient="auto-start-reverse" overflow="visible">
      <use href="#a"/>
    </marker>
    <marker id="y" fill="green" markerHeight="1" markerWidth="1" orient="auto-start-reverse" overflow="visible">
      <use href="#a"/>
    </marker>
    <marker id="z" fill="#00f" markerHeight="1" markerWidth="1" orient="auto-start-reverse" overflow="visible">
      <use href="#a"/>
    </marker>
    <path id="a" d="M-1.4-2.8 6.3 0l-7.7 2.8c1.4-1.6 1.4-4 0-5.6"/>
  </defs>
  <text x="285.96" y="540.7" fill="#00f">+Z</text>
  <path stroke="#00f" marker-end="url(#z)" d="M669.57 310.3 262.02 499.12"/>
  <text x="569.25" y="141.69" fill="green">+Y</text>
  <path stroke="green" marker-end="url(#y)" d="M669.57 310.3V76.42"/>
  <text x="909.06" y="401.76" fill="red">+X</text>
  <path stroke="red" marker-end="url(#x)" d="m669.57 310.3 321.32 124.61"/>
  <path stroke="#000" d="M966.39 113.93c-15.45-4.25-88.58-21.85-95.72-23.2-13.92-2.64-47.84-6.51-48.55 9.17-.28 6.1 1 11.69 9.25 16.29 7.05 3.93 55.42 31.16 95.66 52.28"/>
  <path stroke="#000" d="M523.08 288.86c6.76.22 14.3.48 21.16 3.36 16.63 7 32.9 20.79 51.78 18.74 20.11-2.18 75.97-24.77 96.22-43.89 15.12-14.27 34.56-52.09-4.79-62.53m348.33-7.94-72.19-14.03m-200.98 201.6c-6.74-7.98-8.04-15.4-7.02-25.09M684.47 204.9c-23.39 7.23-64.37 23.04-115.29 44-30.3 12.46-34 31.75-59.16 48.9-29.14 19.88-88.9 45.81-129.48 82.91-11.43 10.45-19.24 23.07-24.89 42.25-14.3 68.7 76.74 58.66 118.87 60.25 16.6.78 34.51 1.89 52.86 7.52 191.2 56.69 382.32 113.75 574.03 168.7 25.68 7.32 46.9 7.21 74.33 4.22 15.37-1.68 24.46-8.23 35.86-20.83 20.59-22.75-7.32-41.1-14.23-45.2-41.9-24.84-85.71-43.67-129.37-64.6-97.04-46.53-196.1-90.91-293-138.94-5.1-2.53-8.3-5.93-12.32-9.94 7.45-9.33 25.18-27.05 28.71-29.41 30.07-20.14 44.08-27.52 77.86-48.36 42.33-26.1 82.81-47.04 116.57-70.77 16.99-11.94 32.26-25.87 48.03-39.35 27.57 5.64 57.2 9.96 89.49 15.51 12.7 2.19 35.92 6.59 64.71 1.77 4.52-.76 26.95-11.18 1.58-21.81-45.62-19.12-93.81-35.96-139.05-54.43 1.34-37.48.3-85.59-10.08-120.67-6.12-20.68-22.6-15.22-31.47-.76-17.45 28.44-28 51.92-48.58 95.8-5.18 11.04-16.4 37.26-22.06 40.89-5.2 2.8-241.36 48.47-253.92 52.35M503.3 301.26c-113.63-32.15-225.64-64.3-340.35-96.45-24.7-6.92-60.88-15-88.3-12.47-9.99.92-34.8 4.48-42.35 6.1-49.95 10.62-21.97 33.86-16.41 36.87 113.12 61.16 228.75 118.49 342.87 178.17"/>
  <path fill="none" stroke="#000" stroke-width=".7" d="m520.13 292.78 9.55.8 9.37 2.84 10.69 4.7 10.95 5.95 12.11 6.27 12.68 3.66 14.9-.57 16.26-4.3 17.8-6.22 17.87-7.58 16.3-8.09 13.9-8.57 12.13-10.03 9.89-11.84 6.72-14.08 3.05-13.2-.47-10-3.26-7.44-4.94-5.8-6.67-3.67-3.97-.69m-155.63 68.64L530.02 287m224.71 66.3 11.98.06 5.64 3.88 2.2 6.1-1.1 5.8m-15.23 2.48 5.04-7.94 9.1-6.44 30.62-18.92 49.92-29.25 39.79-23.17 36.83-21.37 22.26-13.07 17.42-11.08 21-15.72 17.03-15.24 15.45-13.8m-25.94-4.78 4.17 3.75 2.65 4.45 2.47 4.68 1.2 5.7-.21 8.43m-29.69-30.16 4.87 7.99 3.98 8.23 1.88 6.18 1.9 7.95.24 6.62-.8 6.6m151.6-19.29 10.78-.92 12.85-.84 13.85-1.22 10.08-1.5 6.51-2.23 3.2-2.23M952.34 134.9l3.68 2.07 5.53 4.82 7.05 6.24 7.65 5.46 6.88 1.64 8.02-1.77 9.24-3.75 11.03-5.05 16.33-8.28 10.37-5.42 3.47-1.53 3.42-1.45 3.37-2.88m-114.09 31.24 1.79.74 3.5 3.28 3.21 3.95 3.42 5.39 2.58 4.41 2.82 5.5 2.93 5.75 3.1 6.89 3.86 9.46 2.29 5.43 2.58 10.09 1.37 7.33 1.23 11.06.24 4.84-1.82 5.17m-50.58-85.9 3.56 1.14 2.94 3.05 4.29 5.53 3.33 4.95 3.13 5.4 3.17 5.53 2.93 7.03 2.68 6.71 3.18 8.4 2.26 8.8 1.97 11.54.92 7.27.59 11.8.03 4.66-.36 4.71m-59.1-91.83 2.98 1.43 4.12 3.58 4 4.84 3.92 6 3.6 6.76 3.24 7.46 2.69 7.48 2.8 8.63 2.7 8.7 2.56 9.24 2.04 9.5 1.55 10.3.86 8.62.14 7.65-.78 4.68M856 171.32l3.96 2.08 4.59 3.82 4.53 5.5 4.46 7.03 4.14 8.26 3.82 9.48 3.05 9.2 2.76 9.87 2.1 9.04 1.72 9.92 1.32 10.9.73 10.86.07 9.94-.56 8.67-1.23 4.51m-155.44-94.1 5.56 3.35 5.1 5.64 3.87 7.05 3.2 10.98 2.14 15.04 1.13 16.6.61 15.79-.06 16.46-.53 13.78-.96 14.71-1.46 17.12.11 20.46.5 3.9m-210.16-91.13 5.76.74 7.75 1.96 9.07 4.09 8.71 4.65 8.75 4.28 9.46 1.26 10.77-1.6 12.26-3.98 13.39-4.93 13.75-5.92 11.93-5.53 11.1-6.05 12.81-7.65 9.45-5.65 10.34-5.52 9.93-3.26 4-.42 7.21-1.06 9.68-1.86 22.57-6.28 36-10.27 47.17-13.12 36.61-10.18 33.8-9.57 23.58-5.87 26.88-8.54 5.72-2.4 7.6-3.7 5.12-6.17 4.84-7.43 7.63-10.96 10.82-11.3 10.9-9.62 9.35-6.29 7.37-3.69 5.8-2.34 4.53-1.47 3.67-.78 3.2-.24 3.23.48 1.16.67M658 215.47l8.17 1.35 6.68 3.72 6.07 5.78 5.8 7.08 5.32 8.32 4.63 8.07 6.02 7.55 3.85 2.46 8.54 3.73 10.79 5.77m-8.62-68.75 6.93 4.13 4.65 5.83 3.28 7.86 1.09 11.23-1.67 16.82-5.66 22.88 1.24 20.06-.28 15.83-1.08 14.28-2.38 14.41-2.88 15.65.47 15.27 7.36 13.15 13.13 11.23 15.74 9.55 19.17 9.28 44.56 20.6 47.6 22.1 48.92 22.84 49.84 23.11 50.72 23.52 51.73 23.98 52.1 24.36 46.64 22.75 30.76 16.57 10.48 6.78 7 5.3 1.58 1.68M633.73 224.8l7.74 1.16 6.82 3.91 6.52 6.38 6.44 8.59 6.52 10.18 5.7 10.24 6.28 11.67 2.75 4.74 5.2 10.24 3.7 11.39 1.23 11.97-.52 12.34-1.33 11.54-2.67 11.97-3.23 12.76.52 12.8 8.03 11.34 13.64 9.91 17.09 9.23 19.55 8.43 46.03 20.51 49.23 21.99 50.52 22.46 51.22 22.82 52.03 23.43 53.98 23.49 53.23 23.95 49.57 22.12 34.86 17.45 14.24 8.1 10.86 6.85 5.28 4.79M611.7 233.15l7.48 1.07 7.2 3.92 6.68 6.77 6.17 9.58 5.5 12.11 4.12 12.22 3.34 12.79.1 6.72.03 13.67-.79 13.75-2.23 13.35-3.24 12.64-5.55 22.39-2.04 9.78 1.95 9.36 8.45 9.54 13.2 8.8 37.83 17.25 47.71 20.03 51.02 21.38 52.7 22 53.28 22.84 54.02 22.87 56.03 23 55.83 23.35 51.63 21.65 38.72 18.84 17.84 10.14 14.37 9.19 7.51 6.02M588.15 242.2l7.42 1.32 7.22 3.93 6.37 7.07 5.14 10.37 3.3 12.56.95 13.56-.7 14.13-1.2 6.98-3.56 16.1-2.7 12.73-5.05 19-2.95 10.49-2.95 10.71-3.86 12.77-1.66 9.25 2.38 8.27 8.55 8.41 14.35 8.52 39.35 16.54 50.42 19.34 54.17 20.52 54.45 21.25 56.83 21.88 57.05 22.3 58.14 22.46 58.55 21.86 53.96 21.19 39.98 18.07 18.58 10.21 14.25 8.67 7.2 5.8 1.59 3.02m-366.8-482.35 5.12 2.75 4.85 4.08 5.14 6 4.9 7.97 4.76 10.16 3.95 11.2 2.9 11.01 2.4 11.1 1.87 11.56 1.1 8.85.85 11.6.06 12.48-.58 11.34-1.34 9.83-2.72 8m-81.84-127.72 5.72 2.66 5.45 5.13 5.14 6.42 5.1 9.5 4.93 12.87 3.54 13.53 2.47 13.5 1.43 12.7 1.14 12.05.52 11.56.2 14.14-.4 13.3-.04 11.3-.56 10.31-2.07 8.65m322.96-137.47 2.81-1.3 10.25-1.78 26.4-4.07 10.16-2.34 6.58-2.33 3.75-2.37 2.04-2.93m-89.1 12.8 3.88-2.72 9.32-3.01 24.55-6.03 10.31-2.89 6.94-2.6 4.38-2.48 2.25-2.18.54-2.28m-95.06 18.45 4.3-4.33 9.2-3.94 23.75-7.52 18.1-6.06 5.52-2.5 3.25-2.39 2.06-2m-151.07 12.84 4.38-5.76 8.05-5.1 10.92-5.53 10.44-4.54 19.49-7.76 13.93-6.37 8.4-4.4 2.83-1.52m-32.04 49.72 3.65-5.49 8.57-4.8 22.76-9.05 18.56-6.75 11.4-5.31 3.11-1.83 2-1.59-40.84-13.37-10.44-3.6-4.24-2.48-1.29-2.56-.5-4.57-.64-30.47-1.34-70.36-.56-18.74M567.7 251.92l7.21 1.41 7.27 3.89 6.68 6.35 4.75 8.37.96 11.1-2.03 13.19-4.03 15.33-3.03 5.44-8.29 13.44-14.13 18.7m595 313.82-.83-2.02-5.72-4.3-11.8-6.18-15.56-7.22-38.93-15.64-55.53-19.86-61.73-20.77-60.2-21.63-59.1-21.4-57.9-21.22-57.16-20.19-56.55-19.74-52.35-18.7-41.53-16.06-15.94-8.55-10.05-8.51-3.34-9.08.54-9.82 3.94-25.4 2.73-17.04 2.01-20.5-29.81-21.54-12.91-8.68-11.94-5.88-11.32-2.71-8.24.73M357.1 442.77l6.05 9.16 14.27 9.28 10.72 4.55 12.3 3.24 12.91 1.8 12.88.64 13.32-.96 15.1-2.61 15.3-3.52 18-4.2 23.02-4.18 46.21-25 39.12-19.53 44.13-18.17 44.97-16.6 33.55-11.87 35.78-11.52 24.06-20.56 24.8-16.02 51.2-28.82 38.39-20.6 35.34-19.03 22.64-13.26 16.57-10.52 20.33-14.39 15.5-11.05 8.55-5.95M380.35 471.04l-8.25-6.68-8.95-12.43-1.76-19.09 1.64-12.62 4.27-12.36 5.46-11.2 6.68-10.34 7.48-8.58m558.22 234.07-61.42-19.46-61.73-18.57-60.7-18.36-59.72-18.08-58.25-17.56-55.02-16.9-46.05-14.82-41.27-11.11-18.57-1.29-17.33.75-15.19 1.32-16.27 1.04-13.27-.31-12.13-1.58-12.05-2.9-11.13-4.55-10.09-6.09-11.8-11.4-5.46-16.12-.73-10.65m1.32-3.2 4.75-1.75 3.9-.57 4.48 1.43 4.55 2 4.04 3.85 3.98 4.37 2.57 5.13 2.55 5.23 1.22 5.48.87 5.27-.47 4.87-.75 4.7-1.83 3.78-1.25 2.48-1.85 1.19-1.86 1.08-2.83.53m-12.53-72.01 4.94-2.37 6.45-.54 7.4 1.73 7.36 4 6.7 5.91 5.74 7.04 4.78 8.44 3.43 8.58 2.26 8.8 1.13 8.27-.5 8.11-1.7 7.55-2.46 6.24-2.48 3.87-2.65 2.22-3.18 1.6M387.6 377.49l8-.8 9.35 2.21 9.3 4.8 8.93 7.9 7.4 9.51 5.66 10.12 4.3 11.08 2.55 10.43 1.2 10.28-.35 9.84-1.77 9.72-2.62 7.9-2.7 5.06-3.23 3.23-3.43 2.14m-19.53-121.56 7.53-.99 10.56 2.29 10.8 5.9 9.94 8.83 8.07 10.6 6.2 12.2 4.5 12.32 2.76 11.86 1.55 11.02.23 10.67-1.06 10.55-1.78 9.75-2.19 7-2.68 5.06-3.73 4.05m-103.85-32.5 5.64 3.97 15.39 4.06 12.18 1.3 13.48.37 13.31-.66 13.14-1.48 13.3-2.66 16.53-4.64 12.32-4.17 20.26-6.85 15.59-5.77 45.73-19.36 86.14-37.94 47.6-23 33.24-17.25 34.72-18.18 47.7-26.44 50.14-25.45 37.21-18.3 33.8-17.06 23.34-12.26 15.5-9.14 18.43-11.38 9.84-5.8m56.04-55.05-8.17 3.18-9.78 4.98-15.24 7.34-22.46 8.3-20.78 10.25-6.66 4.72-13.4 5.94-14.37 5.7-23.04 9.17-32.68 13.1-35.86 13.8-47.42 18.15-41.2 15.51-33.16 14.34-16 19.1-16.45 14.9-18.78 11.99-21.09 10.46-20.59 8.54-20.56 6.66-21 4.7-26.33 3.48-60.47 30.05-38.83 19-27.52 13.05-25.05 12.01-12.4 6.36-12.24 6.83-11.27 7.08-12.13 8.42-2.17 3.42m-1.35-2.68 3.52-.74 15.07-2.26 12.1-2.53 11.42-2.64 15.14-3.88 26.21-7.88 27.93-10.38 37-14.9 50.3-20.8 44.07-16.22 19.29-7.57 24.4-11.13 24.12-11.85 21.9-12.28 32.72-22.42 32.75-17.98 44.55-21.56 48.82-22.25 36.37-16.84 32.36-16.05 23.16-11.53 14.8-6.82 14.76-6.78m-472.83 297.5 1.42-5.93 2.8-8.06 7.2-12.92m-143.52 7.3-4.31-11.34 3.38-18.24 4.88-12.61 6.8-12.13 8.4-11.1 9.36-10.5 8.98-8.45 11.23-8.94 12.57-9.31 33.86-22.04 45.79-25.58 30.65-16.6 5.43-3.53 7.12-13.04 6.98-11.11 7.7-8.79 8.63-6.63 9.94-5.33 10.72-4.48 23.62-9.3 22.28-8.26 24.7-9.14 32.8-11.21 19.35-5.41m496.6 417.3-.21 2.42-1.3 3.58-3.93 5.26-6.93 7.18-9.5 8.2-8.67 5.3-9.45 3.22-11.2 2.25-12.22 1.73-18.95 2.49m.33 3.74-.03-2.15-.3-1.6-9.11-1.9-13.85-3.61-38.54-12.17-56.87-18.5-62.6-20.46-62.09-20.26-61-19.9-60.07-19.58-59.1-19.27-57.54-18.82-54.18-17.72-45.28-15.37-41.36-15.59-2.34-13.45.02-11.09-.08-11.7-.56-12.28-1.7-14.06-3.72-14.21-6.97-13.15-9.88-11.65-11.13-9.27-12-6.5-11.63-2.58-4.31.6m659.62 321.77.58-1.6 2.73-3.19 6.5-5.1 8.05-5.27 17.95-9.46 18.75-8.96 10.76-5.1 12.82-5.91 12.8-5.97 4.12-2.1 3.18-1.16m-137.04 42.8.67-2 2.9-3.94 6.87-7.23 7.3-6.6 8.38-6.35 8.5-5.55 8.78-4.76 11.24-4.97 14.23-5.3 13.16-4.32 16.94-5.1 6.78-2 4.84-.94m-168.34 42.35 1.1-3.15 3.35-4.59 7.48-8.09 8.02-7.1 9.25-7.14 9.22-6.08 10.47-5.68 11.87-4.5 29.45-10.1 19.86-5.72 7.48-2.04 5.82-.73M946.2 612.18l1.74-4.52 3.65-5.18 7.94-8.15 8.43-7.36 10.37-7.26 11.28-7.05 11.06-5.9 14-5.77 17.17-5.93 14.88-4.77 21-6.13 7.96-2 6.04-.67m-197.83 52.69-.17-1.83 1.63-4.24 4.15-5.89 8.6-8.7 9.66-8.18 12.7-9.1 11.01-6.05 12.36-5.73 14.8-6.48 17.14-5.84 16.97-5.34 14.89-4.37 8.36-2.25 8.8-2.14 6.65-.68M822.3 577.48l-.3-3.7 1.7-4.76 4.81-6.7 9.2-9.23 10.96-9.14 12.8-8.76 12.96-7.29 13.58-5.95 16.62-6.84 18.71-6.55 17.38-5.2 24.56-6.7 9.67-2.25 6.97-.48m-220.4 64.24-.22-2.75 2.04-5.68 5.1-7 9.88-9.9 12.44-10.12 13.12-9.05 13.72-7.65 16.04-7.26 17.7-6.49 19.34-6.16 18.82-5.56 25.94-7 10.19-2.2 5.37-.27m-229.22 69.19-.2-2.93 2.11-6.15 5.65-7.72 10.7-10.47 13.57-10.47 14.26-9.36 15.28-8.4L779.9 477l18.74-6.74 19.78-6.19 20.55-6 27.54-7.37 11.02-2.26 4.91-.2M643.49 523.1l-.17-3.33 2.32-6.72 6.15-8.4 11.3-10.88 13.96-10.99 15.35-9.87 16.57-8.67 19.57-8.44 19.08-6.92 22.17-6.8 19.95-5.99 29.17-7.48 11.79-2.54 5.93.02m-248.01 80.96-.32-4.17 2.45-6.93 6.86-9.03 11.93-11.24 15.16-11.6 15.45-9.78 18.4-9.4 19.57-8.44 21.8-7.61 23.15-7.22 20.64-6.05 16.94-4.52 13.7-3.06 12.36-2.37 7.1-.03m-251.18 87.53-.38-5.08 2.8-7.53 7.28-8.97 13.83-11.67 17.01-11.86 17.21-10.28 18.82-9.38 20.85-8.86 22.03-7.9 44.99-13.68 32.37-8.75 13.27-2.84 9.01-.53m-398.84 72.57.27-6.45 8.8-14.9 8.05-10.1 9.83-9.87 10.83-9.3 11.11-8.62 11.41-7.55 26.31-16.21 36.25-21 47.51-26.79 16.11-10.98 11.33-9.54 4.86-4.31 5.42-13.23 5.39-12.04 5.26-8.64 7.24-5.28 9.16-4.63 35.05-14.03 21.74-8.66 24.1-9.93 28.02-10.13 3.64-1.1 16.25-4.58 19.86-5.22 32.83-8.16 47.38-11.17 37.66-8.74 34.87-7.88 23.88-5.51 16.27-3.56 9.43-3.09 3.46-1.86 4.44-4.03 4.64-9.49 21.95-49.63 13.62-27.85 13.14-22.52 9.46-10.37 6.7-2.59h5.42l4.3 1.2 3.3 2.15 3 4.03 1.91 63.16.66 28.5.14 5.47 1.2 1.47 2.14 2.02M943.86 150.1l3.66 1.84 4.94 3.37 11.06 8.06 8.13 5.49 7.33.97 12.43 2.82 46.2 9.33 39.77 9.17 32.58 8.28 26.97 6.97 9 2.41 5.85 2.22 2.3 2.19M978.44 76.39l2.24 3.46 2.81 12.32 5.2 42.92 2.45 18.28 1.16 2.81.13 2.44 20.34 3.98 47.6 10.33 40.75 10.7 33.39 9.78 28.81 8.93 9.52 3.42 5.64 3.22 1.9 3.32m-171.3-192.2.43 1.56.73 20.13.18 72.4.4 21.36.58 9.01 1.23 3.97 2.25 1.78 5.9 1.81 11.47 2.7 46.66 11.35 40.3 11.4 32.54 10.35 28.3 9.74 9.12 3.96 5.9 3.62 1.15 2.07M1025.55 5.22l.47 2.69.4 20.93.73 75.37.09 22.26.5 9.82.56 4.29 1.83 2.4 4.52 2.16 11.54 3.33 44.13 12.4 37.67 11.82 30.46 10.57 26.86 9.95 9.5 4.15 2.92 1.97M955.28 118.4l-11.33-3.95-34.3-10.85-27.22-7.76-8.16.17-8 1.19-6.7 2.49-5.14 4.21-2.95 5.48-1.5 6.37-.38 5.65.06 4.03m-25.47-19.58 3.33.66 5.75 2.24 16.7 7 20.82 8.9 25.53 11.87 30.4 15.15 2.2 1.04M826.83 95.29l7.47 1.86 20.14 6.73 23.6 8.27 29.61 11.76 17.98 8.16 17.36 8.16 1.28.61m6.47-13.23-25.82-10.62-32.65-11.65-26-8.14-12.08-3.78-10.22-2.7-5.76 2.32-3.92 4.08-1.33 5.47.3 6.3 1.28 6.6m110.26 24.13-1.8.6-9.1 5.45-7.18 6-1.44 1.69m31.22-39.2-12.55.3-9.2.85-9.83 1.68-9.2 2.75-8.07 4.17-6.48 5.97-4.85 6.64-3.09 6.33-1.33 5m23.68-44.07-5.93-.18-8.7.46-8.68 1.28-7.85 2.58-6.38 4.23-4.38 5.78-2.87 6.72-1.6 6.22-.49 4.63m-762.9 59.63 28.17 6.8 43.92 12.6 49.4 14.18 50.08 14.7 51.1 14.97 51.4 15.17 52.22 15.3L485 304.38l7.16 2.07M6.12 220.79l3.7 2.67 6.89 4.2 9.48 4.97 12.73 6.05 36.1 17.16 41.26 19.78 42.57 20.31 43.25 20.74 43.87 20.94L290.84 359l45.18 21.62 29.84 14.05M74.78 194.71l10.58 2.2 12.6 3.17 17.85 5.02 42.6 13.05 48.12 15.08 49 15.34 49.9 15.61 50.62 15.75 51.21 16.1 52.2 16.25 13.82 4.46M38.21 199.68l3.55.36 14.59 2.61 14.09 3.48 16.72 5.11 41.37 13.79 46.6 15.91 48.04 16.37L271.74 274l49.33 16.9 50.04 17.03 50.6 17.25L444.4 333M17.18 205.5l7.82 1.01 13.03 2.57 13.58 3.62 15.56 5.24 39.43 14.83 44.36 16.93 45.43 17.53 46.36 17.9 47.08 17.99 47.43 18.23 48.1 18.6 29.49 11.36M6.61 212.66l18.41 5.1 11.65 3.97 14.4 5.6 37.59 15.83 42.44 18.07 43.9 18.58 44.05 19.17 44.84 19.26 45.9 19.55 46.4 19.76 31.59 13.68M332.4 396.9l.2-7.8 3.42-8.48 8.35-11.57 11.81-11.5 13.56-9.47 15.63-8.13 17.26-7.48 19.1-7.3 37.72-12.89v0l25.54-7.9 11.05-2.66m-208.9 72.16.36-7.03 3.34-7.85 7.94-10.6 11-10.6 12.99-9 14.5-7.45 16.19-6.84 17.66-6.58 36.14-11.9 24.82-7.19 10.95-2.33M242.59 350.4l.32-5.76 3.06-7.03 7.66-9.8 10.26-9.57 12.13-8.25 13.8-6.87 15.44-6.62 15.82-5.6 34.97-10.97 23.8-6.38 10.1-2.12M198.76 328.2l.33-5.24 3-6.3 7.2-9.03 9.75-8.65 11.5-7.65 12.2-6.2 14.45-5.99 14.55-5.14 33.68-9.82 23.02-5.8 9.32-1.8m-182.2 49.62.5-4.74 2.79-5.53 6.64-7.77 9.51-8.35 10.4-6.94 11-5.64 12.13-5.07 14.64-4.85 32.36-8.74 21.83-5.16 7.72-1.52m-171.91 43.18.44-4.67 2.67-4.78 6.3-7.16 8.52-7.23 10.1-6.55 9.76-4.98 11.3-4.57 12.86-4.19 31.41-7.71 20.75-4.52 7.2-1.33M72 263.09l.47-3.05 2.55-4.2 5.57-6.04 8.07-6.64 8.53-5.55 9.41-4.84 9.36-3.9 12.57-3.84 29.88-6.88 19.47-3.63 6.07-1.18m-45.75-12.1-4.24.7-8.29 1.37-9.86 1.8-14.07 2.8-14.58 3.33-11.26 3.13-8.73 3.57-8.26 4.28-7.84 5.11-6.82 5.78-5.33 5.57-2.33 3.8-.35 2.38m63.07-49.92-13.95 1.97-14.2 2.6-14.81 3.14-10.62 3.08-7.7 3.35-6.7 3.96-6.35 4.74-4.94 5.18-3.33 4.7-1.6 3.08-.29 2.31"/>
</svg>
