<?xml version="1.0" encoding="UTF-8" standalone="no"?>
<svg
   style="font-style:normal;font-weight:normal;font-size:12px;font-family:Dialog;color-interpolation:auto;fill:#000000;fill-opacity:1;stroke:#000000;stroke-width:1;stroke-linecap:square;stroke-linejoin:miter;stroke-miterlimit:10;stroke-dasharray:none;stroke-dashoffset:0;stroke-opacity:1;color-rendering:auto;image-rendering:auto;shape-rendering:auto;text-rendering:auto"
   version="1.1"
   id="svg401"
   sodipodi:docname="padding-mat3-1byte.svg"
   width="129"
   height="111.4766"
   inkscape:version="1.1 (c68e22c387, 2021-05-23)"
   xmlns:inkscape="http://www.inkscape.org/namespaces/inkscape"
   xmlns:sodipodi="http://sodipodi.sourceforge.net/DTD/sodipodi-0.dtd"
   xmlns="http://www.w3.org/2000/svg"
   xmlns:svg="http://www.w3.org/2000/svg">
  <sodipodi:namedview
     id="namedview62"
     pagecolor="#ffffff"
     bordercolor="#666666"
     borderopacity="1.0"
     inkscape:pageshadow="2"
     inkscape:pageopacity="0.0"
     inkscape:pagecheckerboard="0"
     showgrid="false"
     fit-margin-top="0"
     fit-margin-left="0"
     fit-margin-right="0"
     fit-margin-bottom="0"
     inkscape:zoom="3.91"
     inkscape:cx="98.59335"
     inkscape:cy="40.025575"
     inkscape:window-width="1920"
     inkscape:window-height="1137"
     inkscape:window-x="-8"
     inkscape:window-y="-2"
     inkscape:window-maximized="1"
     inkscape:current-layer="svg401" />
  <!--Generated by the Batik Graphics2D SVG Generator-->
  <defs
     id="genericDefs" />
  <g
     transform="translate(0.5,-7.0234)"
     id="g5">
    <path
       style="stroke:none"
       d="m 15.0166,10.3516 v 1.3125 q 0,1.1718 -0.6719,2.2421 -0.6718,1.0704 -1.9375,1.0704 -0.7187,0 -1.2265,-0.3204 -0.5078,-0.3203 -0.9532,-1.1796 -0.4453,-0.8594 -0.4453,-1.8125 v -1.3125 q 0,-1.1719 0.6719,-2.25 0.6719,-1.0782 1.9375,-1.0782 0.7188,0 1.2188,0.3204 0.5,0.3203 0.9531,1.1796 0.4531,0.8594 0.4531,1.8282 z m -1.2031,0 q 0,-0.9844 -0.5469,-1.7188 -0.3125,-0.4062 -0.875,-0.4062 -0.5469,0 -0.8906,0.4531 -0.5156,0.6719 -0.5156,1.6719 v 1.3125 q 0,0.9843 0.5468,1.7031 0.3125,0.4062 0.875,0.4062 0.5469,0 0.8907,-0.4375 0.5156,-0.6718 0.5156,-1.6718 z m 8.4043,0 v 1.3125 q 0,1.1718 -0.6719,2.2421 -0.6719,1.0704 -1.9375,1.0704 -0.7188,0 -1.2266,-0.3204 -0.5078,-0.3203 -0.9531,-1.1796 -0.4453,-0.8594 -0.4453,-1.8125 v -1.3125 q 0,-1.1719 0.6719,-2.25 0.6718,-1.0782 1.9375,-1.0782 0.7187,0 1.2187,0.3204 0.5,0.3203 0.9531,1.1796 0.4532,0.8594 0.4532,1.8282 z m -1.2032,0 q 0,-0.9844 -0.5468,-1.7188 -0.3125,-0.4062 -0.875,-0.4062 -0.5469,0 -0.8907,0.4531 -0.5156,0.6719 -0.5156,1.6719 v 1.3125 q 0,0.9843 0.5469,1.7031 0.3125,0.4062 0.875,0.4062 0.5469,0 0.8906,-0.4375 0.5156,-0.6718 0.5156,-1.6718 z"
       id="path3" />
  </g>
  <line
     y2="10.9766"
     style="fill:none"
     x1="16.5"
     x2="16.5"
     y1="14.9766"
     id="line7" />
  <path
     style="stroke:none"
     d="m 47.5088,3.3282 v 1.3125 q 0,1.1718 -0.6719,2.2421 -0.6719,1.0704 -1.9375,1.0704 -0.7187,0 -1.2265,-0.3204 Q 43.165,7.3125 42.7197,6.4532 42.2744,5.5938 42.2744,4.6407 V 3.3282 q 0,-1.1719 0.6719,-2.25 Q 43.6182,0 44.8838,0 q 0.7187,0 1.2187,0.3204 0.5,0.3203 0.9532,1.1796 0.4531,0.8594 0.4531,1.8282 z m -1.2031,0 q 0,-0.9844 -0.5469,-1.7188 -0.3125,-0.4062 -0.875,-0.4062 -0.5469,0 -0.8906,0.4531 -0.5157,0.6719 -0.5157,1.6719 v 1.3125 q 0,0.9843 0.5469,1.7031 0.3125,0.4062 0.875,0.4062 0.5469,0 0.8906,-0.4375 0.5157,-0.6718 0.5157,-1.6718 z M 52.71,0 v 6.5782 h 1.2031 q 0.4375,0 0.625,0.164 0.1875,0.1641 0.1875,0.4453 0,0.2657 -0.1875,0.4297 -0.1875,0.1641 -0.625,0.1641 h -3.625 q -0.4375,0 -0.6172,-0.1641 -0.1797,-0.164 -0.1797,-0.4453 0,-0.2656 0.1797,-0.4297 0.1797,-0.164 0.6172,-0.164 h 1.2187 V 1.5625 l -1.0781,0.2813 q -0.25,0.0781 -0.3906,0.0781 -0.2188,0 -0.3906,-0.1797 -0.1719,-0.1797 -0.1719,-0.4453 0,-0.25 0.125,-0.3828 0.125,-0.1328 0.5156,-0.2422 z"
     id="path9" />
  <line
     y2="10.9766"
     style="fill:none"
     x1="48.5"
     x2="48.5"
     y1="14.9766"
     id="line11" />
  <path
     style="stroke:none"
     d="m 79.5635,3.3282 v 1.3125 q 0,1.1718 -0.6719,2.2421 -0.6719,1.0704 -1.9375,1.0704 -0.7187,0 -1.2266,-0.3204 Q 75.2197,7.3125 74.7744,6.4532 74.3291,5.5938 74.3291,4.6407 V 3.3282 q 0,-1.1719 0.6719,-2.25 Q 75.6729,0 76.9385,0 q 0.7187,0 1.2187,0.3204 0.5,0.3203 0.9532,1.1796 0.4531,0.8594 0.4531,1.8282 z m -1.2031,0 q 0,-0.9844 -0.5469,-1.7188 -0.3125,-0.4062 -0.875,-0.4062 -0.5469,0 -0.8906,0.4531 -0.5157,0.6719 -0.5157,1.6719 v 1.3125 q 0,0.9843 0.5469,1.7031 0.3125,0.4062 0.875,0.4062 0.5469,0 0.8906,-0.4375 0.5157,-0.6718 0.5157,-1.6718 z m 4.6699,3.25 h 2.625 q 0.2187,-0.1719 0.4062,-0.1719 0.2813,0 0.4453,0.1797 0.1641,0.1797 0.1641,0.6172 V 7.7813 H 81.1865 V 6.5157 q 3.25,-2.6875 3.9219,-3.4532 0.3437,-0.3906 0.3437,-0.75 0,-0.4375 -0.3828,-0.7734 -0.3828,-0.3359 -1.0234,-0.3359 -0.6406,0 -1.0781,0.375 -0.2188,0.2031 -0.3594,0.5937 -0.0781,0.25 -0.2188,0.3516 -0.1406,0.1015 -0.3593,0.1015 -0.2344,0 -0.4141,-0.1718 -0.1797,-0.1719 -0.1797,-0.4063 0,-0.3594 0.3203,-0.8828 Q 82.0771,0.6407 82.7021,0.3204 83.3271,0 84.0615,0 q 1.1406,0 1.8672,0.6875 0.7266,0.6875 0.7266,1.6719 0,0.5 -0.211,0.9219 -0.2109,0.4219 -0.9922,1.1719 -0.625,0.5937 -2.4218,2.125 z"
     id="path13" />
  <line
     y2="10.9766"
     style="fill:none"
     x1="80.5"
     x2="80.5"
     y1="14.9766"
     id="line15" />
  <path
     style="stroke:none"
     d="m 111.4385,3.3282 v 1.3125 q 0,1.1718 -0.6719,2.2421 -0.6719,1.0704 -1.9375,1.0704 -0.7187,0 -1.2266,-0.3204 -0.5078,-0.3203 -0.9531,-1.1796 -0.4453,-0.8594 -0.4453,-1.8125 V 3.3282 q 0,-1.1719 0.6719,-2.25 Q 107.5479,0 108.8135,0 q 0.7187,0 1.2187,0.3204 0.5,0.3203 0.9532,1.1796 0.4531,0.8594 0.4531,1.8282 z m -1.2031,0 q 0,-0.9844 -0.5469,-1.7188 -0.3125,-0.4062 -0.875,-0.4062 -0.5469,0 -0.8906,0.4531 -0.5157,0.6719 -0.5157,1.6719 v 1.3125 q 0,0.9843 0.5469,1.7031 0.3125,0.4062 0.875,0.4062 0.5469,0 0.8906,-0.4375 0.5157,-0.6718 0.5157,-1.6718 z m 7.498,0.4375 q 0.5312,0.3593 0.7969,0.8359 0.2656,0.4766 0.2656,1.0703 0,0.6406 -0.3516,1.1875 -0.3515,0.5469 -1.0078,0.8203 -0.6562,0.2735 -1.7344,0.2735 -1.3906,0 -2.0937,-0.4375 -0.3906,-0.2344 -0.3906,-0.5782 0,-0.2656 0.1718,-0.4375 0.1719,-0.1718 0.4219,-0.1718 0.1563,0 0.3438,0.1093 0.2656,0.1719 0.4843,0.2344 0.3594,0.0781 0.9688,0.0781 1.0469,0 1.5156,-0.2734 0.4688,-0.2734 0.4688,-0.7578 0,-0.375 -0.2735,-0.7188 -0.2734,-0.3437 -0.7265,-0.5312 -0.2657,-0.1094 -0.8907,-0.1406 -0.2968,-0.0157 -0.4609,-0.1875 -0.1641,-0.1719 -0.1641,-0.4219 0,-0.25 0.1797,-0.4297 0.1797,-0.1797 0.4453,-0.1797 0.5938,0 0.6407,0 0.2343,-0.0156 0.4687,-0.1484 0.2344,-0.1328 0.375,-0.3594 0.1406,-0.2266 0.1406,-0.4609 0,-0.3907 -0.3359,-0.6641 -0.3359,-0.2734 -1.0078,-0.2734 -0.8594,0 -1.3281,0.5 -0.125,0.1406 -0.2188,0.1875 -0.1094,0.0625 -0.2656,0.0625 -0.25,0 -0.4219,-0.1719 -0.1719,-0.1719 -0.1719,-0.4375 0,-0.4063 0.5313,-0.7813 Q 114.8896,0 116.0771,0 q 1.1094,0 1.7813,0.6328 0.6719,0.6329 0.6719,1.5235 0,0.4687 -0.1953,0.8672 -0.1954,0.3984 -0.6016,0.7422 z"
     id="path17" />
  <line
     y2="10.9766"
     style="fill:none"
     x1="112.5"
     x2="112.5"
     y1="14.9766"
     id="line19" />
  <path
     style="stroke:none"
     d="m 15.5713,43.3282 v 1.3125 q 0,1.1718 -0.6719,2.2421 -0.6719,1.0704 -1.9375,1.0704 -0.7187,0 -1.2265,-0.3204 -0.5079,-0.3203 -0.9532,-1.1796 -0.4453,-0.8594 -0.4453,-1.8125 v -1.3125 q 0,-1.1719 0.6719,-2.25 Q 11.6807,40 12.9463,40 q 0.7187,0 1.2187,0.3204 0.5,0.3203 0.9532,1.1796 0.4531,0.8594 0.4531,1.8282 z m -1.2031,0 q 0,-0.9844 -0.5469,-1.7188 -0.3125,-0.4062 -0.875,-0.4062 -0.5469,0 -0.8906,0.4531 -0.5157,0.6719 -0.5157,1.6719 v 1.3125 q 0,0.9843 0.5469,1.7031 0.3125,0.4062 0.875,0.4062 0.5469,0 0.8906,-0.4375 0.5157,-0.6718 0.5157,-1.6718 z m 7.5449,-3.125 v 4.6875 q 0.3906,0 0.5703,0.1718 0.1797,0.1719 0.1797,0.4375 0,0.2657 -0.1875,0.4297 -0.1875,0.1641 -0.5625,0.1641 v 0.4844 q 0.3906,0 0.5703,0.1718 0.1797,0.1719 0.1797,0.4375 0,0.2657 -0.1875,0.4297 -0.1875,0.1641 -0.625,0.1641 h -1.6094 q -0.4219,0 -0.6094,-0.1641 -0.1875,-0.164 -0.1875,-0.4453 0,-0.2656 0.1875,-0.4297 0.1875,-0.164 0.6094,-0.164 H 20.71 v -0.4844 h -3.2657 v -1 L 20.335,40.2032 Z M 20.71,44.8907 v -2.9532 l -1.7344,2.9532 z"
     id="path21" />
  <line
     y2="50.976601"
     style="fill:none"
     x1="16.5"
     x2="16.5"
     y1="54.976601"
     id="line23" />
  <path
     style="stroke:none"
     d="m 47.4385,43.3282 v 1.3125 q 0,1.1718 -0.6719,2.2421 -0.6719,1.0704 -1.9375,1.0704 -0.7187,0 -1.2266,-0.3204 -0.5078,-0.3203 -0.9531,-1.1796 -0.4453,-0.8594 -0.4453,-1.8125 v -1.3125 q 0,-1.1719 0.6719,-2.25 Q 43.5479,40 44.8135,40 q 0.7187,0 1.2187,0.3204 0.5,0.3203 0.9532,1.1796 0.4531,0.8594 0.4531,1.8282 z m -1.2031,0 q 0,-0.9844 -0.5469,-1.7188 -0.3125,-0.4062 -0.875,-0.4062 -0.5469,0 -0.8906,0.4531 -0.5157,0.6719 -0.5157,1.6719 v 1.3125 q 0,0.9843 0.5469,1.7031 0.3125,0.4062 0.875,0.4062 0.5469,0 0.8906,-0.4375 0.5157,-0.6718 0.5157,-1.6718 z m 4.7792,-1.9219 v 1.4219 q 0.6719,-0.2032 1.2032,-0.2032 1.1093,0 1.8437,0.75 0.7344,0.75 0.7344,1.9532 0,1.2343 -0.7422,1.9296 -0.7422,0.6954 -2.2734,0.6954 -1.3438,0 -2.125,-0.5 -0.4532,-0.2969 -0.4532,-0.6875 0,-0.2344 0.1719,-0.4141 0.1719,-0.1797 0.4219,-0.1797 0.2031,0 0.4453,0.1953 0.2422,0.1953 0.5078,0.2735 0.375,0.1093 0.9531,0.1093 1.0938,0 1.4922,-0.3437 0.3985,-0.3438 0.3985,-1.0625 0,-0.7188 -0.3828,-1.125 -0.3829,-0.4063 -0.9922,-0.4063 -0.6407,0 -1.4688,0.4219 -0.1875,0.1094 -0.3281,0.1094 -0.2656,0 -0.4375,-0.1875 -0.1719,-0.1875 -0.1719,-0.4844 v -3.4687 h 3.6719 q 0.4375,0 0.6172,0.164 0.1797,0.1641 0.1797,0.4297 0,0.2656 -0.1797,0.4375 -0.1797,0.1719 -0.6172,0.1719 z"
     id="path25" />
  <line
     y2="50.976601"
     style="fill:none"
     x1="48.5"
     x2="48.5"
     y1="54.976601"
     id="line27" />
  <path
     style="stroke:none"
     d="m 79.376,43.3282 v 1.3125 q 0,1.1718 -0.6719,2.2421 -0.6719,1.0704 -1.9375,1.0704 -0.7187,0 -1.2266,-0.3204 -0.5078,-0.3203 -0.9531,-1.1796 -0.4453,-0.8594 -0.4453,-1.8125 v -1.3125 q 0,-1.1719 0.6719,-2.25 Q 75.4854,40 76.751,40 q 0.7187,0 1.2187,0.3204 0.5,0.3203 0.9532,1.1796 0.4531,0.8594 0.4531,1.8282 z m -1.2031,0 q 0,-0.9844 -0.5469,-1.7188 -0.3125,-0.4062 -0.875,-0.4062 -0.5469,0 -0.8906,0.4531 -0.5157,0.6719 -0.5157,1.6719 v 1.3125 q 0,0.9843 0.5469,1.7031 0.3125,0.4062 0.875,0.4062 0.5469,0 0.8906,-0.4375 0.5157,-0.6718 0.5157,-1.6718 z m 4.6542,0.3437 q 0.4375,-0.3594 0.8282,-0.5234 0.3906,-0.1641 0.8437,-0.1641 0.9375,0 1.6485,0.75 0.7109,0.75 0.7109,1.875 0,1.0469 -0.6563,1.6953 -0.6562,0.6485 -1.7968,0.6485 -0.9375,0 -1.5469,-0.4375 Q 82.249,47.0782 81.9365,46.1641 81.624,45.25 81.624,44.125 q 0,-1.3437 0.6172,-2.2422 0.6172,-0.8984 1.4453,-1.3906 Q 84.5146,40 85.4521,40 q 0.7188,0 1.125,0.2969 0.2657,0.1875 0.2657,0.4844 0,0.2656 -0.1719,0.4453 -0.1719,0.1797 -0.4219,0.1797 -0.1406,0 -0.4062,-0.1406 -0.1563,-0.0782 -0.2969,-0.0782 -0.5781,0 -1.1953,0.3203 -0.6172,0.3204 -1.0703,0.9922 -0.3125,0.4688 -0.4532,1.1719 z m 0.1875,1.8594 q 0.1875,0.7031 0.5,0.9609 0.3125,0.2578 0.9063,0.2578 0.5937,0 0.9141,-0.3046 0.3203,-0.3047 0.3203,-0.8516 0,-0.6094 -0.3672,-1.0078 -0.3672,-0.3985 -0.8203,-0.3985 -0.3594,0 -0.7735,0.3516 -0.414,0.3516 -0.6797,0.9922 z"
     id="path29" />
  <line
     y2="50.976601"
     style="fill:none"
     x1="80.5"
     x2="80.5"
     y1="54.976601"
     id="line31" />
  <path
     style="stroke:none"
     d="m 111.5713,43.3282 v 1.3125 q 0,1.1718 -0.6719,2.2421 -0.6719,1.0704 -1.9375,1.0704 -0.7187,0 -1.2265,-0.3204 -0.5079,-0.3203 -0.9532,-1.1796 -0.4453,-0.8594 -0.4453,-1.8125 v -1.3125 q 0,-1.1719 0.6719,-2.25 Q 107.6807,40 108.9463,40 q 0.7187,0 1.2187,0.3204 0.5,0.3203 0.9532,1.1796 0.4531,0.8594 0.4531,1.8282 z m -1.2031,0 q 0,-0.9844 -0.5469,-1.7188 -0.3125,-0.4062 -0.875,-0.4062 -0.5469,0 -0.8906,0.4531 -0.5157,0.6719 -0.5157,1.6719 v 1.3125 q 0,0.9843 0.5469,1.7031 0.3125,0.4062 0.875,0.4062 0.5469,0 0.8906,-0.4375 0.5157,-0.6718 0.5157,-1.6718 z m 7.0293,-1.9219 h -2.75 q -0.0313,0.3437 -0.1875,0.5 -0.1563,0.1562 -0.4063,0.1562 -0.2812,0 -0.4453,-0.1797 -0.1641,-0.1796 -0.1641,-0.6171 v -1.0625 h 5.2188 v 1.2031 l -1.9531,5.7812 q -0.125,0.3594 -0.2735,0.4844 -0.1484,0.125 -0.3515,0.125 -0.25,0 -0.4297,-0.1797 -0.1797,-0.1797 -0.1797,-0.3984 0,-0.1406 0.0937,-0.4219 z"
     id="path33" />
  <line
     y2="50.976601"
     style="fill:none"
     x1="112.5"
     x2="112.5"
     y1="54.976601"
     id="line35" />
  <path
     style="stroke:none"
     d="m 15.5088,83.3282 v 1.3125 q 0,1.1718 -0.6719,2.2421 -0.6719,1.0704 -1.9375,1.0704 -0.7187,0 -1.2265,-0.3204 -0.5079,-0.3203 -0.9532,-1.1796 -0.4453,-0.8594 -0.4453,-1.8125 v -1.3125 q 0,-1.1719 0.6719,-2.25 Q 11.6182,80 12.8838,80 q 0.7187,0 1.2187,0.3204 0.5,0.3203 0.9532,1.1796 0.4531,0.8594 0.4531,1.8282 z m -1.2031,0 q 0,-0.9844 -0.5469,-1.7188 -0.3125,-0.4062 -0.875,-0.4062 -0.5469,0 -0.8906,0.4531 -0.5157,0.6719 -0.5157,1.6719 v 1.3125 q 0,0.9843 0.5469,1.7031 0.3125,0.4062 0.875,0.4062 0.5469,0 0.8906,-0.4375 0.5157,-0.6718 0.5157,-1.6718 z m 7.4824,0.6093 q 0.4687,0.3594 0.7031,0.8125 0.2344,0.4532 0.2344,1 0,0.6094 -0.2969,1.1172 -0.2969,0.5078 -0.9297,0.7969 -0.6328,0.2891 -1.414,0.2891 -0.7657,0 -1.3907,-0.2891 -0.625,-0.2891 -0.9218,-0.8047 -0.2969,-0.5156 -0.2969,-1.1094 0,-0.5468 0.2344,-1 0.2343,-0.4531 0.7031,-0.8125 -0.4063,-0.375 -0.6094,-0.7968 -0.2031,-0.4219 -0.2031,-0.8907 0,-0.9218 0.7031,-1.5859 Q 19.0068,80 20.1006,80 q 1.1094,0 1.8125,0.6641 0.7031,0.6641 0.7031,1.5859 0,0.4844 -0.2031,0.9063 -0.2031,0.4219 -0.625,0.7812 z m -0.4063,-1.6562 q 0,-0.4531 -0.3515,-0.7656 -0.3516,-0.3125 -0.9453,-0.3125 -0.5938,0 -0.9454,0.3125 -0.3515,0.3125 -0.3515,0.7656 0,0.4531 0.3515,0.7656 0.3516,0.3125 0.9454,0.3125 0.5937,0 0.9453,-0.3125 0.3515,-0.3125 0.3515,-0.7656 z m 0.1407,3.5312 q 0,-0.4687 -0.4063,-0.8593 -0.4062,-0.3907 -1.0156,-0.3907 -0.6094,0 -1.0156,0.3907 -0.4063,0.3906 -0.4063,0.875 0,0.375 0.3516,0.6484 0.3515,0.2734 1.0703,0.2734 0.7187,0 1.0703,-0.2734 0.3516,-0.2734 0.3516,-0.6641 z"
     id="path37" />
  <line
     y2="90.976601"
     style="fill:none"
     x1="16.5"
     x2="16.5"
     y1="94.976601"
     id="line39" />
  <path
     style="stroke:none"
     d="m 47.376,83.3282 v 1.3125 q 0,1.1718 -0.6719,2.2421 -0.6719,1.0704 -1.9375,1.0704 -0.7187,0 -1.2266,-0.3204 -0.5078,-0.3203 -0.9531,-1.1796 -0.4453,-0.8594 -0.4453,-1.8125 v -1.3125 q 0,-1.1719 0.6719,-2.25 Q 43.4854,80 44.751,80 q 0.7187,0 1.2187,0.3204 0.5,0.3203 0.9532,1.1796 0.4531,0.8594 0.4531,1.8282 z m -1.2031,0 q 0,-0.9844 -0.5469,-1.7188 -0.3125,-0.4062 -0.875,-0.4062 -0.5469,0 -0.8906,0.4531 -0.5157,0.6719 -0.5157,1.6719 v 1.3125 q 0,0.9843 0.5469,1.7031 0.3125,0.4062 0.875,0.4062 0.5469,0 0.8906,-0.4375 0.5157,-0.6718 0.5157,-1.6718 z m 7.4824,1.2968 q -0.4532,0.3907 -0.8282,0.5547 -0.375,0.1641 -0.7968,0.1641 -0.9688,0 -1.6875,-0.7734 -0.7188,-0.7735 -0.7188,-1.9297 0,-0.8907 0.5,-1.625 Q 50.7959,80 52.0303,80 q 0.8906,0 1.5547,0.5313 0.664,0.5312 0.9687,1.5312 0.3047,1 0.3047,2.0782 0,1.8437 -1.4219,2.9531 -1.0937,0.8594 -2.4062,0.8594 -0.7344,0 -1.125,-0.2969 -0.2813,-0.1875 -0.2813,-0.5 0,-0.2656 0.1797,-0.4375 0.1797,-0.1719 0.4297,-0.1719 0.1406,0 0.3125,0.0938 0.2344,0.1093 0.4844,0.1093 0.9062,0 1.6718,-0.6172 0.7657,-0.6171 0.9532,-1.5078 z m -0.1719,-1.8906 q -0.2031,-0.8281 -0.5781,-1.1797 -0.375,-0.3515 -0.8594,-0.3515 -0.5156,0 -0.8672,0.3906 -0.3516,0.3906 -0.3516,1.0312 0,0.6719 0.3594,1.0938 0.3594,0.4219 0.8125,0.4219 0.8125,0 1.4844,-1.4063 z"
     id="path41" />
  <line
     y2="90.976601"
     style="fill:none"
     x1="48.5"
     x2="48.5"
     y1="94.976601"
     id="line43" />
  <path
     style="stroke:none"
     d="m 78.8838,83.3282 v 1.3125 q 0,1.1718 -0.6719,2.2421 -0.6719,1.0704 -1.9375,1.0704 -0.7187,0 -1.2265,-0.3204 -0.5079,-0.3203 -0.9532,-1.1796 -0.4453,-0.8594 -0.4453,-1.8125 v -1.3125 q 0,-1.1719 0.6719,-2.25 Q 74.9932,80 76.2588,80 q 0.7187,0 1.2187,0.3204 0.5,0.3203 0.9532,1.1796 0.4531,0.8594 0.4531,1.8282 z m -1.2031,0 q 0,-0.9844 -0.5469,-1.7188 -0.3125,-0.4062 -0.875,-0.4062 -0.5469,0 -0.8906,0.4531 -0.5157,0.6719 -0.5157,1.6719 v 1.3125 q 0,0.9843 0.5469,1.7031 0.3125,0.4062 0.875,0.4062 0.5469,0 0.8906,-0.4375 0.5157,-0.6718 0.5157,-1.6718 z m 7.248,2.5156 h -2.9062 l -0.2969,0.7344 h 0.2969 q 0.4218,0 0.6093,0.164 0.1875,0.1641 0.1875,0.4453 0,0.2657 -0.1875,0.4297 -0.1875,0.1641 -0.6093,0.1641 h -1.625 q -0.4375,0 -0.6172,-0.1641 -0.1797,-0.164 -0.1797,-0.4453 0,-0.2656 0.1953,-0.4375 0.1953,-0.1719 0.6328,-0.1562 l 1.8906,-4.7032 h -0.7812 q -0.4375,0 -0.625,-0.164 -0.1875,-0.1641 -0.1875,-0.4297 0,-0.2813 0.1875,-0.4453 0.1875,-0.1641 0.625,-0.1641 h 2.5937 l 2.3907,5.9063 q 0.4218,0 0.5468,0.0937 0.2813,0.1875 0.2813,0.5156 0,0.2657 -0.1875,0.4297 -0.1875,0.1641 -0.6094,0.1641 h -1.625 q -0.4375,0 -0.6172,-0.1641 -0.1797,-0.164 -0.1797,-0.4453 0,-0.2656 0.1797,-0.4297 0.1797,-0.164 0.6172,-0.164 h 0.2969 z m -0.4844,-1.2031 -0.9687,-2.375 -0.9844,2.375 z"
     id="path45" />
  <line
     y2="90.976601"
     style="fill:none"
     x1="80.5"
     x2="80.5"
     y1="94.976601"
     id="line47" />
  <path
     style="stroke:none"
     d="m 111.1807,83.3282 v 1.3125 q 0,1.1718 -0.6719,2.2421 -0.6719,1.0704 -1.9375,1.0704 -0.7188,0 -1.2266,-0.3204 -0.5078,-0.3203 -0.9531,-1.1796 -0.4453,-0.8594 -0.4453,-1.8125 v -1.3125 q 0,-1.1719 0.6719,-2.25 Q 107.29,80 108.5557,80 q 0.7187,0 1.2187,0.3204 0.5,0.3203 0.9531,1.1796 0.4532,0.8594 0.4532,1.8282 z m -1.2032,0 q 0,-0.9844 -0.5468,-1.7188 -0.3125,-0.4062 -0.875,-0.4062 -0.5469,0 -0.8907,0.4531 -0.5156,0.6719 -0.5156,1.6719 v 1.3125 q 0,0.9843 0.5469,1.7031 0.3125,0.4062 0.875,0.4062 0.5469,0 0.8906,-0.4375 0.5156,-0.6718 0.5156,-1.6718 z m 3.3418,3.25 V 81.875 h -0.1875 q -0.4375,0 -0.625,-0.164 -0.1875,-0.1641 -0.1875,-0.4297 0,-0.2813 0.1875,-0.4453 0.1875,-0.1641 0.625,-0.1641 h 3 q 1.0782,0 1.7344,0.6016 0.6563,0.6015 0.6563,1.4297 0,0.3906 -0.1485,0.7343 -0.1484,0.3438 -0.4609,0.6407 0.5625,0.3437 0.8515,0.7968 0.2891,0.4532 0.2891,1.0313 0,0.4531 -0.2031,0.8437 -0.1563,0.2969 -0.375,0.4688 -0.3125,0.25 -0.7422,0.4062 -0.4297,0.1563 -1.0859,0.1563 h -3.5157 q -0.4375,0 -0.625,-0.1641 -0.1875,-0.164 -0.1875,-0.4453 0,-0.2656 0.1875,-0.4297 0.1875,-0.164 0.625,-0.164 z m 1.1875,-2.9532 h 1.3282 q 0.7031,0 1.1718,-0.3593 0.3125,-0.2344 0.3125,-0.5938 0,-0.3125 -0.2968,-0.5547 -0.2969,-0.2422 -0.9375,-0.2422 h -1.5782 z m 0,2.9532 h 2.0782 q 0.7343,0 1.0312,-0.2188 0.2344,-0.1562 0.2344,-0.4687 0,-0.3594 -0.4531,-0.711 -0.4532,-0.3515 -1.2969,-0.3515 h -1.5938 z"
     id="path49" />
  <line
     y2="90.976601"
     style="fill:none"
     x1="112.5"
     x2="112.5"
     y1="94.976601"
     id="line51" />
  <rect
     x="0.5"
     width="32"
     height="16"
     y="14.9766"
     style="fill:#f0f0f0;fill-opacity:1;stroke:none"
     id="rect61" />
  <path
     d="m 9.4443,21.711 v 0.2812 q 0.25,-0.2344 0.4453,-0.3281 0.1954,-0.0937 0.461,-0.0937 0.2187,0 0.4297,0.1093 0.2109,0.1094 0.414,0.3281 0.2657,-0.2187 0.5313,-0.3203 0.2656,-0.1015 0.5469,-0.1015 0.5468,0 0.9062,0.2968 0.4531,0.3907 0.4531,1.0157 v 2.25 q 0.3125,0 0.461,0.1406 0.1484,0.1406 0.1484,0.3594 0,0.2187 -0.1484,0.3593 -0.1485,0.1407 -0.5078,0.1407 h -0.9532 v -3.1563 q 0,-0.2344 -0.0859,-0.3203 -0.0859,-0.0859 -0.2578,-0.0859 -0.1563,0 -0.2969,0.0781 -0.1875,0.125 -0.4375,0.4687 v 2.0157 q 0.3125,0 0.4609,0.1406 0.1485,0.1406 0.1485,0.3594 0,0.2187 -0.1485,0.3593 -0.1484,0.1407 -0.5234,0.1407 h -0.9531 v -3.1563 q 0,-0.2344 -0.0781,-0.3203 -0.0782,-0.0859 -0.25,-0.0859 -0.1875,0 -0.3594,0.1094 -0.1719,0.1093 -0.4063,0.4374 v 2.0157 q 0.3125,0 0.4688,0.1406 0.1562,0.1406 0.1562,0.3594 0,0.2187 -0.1562,0.3593 -0.1563,0.1407 -0.5156,0.1407 H 8.4912 q -0.3594,0 -0.5156,-0.1407 -0.1563,-0.1406 -0.1563,-0.3593 0,-0.2188 0.1563,-0.3594 0.1562,-0.1406 0.4687,-0.1406 V 22.711 q -0.3125,0 -0.4687,-0.1406 -0.1563,-0.1407 -0.1563,-0.3594 0,-0.2188 0.1563,-0.3594 0.1562,-0.1406 0.5156,-0.1406 z m 9.7354,0.7187 v 1.0938 q 0,0.9843 -0.5625,1.875 -0.5625,0.8906 -1.6094,0.8906 -0.6094,0 -1.0312,-0.2656 -0.4219,-0.2657 -0.7891,-0.9766 -0.3672,-0.7109 -0.3672,-1.5234 v -1.0938 q 0,-0.9687 0.5547,-1.8672 0.5547,-0.8984 1.6172,-0.8984 0.5937,0 1.0078,0.2656 0.4141,0.2657 0.7969,0.9844 0.3828,0.7187 0.3828,1.5156 z m -1,0 q 0,-0.8125 -0.4688,-1.4219 -0.25,-0.3437 -0.7187,-0.3437 -0.4531,0 -0.75,0.375 -0.4219,0.5625 -0.4219,1.3906 v 1.0938 q 0,0.8281 0.4531,1.4375 0.25,0.3281 0.7344,0.3281 0.4375,0 0.7344,-0.3594 0.4375,-0.5625 0.4375,-1.4062 z m 7.001,0 v 1.0938 q 0,0.9843 -0.5625,1.875 -0.5625,0.8906 -1.6094,0.8906 -0.6094,0 -1.0313,-0.2656 -0.4218,-0.2657 -0.789,-0.9766 -0.3672,-0.7109 -0.3672,-1.5234 v -1.0938 q 0,-0.9687 0.5547,-1.8672 0.5547,-0.8984 1.6172,-0.8984 0.5937,0 1.0078,0.2656 0.414,0.2657 0.7969,0.9844 0.3828,0.7187 0.3828,1.5156 z m -1,0 q 0,-0.8125 -0.4688,-1.4219 -0.25,-0.3437 -0.7187,-0.3437 -0.4532,0 -0.75,0.375 -0.4219,0.5625 -0.4219,1.3906 v 1.0938 q 0,0.8281 0.4531,1.4375 0.25,0.3281 0.7344,0.3281 0.4375,0 0.7344,-0.3594 0.4375,-0.5625 0.4375,-1.4062 z"
     style="fill:#606060;stroke:none"
     id="path63" />
  <rect
     x="0.5"
     y="14.9766"
     width="32"
     style="fill:none;stroke:#606060"
     height="16"
     id="rect65" />
  <rect
     x="32.5"
     width="32"
     height="16"
     y="14.9766"
     style="fill:#f0f0f0;fill-opacity:1;stroke:none"
     id="rect67" />
  <path
     d="m 41.4443,21.711 v 0.2812 q 0.25,-0.2344 0.4453,-0.3281 0.1954,-0.0937 0.461,-0.0937 0.2187,0 0.4297,0.1093 0.2109,0.1094 0.414,0.3281 0.2657,-0.2187 0.5313,-0.3203 0.2656,-0.1015 0.5469,-0.1015 0.5468,0 0.9062,0.2968 0.4531,0.3907 0.4531,1.0157 v 2.25 q 0.3125,0 0.461,0.1406 0.1484,0.1406 0.1484,0.3594 0,0.2187 -0.1484,0.3593 -0.1485,0.1407 -0.5078,0.1407 h -0.9532 v -3.1563 q 0,-0.2344 -0.0859,-0.3203 -0.0859,-0.0859 -0.2578,-0.0859 -0.1563,0 -0.2969,0.0781 -0.1875,0.125 -0.4375,0.4687 v 2.0157 q 0.3125,0 0.4609,0.1406 0.1485,0.1406 0.1485,0.3594 0,0.2187 -0.1485,0.3593 -0.1484,0.1407 -0.5234,0.1407 h -0.9531 v -3.1563 q 0,-0.2344 -0.0781,-0.3203 -0.0782,-0.0859 -0.25,-0.0859 -0.1875,0 -0.3594,0.1094 -0.1719,0.1093 -0.4063,0.4374 v 2.0157 q 0.3125,0 0.4688,0.1406 0.1562,0.1406 0.1562,0.3594 0,0.2187 -0.1562,0.3593 -0.1563,0.1407 -0.5156,0.1407 h -0.9063 q -0.3594,0 -0.5156,-0.1407 -0.1563,-0.1406 -0.1563,-0.3593 0,-0.2188 0.1563,-0.3594 0.1562,-0.1406 0.4687,-0.1406 V 22.711 q -0.3125,0 -0.4687,-0.1406 -0.1563,-0.1407 -0.1563,-0.3594 0,-0.2188 0.1563,-0.3594 0.1562,-0.1406 0.5156,-0.1406 z m 8.0635,-2.0469 v 5.4844 h 1 q 0.375,0 0.5234,0.1406 0.1485,0.1406 0.1485,0.3594 0,0.2187 -0.1485,0.3593 -0.1484,0.1407 -0.5234,0.1407 h -3.0156 q -0.3594,0 -0.5156,-0.1407 -0.1563,-0.1406 -0.1563,-0.3593 0,-0.2188 0.1563,-0.3594 0.1562,-0.1406 0.5156,-0.1406 h 1.0156 v -4.1719 l -0.9062,0.2344 q -0.2032,0.0468 -0.3125,0.0468 -0.1875,0 -0.3282,-0.1484 -0.1406,-0.1484 -0.1406,-0.3672 0,-0.2031 0.1016,-0.3125 0.1015,-0.1093 0.4297,-0.2031 z m 7.6729,2.7656 v 1.0938 q 0,0.9843 -0.5625,1.875 -0.5625,0.8906 -1.6094,0.8906 -0.6094,0 -1.0313,-0.2656 -0.4218,-0.2657 -0.789,-0.9766 -0.3672,-0.7109 -0.3672,-1.5234 v -1.0938 q 0,-0.9687 0.5547,-1.8672 0.5547,-0.8984 1.6172,-0.8984 0.5937,0 1.0078,0.2656 0.414,0.2657 0.7969,0.9844 0.3828,0.7187 0.3828,1.5156 z m -1,0 q 0,-0.8125 -0.4688,-1.4219 -0.25,-0.3437 -0.7187,-0.3437 -0.4532,0 -0.75,0.375 -0.4219,0.5625 -0.4219,1.3906 v 1.0938 q 0,0.8281 0.4531,1.4375 0.25,0.3281 0.7344,0.3281 0.4375,0 0.7344,-0.3594 0.4375,-0.5625 0.4375,-1.4062 z"
     style="fill:#606060;stroke:none"
     id="path69" />
  <rect
     x="32.5"
     y="14.9766"
     width="32"
     style="fill:none;stroke:#606060"
     height="16"
     id="rect71" />
  <rect
     x="64.5"
     width="32"
     height="16"
     y="14.9766"
     style="fill:#f0f0f0;fill-opacity:1;stroke:none"
     id="rect73" />
  <path
     d="m 73.4443,21.711 v 0.2812 q 0.25,-0.2344 0.4453,-0.3281 0.1954,-0.0937 0.461,-0.0937 0.2187,0 0.4297,0.1093 0.2109,0.1094 0.414,0.3281 0.2657,-0.2187 0.5313,-0.3203 0.2656,-0.1015 0.5469,-0.1015 0.5468,0 0.9062,0.2968 0.4531,0.3907 0.4531,1.0157 v 2.25 q 0.3125,0 0.461,0.1406 0.1484,0.1406 0.1484,0.3594 0,0.2187 -0.1484,0.3593 -0.1485,0.1407 -0.5078,0.1407 h -0.9532 v -3.1563 q 0,-0.2344 -0.0859,-0.3203 -0.0859,-0.0859 -0.2578,-0.0859 -0.1563,0 -0.2969,0.0781 -0.1875,0.125 -0.4375,0.4687 v 2.0157 q 0.3125,0 0.4609,0.1406 0.1485,0.1406 0.1485,0.3594 0,0.2187 -0.1485,0.3593 -0.1484,0.1407 -0.5234,0.1407 h -0.9531 v -3.1563 q 0,-0.2344 -0.0781,-0.3203 -0.0782,-0.0859 -0.25,-0.0859 -0.1875,0 -0.3594,0.1094 -0.1719,0.1093 -0.4063,0.4374 v 2.0157 q 0.3125,0 0.4688,0.1406 0.1562,0.1406 0.1562,0.3594 0,0.2187 -0.1562,0.3593 -0.1563,0.1407 -0.5156,0.1407 h -0.9063 q -0.3594,0 -0.5156,-0.1407 -0.1563,-0.1406 -0.1563,-0.3593 0,-0.2188 0.1563,-0.3594 0.1562,-0.1406 0.4687,-0.1406 V 22.711 q -0.3125,0 -0.4687,-0.1406 -0.1563,-0.1407 -0.1563,-0.3594 0,-0.2188 0.1563,-0.3594 0.1562,-0.1406 0.5156,-0.1406 z m 6.6104,3.4375 h 2.2031 q 0.1719,-0.1407 0.3281,-0.1407 0.2344,0 0.3672,0.1485 0.1328,0.1484 0.1328,0.5078 v 0.4844 H 78.5234 V 25.086 q 2.7188,-2.2344 3.2657,-2.875 0.2968,-0.3282 0.2968,-0.6094 0,-0.375 -0.3203,-0.6562 -0.3203,-0.2813 -0.8515,-0.2813 -0.5469,0 -0.9063,0.3125 -0.1719,0.1719 -0.2969,0.5 -0.0625,0.2031 -0.1797,0.2891 -0.1171,0.0859 -0.3046,0.0859 -0.2032,0 -0.3516,-0.1406 -0.1484,-0.1406 -0.1484,-0.3438 0,-0.2968 0.2734,-0.7344 0.2734,-0.4374 0.7891,-0.7031 0.5156,-0.2656 1.1406,-0.2656 0.9375,0 1.5469,0.5781 0.6093,0.5782 0.6093,1.3906 0,0.4063 -0.1797,0.7657 -0.1796,0.3593 -0.8359,0.9843 -0.5156,0.4844 -2.0156,1.7657 z m 9.126,-2.7188 v 1.0938 q 0,0.9843 -0.5625,1.875 -0.5625,0.8906 -1.6094,0.8906 -0.6094,0 -1.0313,-0.2656 -0.4218,-0.2657 -0.789,-0.9766 -0.3672,-0.7109 -0.3672,-1.5234 v -1.0938 q 0,-0.9687 0.5547,-1.8672 0.5547,-0.8984 1.6172,-0.8984 0.5937,0 1.0078,0.2656 0.414,0.2657 0.7969,0.9844 0.3828,0.7187 0.3828,1.5156 z m -1,0 q 0,-0.8125 -0.4688,-1.4219 -0.25,-0.3437 -0.7187,-0.3437 -0.4532,0 -0.75,0.375 -0.4219,0.5625 -0.4219,1.3906 v 1.0938 q 0,0.8281 0.4531,1.4375 0.25,0.3281 0.7344,0.3281 0.4375,0 0.7344,-0.3594 0.4375,-0.5625 0.4375,-1.4062 z"
     style="fill:#606060;stroke:none"
     id="path75" />
  <rect
     x="64.5"
     y="14.9766"
     width="32"
     style="fill:none;stroke:#606060"
     height="16"
     id="rect77" />
  <rect
     x="96.5"
     y="14.9766"
     width="32"
     style="fill:#c0c0c0;fill-opacity:1;stroke:none"
     height="16"
     id="rect79" />
  <rect
     x="96.5"
     y="14.9766"
     width="32"
     style="fill:none;stroke:#606060"
     height="16"
     id="rect81" />
  <rect
     x="0.5"
     width="32"
     height="16"
     y="54.976601"
     style="fill:#f0f0f0;fill-opacity:1;stroke:none"
     id="rect83" />
  <path
     d="m 9.4443,61.711 v 0.2812 q 0.25,-0.2344 0.4453,-0.3281 0.1954,-0.0937 0.461,-0.0937 0.2187,0 0.4297,0.1093 0.2109,0.1094 0.414,0.3281 0.2657,-0.2187 0.5313,-0.3203 0.2656,-0.1015 0.5469,-0.1015 0.5468,0 0.9062,0.2968 0.4531,0.3907 0.4531,1.0157 v 2.25 q 0.3125,0 0.461,0.1406 0.1484,0.1406 0.1484,0.3594 0,0.2187 -0.1484,0.3593 -0.1485,0.1407 -0.5078,0.1407 h -0.9532 v -3.1563 q 0,-0.2344 -0.0859,-0.3203 -0.0859,-0.0859 -0.2578,-0.0859 -0.1563,0 -0.2969,0.0781 -0.1875,0.125 -0.4375,0.4687 v 2.0157 q 0.3125,0 0.4609,0.1406 0.1485,0.1406 0.1485,0.3594 0,0.2187 -0.1485,0.3593 -0.1484,0.1407 -0.5234,0.1407 h -0.9531 v -3.1563 q 0,-0.2344 -0.0781,-0.3203 -0.0782,-0.0859 -0.25,-0.0859 -0.1875,0 -0.3594,0.1094 -0.1719,0.1093 -0.4063,0.4374 v 2.0157 q 0.3125,0 0.4688,0.1406 0.1562,0.1406 0.1562,0.3594 0,0.2187 -0.1562,0.3593 -0.1563,0.1407 -0.5156,0.1407 H 8.4912 q -0.3594,0 -0.5156,-0.1407 -0.1563,-0.1406 -0.1563,-0.3593 0,-0.2188 0.1563,-0.3594 0.1562,-0.1406 0.4687,-0.1406 V 62.711 q -0.3125,0 -0.4687,-0.1406 -0.1563,-0.1407 -0.1563,-0.3594 0,-0.2188 0.1563,-0.3594 0.1562,-0.1406 0.5156,-0.1406 z m 9.7354,0.7187 v 1.0938 q 0,0.9843 -0.5625,1.875 -0.5625,0.8906 -1.6094,0.8906 -0.6094,0 -1.0312,-0.2656 -0.4219,-0.2657 -0.7891,-0.9766 -0.3672,-0.7109 -0.3672,-1.5234 v -1.0938 q 0,-0.9687 0.5547,-1.8672 0.5547,-0.8984 1.6172,-0.8984 0.5937,0 1.0078,0.2656 0.4141,0.2657 0.7969,0.9844 0.3828,0.7187 0.3828,1.5156 z m -1,0 q 0,-0.8125 -0.4688,-1.4219 -0.25,-0.3437 -0.7187,-0.3437 -0.4531,0 -0.75,0.375 -0.4219,0.5625 -0.4219,1.3906 v 1.0938 q 0,0.8281 0.4531,1.4375 0.25,0.3281 0.7344,0.3281 0.4375,0 0.7344,-0.3594 0.4375,-0.5625 0.4375,-1.4062 z m 5.3291,-2.7656 v 5.4844 h 1 q 0.375,0 0.5234,0.1406 0.1485,0.1406 0.1485,0.3594 0,0.2187 -0.1485,0.3593 -0.1484,0.1407 -0.5234,0.1407 h -3.0156 q -0.3594,0 -0.5157,-0.1407 -0.1562,-0.1406 -0.1562,-0.3593 0,-0.2188 0.1562,-0.3594 0.1563,-0.1406 0.5157,-0.1406 h 1.0156 v -4.1719 l -0.9063,0.2344 q -0.2031,0.0468 -0.3125,0.0468 -0.1875,0 -0.3281,-0.1484 -0.1406,-0.1484 -0.1406,-0.3672 0,-0.2031 0.1016,-0.3125 0.1015,-0.1093 0.4296,-0.2031 z"
     style="fill:#606060;stroke:none"
     id="path85" />
  <rect
     x="0.5"
     y="54.976601"
     width="32"
     style="fill:none;stroke:#606060"
     height="16"
     id="rect87" />
  <rect
     x="32.5"
     width="32"
     height="16"
     y="54.976601"
     style="fill:#f0f0f0;fill-opacity:1;stroke:none"
     id="rect89" />
  <path
     d="m 41.4443,61.7813 v 0.2812 q 0.25,-0.2343 0.4453,-0.3281 0.1954,-0.0937 0.461,-0.0937 0.2187,0 0.4297,0.1093 0.2109,0.1094 0.414,0.3282 0.2657,-0.2188 0.5313,-0.3204 0.2656,-0.1015 0.5469,-0.1015 0.5468,0 0.9062,0.2969 0.4531,0.3906 0.4531,1.0156 v 2.25 q 0.3125,0 0.461,0.1406 0.1484,0.1406 0.1484,0.3594 0,0.2187 -0.1484,0.3594 -0.1485,0.1406 -0.5078,0.1406 h -0.9532 v -3.1563 q 0,-0.2343 -0.0859,-0.3203 -0.0859,-0.0859 -0.2578,-0.0859 -0.1563,0 -0.2969,0.0781 -0.1875,0.125 -0.4375,0.4688 v 2.0156 q 0.3125,0 0.4609,0.1406 0.1485,0.1406 0.1485,0.3594 0,0.2187 -0.1485,0.3594 -0.1484,0.1406 -0.5234,0.1406 h -0.9531 v -3.1563 q 0,-0.2343 -0.0781,-0.3203 -0.0782,-0.0859 -0.25,-0.0859 -0.1875,0 -0.3594,0.1094 -0.1719,0.1093 -0.4063,0.4375 v 2.0156 q 0.3125,0 0.4688,0.1406 0.1562,0.1406 0.1562,0.3594 0,0.2187 -0.1562,0.3594 -0.1563,0.1406 -0.5156,0.1406 h -0.9063 q -0.3594,0 -0.5156,-0.1406 -0.1563,-0.1407 -0.1563,-0.3594 0,-0.2188 0.1563,-0.3594 0.1562,-0.1406 0.4687,-0.1406 v -2.4375 q -0.3125,0 -0.4687,-0.1406 -0.1563,-0.1407 -0.1563,-0.3594 0,-0.2188 0.1563,-0.3594 0.1562,-0.1406 0.5156,-0.1406 z m 8.0635,-2.0469 v 5.4844 h 1 q 0.375,0 0.5234,0.1406 0.1485,0.1406 0.1485,0.3594 0,0.2187 -0.1485,0.3594 -0.1484,0.1406 -0.5234,0.1406 h -3.0156 q -0.3594,0 -0.5156,-0.1406 -0.1563,-0.1407 -0.1563,-0.3594 0,-0.2188 0.1563,-0.3594 0.1562,-0.1406 0.5156,-0.1406 h 1.0156 v -4.1719 l -0.9062,0.2344 q -0.2032,0.0469 -0.3125,0.0469 -0.1875,0 -0.3282,-0.1485 -0.1406,-0.1484 -0.1406,-0.3672 0,-0.2031 0.1016,-0.3125 0.1015,-0.1093 0.4297,-0.2031 z m 6.001,0 v 5.4844 h 1 q 0.375,0 0.5234,0.1406 0.1485,0.1406 0.1485,0.3594 0,0.2187 -0.1485,0.3594 -0.1484,0.1406 -0.5234,0.1406 h -3.0156 q -0.3594,0 -0.5157,-0.1406 -0.1562,-0.1407 -0.1562,-0.3594 0,-0.2188 0.1562,-0.3594 0.1563,-0.1406 0.5157,-0.1406 h 1.0156 v -4.1719 l -0.9063,0.2344 q -0.2031,0.0469 -0.3125,0.0469 -0.1875,0 -0.3281,-0.1485 -0.1406,-0.1484 -0.1406,-0.3672 0,-0.2031 0.1016,-0.3125 0.1015,-0.1093 0.4296,-0.2031 z"
     style="fill:#606060;stroke:none"
     id="path91" />
  <rect
     x="32.5"
     y="54.976601"
     width="32"
     style="fill:none;stroke:#606060"
     height="16"
     id="rect93" />
  <rect
     x="64.5"
     width="32"
     height="16"
     y="54.976601"
     style="fill:#f0f0f0;fill-opacity:1;stroke:none"
     id="rect95" />
  <path
     d="m 73.4443,61.7813 v 0.2812 q 0.25,-0.2343 0.4453,-0.3281 0.1954,-0.0937 0.461,-0.0937 0.2187,0 0.4297,0.1093 0.2109,0.1094 0.414,0.3282 0.2657,-0.2188 0.5313,-0.3204 0.2656,-0.1015 0.5469,-0.1015 0.5468,0 0.9062,0.2969 0.4531,0.3906 0.4531,1.0156 v 2.25 q 0.3125,0 0.461,0.1406 0.1484,0.1406 0.1484,0.3594 0,0.2187 -0.1484,0.3594 -0.1485,0.1406 -0.5078,0.1406 h -0.9532 v -3.1563 q 0,-0.2343 -0.0859,-0.3203 -0.0859,-0.0859 -0.2578,-0.0859 -0.1563,0 -0.2969,0.0781 -0.1875,0.125 -0.4375,0.4688 v 2.0156 q 0.3125,0 0.4609,0.1406 0.1485,0.1406 0.1485,0.3594 0,0.2187 -0.1485,0.3594 -0.1484,0.1406 -0.5234,0.1406 h -0.9531 v -3.1563 q 0,-0.2343 -0.0781,-0.3203 -0.0782,-0.0859 -0.25,-0.0859 -0.1875,0 -0.3594,0.1094 -0.1719,0.1093 -0.4063,0.4375 v 2.0156 q 0.3125,0 0.4688,0.1406 0.1562,0.1406 0.1562,0.3594 0,0.2187 -0.1562,0.3594 -0.1563,0.1406 -0.5156,0.1406 h -0.9063 q -0.3594,0 -0.5156,-0.1406 -0.1563,-0.1407 -0.1563,-0.3594 0,-0.2188 0.1563,-0.3594 0.1562,-0.1406 0.4687,-0.1406 v -2.4375 q -0.3125,0 -0.4687,-0.1406 -0.1563,-0.1407 -0.1563,-0.3594 0,-0.2188 0.1563,-0.3594 0.1562,-0.1406 0.5156,-0.1406 z m 6.6104,3.4375 h 2.2031 q 0.1719,-0.1406 0.3281,-0.1406 0.2344,0 0.3672,0.1484 0.1328,0.1484 0.1328,0.5078 v 0.4844 h -4.5625 v -1.0625 q 2.7188,-2.2344 3.2657,-2.875 0.2968,-0.3281 0.2968,-0.6094 0,-0.375 -0.3203,-0.6562 -0.3203,-0.2813 -0.8515,-0.2813 -0.5469,0 -0.9063,0.3125 -0.1719,0.1719 -0.2969,0.5 -0.0625,0.2031 -0.1797,0.2891 -0.1171,0.0859 -0.3046,0.0859 -0.2032,0 -0.3516,-0.1406 -0.1484,-0.1406 -0.1484,-0.3438 0,-0.2968 0.2734,-0.7343 0.2734,-0.4375 0.7891,-0.7032 0.5156,-0.2656 1.1406,-0.2656 0.9375,0 1.5469,0.5781 0.6093,0.5782 0.6093,1.3907 0,0.4062 -0.1797,0.7656 -0.1796,0.3594 -0.8359,0.9844 -0.5156,0.4843 -2.0156,1.7656 z m 7.4541,-5.4844 v 5.4844 h 1 q 0.375,0 0.5234,0.1406 0.1485,0.1406 0.1485,0.3594 0,0.2187 -0.1485,0.3594 -0.1484,0.1406 -0.5234,0.1406 h -3.0156 q -0.3594,0 -0.5157,-0.1406 -0.1562,-0.1407 -0.1562,-0.3594 0,-0.2188 0.1562,-0.3594 0.1563,-0.1406 0.5157,-0.1406 h 1.0156 v -4.1719 l -0.9063,0.2344 q -0.2031,0.0469 -0.3125,0.0469 -0.1875,0 -0.3281,-0.1485 -0.1406,-0.1484 -0.1406,-0.3672 0,-0.2031 0.1016,-0.3125 0.1015,-0.1093 0.4296,-0.2031 z"
     style="fill:#606060;stroke:none"
     id="path97" />
  <rect
     x="64.5"
     y="54.976601"
     width="32"
     style="fill:none;stroke:#606060"
     height="16"
     id="rect99" />
  <rect
     x="96.5"
     y="54.976601"
     width="32"
     style="fill:#c0c0c0;fill-opacity:1;stroke:none"
     height="16"
     id="rect101" />
  <rect
     x="96.5"
     y="54.976601"
     width="32"
     style="fill:none;stroke:#606060"
     height="16"
     id="rect103" />
  <rect
     x="0.5"
     width="32"
     height="16"
     y="94.976601"
     style="fill:#f0f0f0;fill-opacity:1;stroke:none"
     id="rect105" />
  <path
     d="m 9.4912,101.711 v 0.2812 q 0.25,-0.2344 0.4453,-0.3281 0.1953,-0.0937 0.461,-0.0937 0.2187,0 0.4296,0.1093 0.211,0.1094 0.4141,0.3281 0.2656,-0.2187 0.5313,-0.3203 0.2656,-0.1015 0.5468,-0.1015 0.5469,0 0.9063,0.2968 0.4531,0.3907 0.4531,1.0157 v 2.25 q 0.3125,0 0.4609,0.1406 0.1485,0.1406 0.1485,0.3594 0,0.2187 -0.1485,0.3593 -0.1484,0.1407 -0.5078,0.1407 h -0.9531 v -3.1563 q 0,-0.2344 -0.0859,-0.3203 -0.086,-0.0859 -0.2578,-0.0859 -0.1563,0 -0.2969,0.0781 -0.1875,0.125 -0.4375,0.4687 v 2.0157 q 0.3125,0 0.4609,0.1406 0.1485,0.1406 0.1485,0.3594 0,0.2187 -0.1485,0.3593 -0.1484,0.1407 -0.5234,0.1407 H 10.585 v -3.1563 q 0,-0.2344 -0.0782,-0.3203 -0.0781,-0.0859 -0.25,-0.0859 -0.1875,0 -0.3593,0.1094 -0.1719,0.1093 -0.4063,0.4374 v 2.0157 q 0.3125,0 0.4688,0.1406 0.1562,0.1406 0.1562,0.3594 0,0.2187 -0.1562,0.3593 -0.1563,0.1407 -0.5157,0.1407 H 8.5381 q -0.3594,0 -0.5156,-0.1407 -0.1563,-0.1406 -0.1563,-0.3593 0,-0.2188 0.1563,-0.3594 0.1562,-0.1406 0.4687,-0.1406 v -2.4375 q -0.3125,0 -0.4687,-0.1406 -0.1563,-0.1407 -0.1563,-0.3594 0,-0.2188 0.1563,-0.3594 0.1562,-0.1406 0.5156,-0.1406 z m 9.7354,0.7187 v 1.0938 q 0,0.9843 -0.5625,1.875 -0.5625,0.8906 -1.6094,0.8906 -0.6094,0 -1.0313,-0.2656 -0.4218,-0.2657 -0.789,-0.9766 -0.3672,-0.7109 -0.3672,-1.5234 v -1.0938 q 0,-0.9687 0.5547,-1.8672 0.5547,-0.8984 1.6172,-0.8984 0.5937,0 1.0078,0.2656 0.414,0.2657 0.7969,0.9844 0.3828,0.7187 0.3828,1.5156 z m -1,0 q 0,-0.8125 -0.4688,-1.4219 -0.25,-0.3437 -0.7187,-0.3437 -0.4532,0 -0.75,0.375 -0.4219,0.5625 -0.4219,1.3906 v 1.0938 q 0,0.8281 0.4531,1.4375 0.25,0.3281 0.7344,0.3281 0.4375,0 0.7344,-0.3594 0.4375,-0.5625 0.4375,-1.4062 z m 3.8759,2.7188 h 2.2032 q 0.1718,-0.1407 0.3281,-0.1407 0.2344,0 0.3672,0.1485 0.1328,0.1484 0.1328,0.5078 v 0.4844 h -4.5625 v -1.0625 q 2.7187,-2.2344 3.2656,-2.875 0.2969,-0.3282 0.2969,-0.6094 0,-0.375 -0.3203,-0.6562 -0.3203,-0.2813 -0.8516,-0.2813 -0.5469,0 -0.9062,0.3125 -0.1719,0.1719 -0.2969,0.5 -0.0625,0.2031 -0.1797,0.2891 -0.1172,0.0859 -0.3047,0.0859 -0.2031,0 -0.3515,-0.1406 -0.1485,-0.1406 -0.1485,-0.3438 0,-0.2968 0.2735,-0.7344 0.2734,-0.4374 0.789,-0.7031 0.5156,-0.2656 1.1406,-0.2656 0.9375,0 1.5469,0.5781 0.6094,0.5782 0.6094,1.3906 0,0.4063 -0.1797,0.7657 -0.1797,0.3593 -0.8359,0.9843 -0.5157,0.4844 -2.0157,1.7657 z"
     style="fill:#606060;stroke:none"
     id="path107" />
  <rect
     x="0.5"
     y="94.976601"
     width="32"
     style="fill:none;stroke:#606060"
     height="16"
     id="rect109" />
  <rect
     x="32.5"
     width="32"
     height="16"
     y="94.976601"
     style="fill:#f0f0f0;fill-opacity:1;stroke:none"
     id="rect111" />
  <path
     d="m 41.4912,101.7813 v 0.2812 q 0.25,-0.2343 0.4453,-0.3281 0.1953,-0.0937 0.461,-0.0937 0.2187,0 0.4296,0.1093 0.211,0.1094 0.4141,0.3282 0.2656,-0.2188 0.5313,-0.3204 0.2656,-0.1015 0.5468,-0.1015 0.5469,0 0.9063,0.2969 0.4531,0.3906 0.4531,1.0156 v 2.25 q 0.3125,0 0.4609,0.1406 0.1485,0.1406 0.1485,0.3594 0,0.2187 -0.1485,0.3594 -0.1484,0.1406 -0.5078,0.1406 h -0.9531 v -3.1563 q 0,-0.2343 -0.0859,-0.3203 -0.086,-0.0859 -0.2578,-0.0859 -0.1563,0 -0.2969,0.0781 -0.1875,0.125 -0.4375,0.4688 v 2.0156 q 0.3125,0 0.4609,0.1406 0.1485,0.1406 0.1485,0.3594 0,0.2187 -0.1485,0.3594 -0.1484,0.1406 -0.5234,0.1406 H 42.585 v -3.1563 q 0,-0.2343 -0.0782,-0.3203 -0.0781,-0.0859 -0.25,-0.0859 -0.1875,0 -0.3593,0.1094 -0.1719,0.1093 -0.4063,0.4375 v 2.0156 q 0.3125,0 0.4688,0.1406 0.1562,0.1406 0.1562,0.3594 0,0.2187 -0.1562,0.3594 -0.1563,0.1406 -0.5157,0.1406 h -0.9062 q -0.3594,0 -0.5156,-0.1406 -0.1563,-0.1407 -0.1563,-0.3594 0,-0.2188 0.1563,-0.3594 0.1562,-0.1406 0.4687,-0.1406 v -2.4375 q -0.3125,0 -0.4687,-0.1406 -0.1563,-0.1407 -0.1563,-0.3594 0,-0.2188 0.1563,-0.3594 0.1562,-0.1406 0.5156,-0.1406 z m 8.0635,-2.0469 v 5.4844 h 1 q 0.375,0 0.5234,0.1406 0.1485,0.1406 0.1485,0.3594 0,0.2187 -0.1485,0.3594 -0.1484,0.1406 -0.5234,0.1406 h -3.0156 q -0.3594,0 -0.5157,-0.1406 -0.1562,-0.1407 -0.1562,-0.3594 0,-0.2188 0.1562,-0.3594 0.1563,-0.1406 0.5157,-0.1406 h 1.0156 v -4.1719 l -0.9063,0.2344 q -0.2031,0.0469 -0.3125,0.0469 -0.1875,0 -0.3281,-0.1485 -0.1406,-0.1484 -0.1406,-0.3672 0,-0.2031 0.1016,-0.3125 0.1015,-0.1093 0.4296,-0.2031 z m 4.5478,5.4844 h 2.2032 q 0.1718,-0.1406 0.3281,-0.1406 0.2344,0 0.3672,0.1484 0.1328,0.1484 0.1328,0.5078 v 0.4844 h -4.5625 v -1.0625 q 2.7187,-2.2344 3.2656,-2.875 0.2969,-0.3281 0.2969,-0.6094 0,-0.375 -0.3203,-0.6562 -0.3203,-0.2813 -0.8516,-0.2813 -0.5469,0 -0.9062,0.3125 -0.1719,0.1719 -0.2969,0.5 -0.0625,0.2031 -0.1797,0.2891 -0.1172,0.0859 -0.3047,0.0859 -0.2031,0 -0.3515,-0.1406 -0.1485,-0.1406 -0.1485,-0.3438 0,-0.2968 0.2735,-0.7343 0.2734,-0.4375 0.789,-0.7032 0.5156,-0.2656 1.1406,-0.2656 0.9375,0 1.5469,0.5781 0.6094,0.5782 0.6094,1.3907 0,0.4062 -0.1797,0.7656 -0.1797,0.3594 -0.8359,0.9844 -0.5157,0.4843 -2.0157,1.7656 z"
     style="fill:#606060;stroke:none"
     id="path113" />
  <rect
     x="32.5"
     y="94.976601"
     width="32"
     style="fill:none;stroke:#606060"
     height="16"
     id="rect115" />
  <rect
     x="64.5"
     width="32"
     height="16"
     y="94.976601"
     style="fill:#f0f0f0;fill-opacity:1;stroke:none"
     id="rect117" />
  <path
     d="m 73.4912,101.7813 v 0.2812 q 0.25,-0.2343 0.4453,-0.3281 0.1953,-0.0937 0.461,-0.0937 0.2187,0 0.4296,0.1093 0.211,0.1094 0.4141,0.3282 0.2656,-0.2188 0.5313,-0.3204 0.2656,-0.1015 0.5468,-0.1015 0.5469,0 0.9063,0.2969 0.4531,0.3906 0.4531,1.0156 v 2.25 q 0.3125,0 0.4609,0.1406 0.1485,0.1406 0.1485,0.3594 0,0.2187 -0.1485,0.3594 -0.1484,0.1406 -0.5078,0.1406 h -0.9531 v -3.1563 q 0,-0.2343 -0.0859,-0.3203 -0.086,-0.0859 -0.2578,-0.0859 -0.1563,0 -0.2969,0.0781 -0.1875,0.125 -0.4375,0.4688 v 2.0156 q 0.3125,0 0.4609,0.1406 0.1485,0.1406 0.1485,0.3594 0,0.2187 -0.1485,0.3594 -0.1484,0.1406 -0.5234,0.1406 H 74.585 v -3.1563 q 0,-0.2343 -0.0782,-0.3203 -0.0781,-0.0859 -0.25,-0.0859 -0.1875,0 -0.3593,0.1094 -0.1719,0.1093 -0.4063,0.4375 v 2.0156 q 0.3125,0 0.4688,0.1406 0.1562,0.1406 0.1562,0.3594 0,0.2187 -0.1562,0.3594 -0.1563,0.1406 -0.5157,0.1406 h -0.9062 q -0.3594,0 -0.5156,-0.1406 -0.1563,-0.1407 -0.1563,-0.3594 0,-0.2188 0.1563,-0.3594 0.1562,-0.1406 0.4687,-0.1406 v -2.4375 q -0.3125,0 -0.4687,-0.1406 -0.1563,-0.1407 -0.1563,-0.3594 0,-0.2188 0.1563,-0.3594 0.1562,-0.1406 0.5156,-0.1406 z m 6.6104,3.4375 h 2.2031 q 0.1719,-0.1406 0.3281,-0.1406 0.2344,0 0.3672,0.1484 0.1328,0.1484 0.1328,0.5078 v 0.4844 h -4.5625 v -1.0625 q 2.7188,-2.2344 3.2656,-2.875 0.2969,-0.3281 0.2969,-0.6094 0,-0.375 -0.3203,-0.6562 -0.3203,-0.2813 -0.8516,-0.2813 -0.5468,0 -0.9062,0.3125 -0.1719,0.1719 -0.2969,0.5 -0.0625,0.2031 -0.1797,0.2891 -0.1172,0.0859 -0.3047,0.0859 -0.2031,0 -0.3515,-0.1406 -0.1485,-0.1406 -0.1485,-0.3438 0,-0.2968 0.2735,-0.7343 0.2734,-0.4375 0.789,-0.7032 0.5157,-0.2656 1.1407,-0.2656 0.9375,0 1.5468,0.5781 0.6094,0.5782 0.6094,1.3907 0,0.4062 -0.1797,0.7656 -0.1797,0.3594 -0.8359,0.9844 -0.5156,0.4843 -2.0156,1.7656 z m 6.0009,0 h 2.2032 q 0.1718,-0.1406 0.3281,-0.1406 0.2344,0 0.3672,0.1484 0.1328,0.1484 0.1328,0.5078 v 0.4844 h -4.5625 v -1.0625 q 2.7187,-2.2344 3.2656,-2.875 0.2969,-0.3281 0.2969,-0.6094 0,-0.375 -0.3203,-0.6562 -0.3203,-0.2813 -0.8516,-0.2813 -0.5469,0 -0.9062,0.3125 -0.1719,0.1719 -0.2969,0.5 -0.0625,0.2031 -0.1797,0.2891 -0.1172,0.0859 -0.3047,0.0859 -0.2031,0 -0.3515,-0.1406 -0.1485,-0.1406 -0.1485,-0.3438 0,-0.2968 0.2735,-0.7343 0.2734,-0.4375 0.789,-0.7032 0.5156,-0.2656 1.1406,-0.2656 0.9375,0 1.5469,0.5781 0.6094,0.5782 0.6094,1.3907 0,0.4062 -0.1797,0.7656 -0.1797,0.3594 -0.8359,0.9844 -0.5157,0.4843 -2.0157,1.7656 z"
     style="fill:#606060;stroke:none"
     id="path119" />
  <rect
     x="64.5"
     y="94.976601"
     width="32"
     style="fill:none;stroke:#606060"
     height="16"
     id="rect121" />
  <rect
     x="96.5"
     y="94.976601"
     width="32"
     style="fill:#c0c0c0;fill-opacity:1;stroke:none"
     height="16"
     id="rect123" />
  <rect
     x="96.5"
     y="94.976601"
     width="32"
     style="fill:none;stroke:#606060"
     height="16"
     id="rect125" />
</svg>
