<svg xmlns="http://www.w3.org/2000/svg" width="384" height="183" font-family="sans-serif" viewBox="0 0 2087 998">
  <path fill="#F0F0F0" fill-rule="evenodd" d="M3 184.094h259.843v129.922H3Zm259.843 0h259.842v129.922H262.843Zm259.842 0h259.843v129.922H522.685Zm259.843 0h259.842v129.922H782.528Zm259.842 0h259.84v129.922h-259.84Zm259.84 0h259.85v129.922h-259.85Z"/>
  <path fill="#C0C0C0" fill-rule="evenodd" d="M1562.06 184.094h259.84v129.922h-259.84Zm259.84 0h259.84v129.922H1821.9Z"/>
  <path fill="none" stroke="#606060" stroke-linejoin="round" stroke-miterlimit="10" stroke-width="4.5833" d="M132.921 139.921v46.465m129.922-4.583v134.504m129.921-176.386v46.465m129.921-4.583v134.504m129.921-176.386v46.465m129.922-4.583v134.504m129.921-176.386v46.465m129.921-4.583v134.504m129.92-176.386v46.465m129.92-4.583v134.504m129.92-176.386v46.465m129.93-4.583v134.504m129.92-176.386v46.465m129.92-4.583v134.504m129.92-176.386v46.465M.7083 184.094H2084.03M3 181.803v134.504m2078.74-134.504v134.504M.7083 314.016H2084.03"/>
  <text font-size="83" font-weight="400" transform="translate(87.0879 105)">00<tspan x="259.843" y="0">01</tspan><tspan x="519.685" y="0">02</tspan><tspan x="779.528" y="0">03</tspan><tspan x="1039.37" y="0">04</tspan><tspan x="1299.21" y="0">05</tspan><tspan x="1559.06" y="0">06</tspan><tspan x="1818.9" y="0">07</tspan><tspan x="-28.9324" y="172" font-family="monospace">m00</tspan><tspan x="230.91" y="172" font-family="monospace">m00</tspan><tspan x="490.753" y="172" font-family="monospace">m10</tspan><tspan x="750.595" y="172" font-family="monospace">m10</tspan><tspan x="1010.44" y="172" font-family="monospace">m20</tspan><tspan x="1270.28" y="172" font-family="monospace">m20</tspan></text>
  <path fill="#F0F0F0" fill-rule="evenodd" d="M3 508.898h259.843v129.921H3Zm259.843 0h259.842v129.921H262.843Zm259.842 0h259.843v129.921H522.685Zm259.843 0h259.842v129.921H782.528Zm259.842 0h259.84v129.921h-259.84Zm259.84 0h259.85v129.921h-259.85Z"/>
  <path fill="#C0C0C0" fill-rule="evenodd" d="M1562.06 508.898h259.84v129.921h-259.84Zm259.84 0h259.84v129.921H1821.9Z"/>
  <path fill="none" stroke="#606060" stroke-linejoin="round" stroke-miterlimit="10" stroke-width="4.5833" d="M132.921 464.724v46.465m129.922-4.583v134.505m129.921-176.387v46.465m129.921-4.583v134.505m129.921-176.387v46.465m129.922-4.583v134.505m129.921-176.387v46.465m129.921-4.583v134.505m129.92-176.387v46.465m129.92-4.583v134.505m129.92-176.387v46.465m129.93-4.583v134.505m129.92-176.387v46.465m129.92-4.583v134.505m129.92-176.387v46.465M.7083 508.898H2084.03M3 506.606v134.505m2078.74-134.505v134.505M.7083 638.819H2084.03"/>
  <text font-size="83" font-weight="400" transform="translate(87.0879 430)">08<tspan x="259.843" y="0">09</tspan><tspan x="515.102" y="0">0A</tspan><tspan x="774.944" y="0">0B</tspan><tspan x="1032.5" y="0">0C</tspan><tspan x="1292.34" y="0">0D</tspan><tspan x="1554.47" y="0">0E</tspan><tspan x="1816.61" y="0">0F</tspan><tspan x="-28.9324" y="171" font-family="monospace">m01</tspan><tspan x="230.91" y="171" font-family="monospace">m01</tspan><tspan x="490.753" y="171" font-family="monospace">m11</tspan><tspan x="750.595" y="171" font-family="monospace">m11</tspan><tspan x="1010.44" y="171" font-family="monospace">m21</tspan><tspan x="1270.28" y="171" font-family="monospace">m21</tspan></text>
  <path fill="#F0F0F0" fill-rule="evenodd" d="M3 833.701h259.843v129.921H3Zm259.843 0h259.842v129.921H262.843Zm259.842 0h259.843v129.921H522.685Zm259.843 0h259.842v129.921H782.528Zm259.842 0h259.84v129.921h-259.84Zm259.84 0h259.85v129.921h-259.85Z"/>
  <path fill="#C0C0C0" fill-rule="evenodd" d="M1562.06 833.701h259.84v129.921h-259.84Zm259.84 0h259.84v129.921H1821.9Z"/>
  <path fill="none" stroke="#606060" stroke-linejoin="round" stroke-miterlimit="10" stroke-width="4.5833" d="M132.921 789.528v46.464m129.922-4.583v134.505m129.921-176.386v46.464m129.921-4.583v134.505m129.921-176.386v46.464m129.922-4.583v134.505m129.921-176.386v46.464m129.921-4.583v134.505m129.92-176.386v46.464m129.92-4.583v134.505m129.92-176.386v46.464m129.93-4.583v134.505m129.92-176.386v46.464m129.92-4.583v134.505m129.92-176.386v46.464M.7083 833.701H2084.03M3 831.409v134.505m2078.74-134.505v134.505M.7083 963.622H2084.03"/>
  <text font-size="83" font-weight="400" transform="translate(87.0879 755)">10<tspan x="262.902" y="0">11</tspan><tspan x="519.685" y="0">12</tspan><tspan x="779.528" y="0">13</tspan><tspan x="1039.37" y="0">14</tspan><tspan x="1299.21" y="0">15</tspan><tspan x="1559.06" y="0">16</tspan><tspan x="1818.9" y="0">17</tspan><tspan x="-28.9324" y="171" font-family="monospace">m02</tspan><tspan x="230.91" y="171" font-family="monospace">m02</tspan><tspan x="490.753" y="171" font-family="monospace">m12</tspan><tspan x="750.595" y="171" font-family="monospace">m12</tspan><tspan x="1010.44" y="171" font-family="monospace">m22</tspan><tspan x="1270.28" y="171" font-family="monospace">m22</tspan></text>
</svg>