<svg xmlns="http://www.w3.org/2000/svg" width="192" height="183" font-family="sans-serif" viewBox="0 0 1047 998">
  <path fill="#F0F0F0" fill-rule="evenodd" d="M3 184.094h259.843v129.922H3Zm259.843 0h259.842v129.922H262.843Zm259.842 0h259.843v129.922H522.685Z"/>
  <path fill="#C0C0C0" fill-rule="evenodd" d="M782.528 184.094h259.842v129.922H782.528Z"/>
  <path fill="none" stroke="#606060" stroke-linejoin="round" stroke-miterlimit="10" stroke-width="4.5833" d="M132.921 139.921v46.465m129.922-4.583v134.504m129.921-176.386v46.465m129.921-4.583v134.504m129.921-176.386v46.465m129.922-4.583v134.504m129.921-176.386v46.465M.7083 184.094H1044.66M3 181.803v134.504m1039.37-134.504v134.504M.7083 314.016H1044.66"/>
  <text font-size="83" font-weight="400" transform="translate(87.0879 105)">00<tspan x="259.843" y="0">01</tspan><tspan x="519.685" y="0">02</tspan><tspan x="779.528" y="0">03</tspan><tspan x="-28.9324" y="172" font-family="monospace">m00</tspan><tspan x="230.91" y="172" font-family="monospace">m10</tspan><tspan x="490.753" y="172" font-family="monospace">m20</tspan></text>
  <path fill="#F0F0F0" fill-rule="evenodd" d="M3 509.019h259.843V638.94H3Zm259.843 0h259.842V638.94H262.843Zm259.842 0h259.843V638.94H522.685Z"/>
  <path fill="#C0C0C0" fill-rule="evenodd" d="M782.528 509.019h259.842V638.94H782.528Z"/>
  <path fill="none" stroke="#606060" stroke-linejoin="round" stroke-miterlimit="10" stroke-width="4.5833" d="M132.921 464.845v46.465m129.922-4.583v134.504m129.921-176.386v46.465m129.921-4.583v134.504m129.921-176.386v46.465m129.922-4.583v134.504m129.921-176.386v46.465M.7083 509.019H1044.66M3 506.727v134.504m1039.37-134.504v134.504M.7083 638.94H1044.66"/>
  <text font-size="83" font-weight="400" transform="translate(87.0879 430)">04<tspan x="259.843" y="0">05</tspan><tspan x="519.685" y="0">06</tspan><tspan x="779.528" y="0">07</tspan><tspan x="-28.9324" y="171" font-family="monospace">m01</tspan><tspan x="230.91" y="171" font-family="monospace">m11</tspan><tspan x="490.753" y="171" font-family="monospace">m21</tspan></text>
  <path fill="#F0F0F0" fill-rule="evenodd" d="M3 833.943h259.843v129.921H3Zm259.843 0h259.842v129.921H262.843Zm259.842 0h259.843v129.921H522.685Z"/>
  <path fill="#C0C0C0" fill-rule="evenodd" d="M782.528 833.943h259.842v129.921H782.528Z"/>
  <path fill="none" stroke="#606060" stroke-linejoin="round" stroke-miterlimit="10" stroke-width="4.5833" d="M132.921 789.769v46.465m129.922-4.583v134.505m129.921-176.387v46.465m129.921-4.583v134.505m129.921-176.387v46.465m129.922-4.583v134.505m129.921-176.387v46.465M.7083 833.943H1044.66M3 831.651v134.505m1039.37-134.505v134.505M.7083 963.864H1044.66"/>
  <text font-size="83" font-weight="400" transform="translate(87.0879 755)">08<tspan x="259.843" y="0">09</tspan><tspan x="515.102" y="0">0A</tspan><tspan x="774.944" y="0">0B</tspan><tspan x="-28.9324" y="171" font-family="monospace">m02</tspan><tspan x="230.91" y="171" font-family="monospace">m12</tspan><tspan x="490.753" y="171" font-family="monospace">m22</tspan></text>
</svg>