{
    "accessors": [
        {
            "bufferView": 0,
            "byteOffset": 0,
            "componentType": 5126,
            "count": 24,
            "max": [
                1,
                1,
                1
            ],
            "min": [
                -1,
                -1,
                -1
            ],
            "normalized": false,
            "type": "VEC3"
        },
        {
            "bufferView": 1,
            "byteOffset": 0,
            "componentType": 5125,
            "count": 24,
            "max": [
                23
            ],
            "min": [
                0
            ],
            "normalized": false,
            "type": "SCALAR"
        }
    ],
    "asset": {
        "version": "2.0"
    },
    "bufferViews": [
        {
            "buffer": 0,
            "byteLength": 288,
            "byteOffset": 0
        },
        {
            "buffer": 0,
            "byteLength": 96,
            "byteOffset": 288
        }
    ],
    "buffers": [
        {
            "byteLength": 384,
            "uri": "convex_hull_only0.bin"
        }
    ],
    "extensions": {
        "OMI_collider": {
            "colliders": [
                {
                    "mesh": 0,
                    "type": "hull"
                }
            ]
        }
    },
    "extensionsUsed": [
        "OMI_collider"
    ],
    "meshes": [
        {
            "extras": {
                "targetNames": []
            },
            "primitives": [
                {
                    "attributes": {
                        "POSITION": 0
                    },
                    "indices": 1,
                    "mode": 4
                }
            ]
        }
    ],
    "nodes": [
        {
            "extensions": {
                "OMI_collider": {
                    "collider": 0
                }
            },
            "name": "ConvexHull"
        }
    ],
    "scene": 0,
    "scenes": [
        {
            "nodes": [
                0
            ]
        }
    ]
}
