<svg xmlns="http://www.w3.org/2000/svg" viewBox="0 0 245 172" width="576" font-family="sans-serif" font-size="6" font-weight="400">
  <path fill="#86C540" fill-rule="evenodd" stroke="#7F7F7F" stroke-miterlimit="8" stroke-width=".2292" d="M104.3 6.6c0-3.5898 2.91-6.5 6.5-6.5h23.4c3.59 0 6.5 2.9102 6.5 6.5 0 3.5899-2.91 6.5-6.5 6.5h-23.4c-3.59 0-6.5-2.9102-6.5-6.5Z"/>
  <text x="115.081" y="8.5">scene</text>
  <path fill="#86C540" fill-rule="evenodd" stroke="#7F7F7F" stroke-miterlimit="8" stroke-width=".2292" d="M104.3 37.15c0-3.6175 2.933-6.55 6.55-6.55h23.3c3.617 0 6.55 2.9325 6.55 6.55s-2.933 6.55-6.55 6.55h-23.3c-3.617 0-6.55-2.9326-6.55-6.55Z"/>
  <text x="115.911" y="39.1">node</text>
  <path fill="#86C540" fill-rule="evenodd" stroke="#7F7F7F" stroke-miterlimit="8" stroke-width=".2292" d="M52.3 67.75c0-3.617 2.933-6.55 6.55-6.55h23.3c3.618 0 6.55 2.933 6.55 6.55s-2.933 6.55-6.55 6.55h-23.3c-3.617 0-6.55-2.933-6.55-6.55Z"/>
  <text x="60.784" y="69.6">camera</text>
  <path fill="#86C540" fill-rule="evenodd" stroke="#7F7F7F" stroke-miterlimit="8" stroke-width=".2292" d="M104.3 67.75c0-3.617 2.933-6.55 6.55-6.55h23.3c3.617 0 6.55 2.933 6.55 6.55s-2.933 6.55-6.55 6.55h-23.3c-3.617 0-6.55-2.933-6.55-6.55Z"/>
  <text x="115.367" y="69.6">mesh</text>
  <path fill="#86C540" fill-rule="evenodd" stroke="#7F7F7F" stroke-miterlimit="8" stroke-width=".2292" d="M104.3 98.3c0-3.59 2.91-6.5 6.5-6.5h23.4c3.59 0 6.5 2.91 6.5 6.5s-2.91 6.5-6.5 6.5h-23.4c-3.59 0-6.5-2.91-6.5-6.5Z"/>
  <text x="111.328" y="100.2">accessor</text>
  <path fill="#86C540" fill-rule="evenodd" stroke="#7F7F7F" stroke-miterlimit="8" stroke-width=".2292" d="M104.3 128.9c0-3.59 2.91-6.5 6.5-6.5h23.4c3.59 0 6.5 2.91 6.5 6.5s-2.91 6.5-6.5 6.5h-23.4c-3.59 0-6.5-2.91-6.5-6.5Z"/>
  <text x="108.005" y="130.8">buffer view</text>
  <path fill="#86C540" fill-rule="evenodd" stroke="#7F7F7F" stroke-miterlimit="8" stroke-width=".2292" d="M104.3 159.5c0-3.59 2.91-6.5 6.5-6.5h23.4c3.59 0 6.5 2.91 6.5 6.5s-2.91 6.5-6.5 6.5h-23.4c-3.59 0-6.5-2.91-6.5-6.5Z"/>
  <text x="114.536" y="161.4">buffer</text>
  <path d="M122.894 104.85v16.879h-.688V104.85Zm-1.719 0c0-.759.616-1.375 1.375-1.375s1.375.616 1.375 1.375-.616 1.375-1.375 1.375-1.375-.616-1.375-1.375Zm3.276 14.302-1.901 3.259-1.901-3.259a.3432.3432 0 0 1 .124-.47.3431.3431 0 0 1 .47.123l1.604 2.75h-.594l1.604-2.75a.3431.3431 0 0 1 .47-.123c.164.095.22.306.124.47Zm-1.557 16.298v16.879h-.688V135.45Zm-1.719 0c0-.759.616-1.375 1.375-1.375s1.375.616 1.375 1.375-.616 1.375-1.375 1.375-1.375-.616-1.375-1.375Zm3.276 14.302-1.901 3.259-1.901-3.259a.3432.3432 0 0 1 .124-.47.344.344 0 0 1 .47.123l1.604 2.75h-.594l1.604-2.75a.3431.3431 0 0 1 .47-.123c.164.095.22.306.124.47ZM122.894 43.75v16.879h-.688V43.75Zm-1.719 0c0-.7594.616-1.375 1.375-1.375s1.375.6156 1.375 1.375-.616 1.375-1.375 1.375-1.375-.6156-1.375-1.375Zm3.276 14.3018-1.901 3.2592-1.901-3.2592a.3435.3435 0 0 1 .124-.4701.3438.3438 0 0 1 .47.1237l1.604 2.7496h-.594l1.604-2.7496a.3437.3437 0 0 1 .47-.1237c.164.0957.22.3062.124.4701ZM122.894 74.35v16.879h-.688V74.35Zm-1.719 0c0-.759.616-1.375 1.375-1.375s1.375.616 1.375 1.375-.616 1.375-1.375 1.375-1.375-.616-1.375-1.375Zm3.276 14.302-1.901 3.259-1.901-3.259a.3432.3432 0 0 1 .124-.47.3431.3431 0 0 1 .47.123l1.604 2.75h-.594l1.604-2.75a.3431.3431 0 0 1 .47-.123c.164.095.22.306.124.47Z"/>
  <path fill="#86C540" fill-rule="evenodd" stroke="#7F7F7F" stroke-miterlimit="8" stroke-width=".2292" d="M156.4 98.3c0-3.59 2.91-6.5 6.5-6.5h23.4c3.59 0 6.5 2.91 6.5 6.5s-2.91 6.5-6.5 6.5h-23.4c-3.59 0-6.5-2.91-6.5-6.5Z"/>
  <text x="163.799" y="100.2">material</text>
  <path d="m122.66 74.024 51.453 17.352-.219.652-51.454-17.352Zm-.549 1.629c-.72-.243-1.107-1.023-.864-1.742.243-.72 1.023-1.107 1.742-.864.72.243 1.107 1.023.864 1.742-.243.72-1.023 1.107-1.742.864Zm50.058 13.424 2.481 2.843-3.696.76a.344.344 0 0 1-.406-.267.3442.3442 0 0 1 .268-.406l3.118-.642-.19.563-2.093-2.399a.3436.3436 0 1 1 .518-.452Z"/>
  <path fill="#86C540" fill-rule="evenodd" stroke="#7F7F7F" stroke-miterlimit="8" stroke-width=".2292" d="M156.4 128.9c0-3.59 2.91-6.5 6.5-6.5h23.4c3.59 0 6.5 2.91 6.5 6.5s-2.91 6.5-6.5 6.5h-23.4c-3.59 0-6.5-2.91-6.5-6.5Z"/>
  <text x="165.203" y="130.8">texture</text>
  <path d="M174.994 104.85v16.825h-.688V104.85Zm-1.719 0c0-.759.616-1.375 1.375-1.375s1.375.616 1.375 1.375-.616 1.375-1.375 1.375-1.375-.616-1.375-1.375Zm3.276 14.248-1.901 3.259-1.901-3.259a.3435.3435 0 0 1 .124-.47c.164-.095.374-.04.47.124l1.604 2.75h-.594l1.604-2.75a.3443.3443 0 0 1 .47-.124c.164.096.22.306.124.47Z"/>
  <path fill="#86C540" fill-rule="evenodd" stroke="#7F7F7F" stroke-miterlimit="8" stroke-width=".2292" d="M208.5 159.5c0-3.59 2.91-6.5 6.5-6.5h23.4c3.59 0 6.5 2.91 6.5 6.5s-2.91 6.5-6.5 6.5H215c-3.59 0-6.5-2.91-6.5-6.5Z"/>
  <text x="216.155" y="161.4">sampler</text>
  <path d="m174.76 135.124 51.454 17.385-.22.651-51.454-17.384Zm-.55 1.629c-.72-.243-1.106-1.024-.863-1.743.243-.72 1.024-1.106 1.743-.863.72.243 1.106 1.024.863 1.743-.243.72-1.024 1.106-1.743.863Zm50.061 13.456 2.479 2.844-3.696.758a.3442.3442 0 0 1-.406-.268.3442.3442 0 0 1 .268-.406l3.119-.639-.191.562-2.091-2.4a.3436.3436 0 0 1 .033-.485c.143-.124.36-.109.485.034Z"/>
  <path fill="#86C540" fill-rule="evenodd" stroke="#7F7F7F" stroke-miterlimit="8" stroke-width=".2292" d="M156.4 159.5c0-3.59 2.91-6.5 6.5-6.5h23.4c3.59 0 6.5 2.91 6.5 6.5s-2.91 6.5-6.5 6.5h-23.4c-3.59 0-6.5-2.91-6.5-6.5Z"/>
  <text x="166.52" y="161.4">image</text>
  <path d="M174.994 135.45v16.955h-.688V135.45Zm-1.719 0c0-.759.616-1.375 1.375-1.375s1.375.616 1.375 1.375-.616 1.375-1.375 1.375-1.375-.616-1.375-1.375Zm3.276 14.378-1.901 3.259-1.901-3.259a.3435.3435 0 0 1 .124-.47c.164-.096.374-.04.47.124l1.604 2.75h-.594l1.604-2.75c.096-.164.306-.22.47-.124.164.096.22.306.124.47ZM122.473 43.4243 71.0844 60.766l.2199.6514 51.3887-17.3417Zm.5497 1.6285c.7195-.2428 1.106-1.023.8631-1.7424-.2428-.7196-1.023-1.106-1.7424-.8632-.7196.2428-1.106 1.023-.8632 1.7425.2428.7195 1.023 1.106 1.7425.8631ZM73.028 58.4664l-2.4801 2.8434 3.6958.7592a.3438.3438 0 0 0 .1384-.6734l-3.1186-.6407.1899.5627 2.0927-2.3993a.3437.3437 0 1 0-.5181-.4519Z"/>
  <path fill="#86C540" fill-rule="evenodd" stroke="#7F7F7F" stroke-miterlimit="8" stroke-width=".2292" d="M.1 67.8c0-3.59 2.91-6.5 6.5-6.5H30c3.59 0 6.5 2.91 6.5 6.5s-2.91 6.5-6.5 6.5H6.6c-3.59 0-6.5-2.91-6.5-6.5Z"/>
  <text x="13.118" y="69.7">skin</text>
  <path fill="#86C540" fill-rule="evenodd" stroke="#7F7F7F" stroke-miterlimit="8" stroke-width=".2292" d="M.1 98.3c0-3.59 2.91-6.5 6.5-6.5H30c3.59 0 6.5 2.91 6.5 6.5s-2.91 6.5-6.5 6.5H6.6c-3.59 0-6.5-2.91-6.5-6.5Z"/>
  <text x="5.155" y="100.2">animation</text>
  <path d="M103.61 37.1026 18.9122 60.8413l.1855.662 84.698-23.7387Zm-1.8755 2.857 2.625-2.71-3.6511-.951a.3438.3438 0 0 0-.1733.6652l3.0809.8025-.1603-.5718-2.215 2.2868a.3438.3438 0 0 0 .4938.4783ZM20.9736 58.6461l-2.625 2.7101 3.6511.951a.3437.3437 0 1 0 .1733-.6653l-3.0809-.8025.1603.5719 2.2151-2.2868a.3438.3438 0 0 0-.4939-.4784ZM36.691 67.537l67.199 30.288-.282.627-67.199-30.289Zm-.706 1.567c-.692-.312-1.001-1.127-.689-1.819.313-.692 1.127-1.001 1.819-.689.692.313 1.001 1.127.689 1.819-.312.692-1.127 1.001-1.819.689Zm66.195 26.242 2.19 3.073-3.752.394a.3437.3437 0 0 1-.378-.306.3437.3437 0 0 1 .306-.378l3.167-.332-.244.541-1.848-2.592a.3432.3432 0 0 1 .08-.48c.155-.11.369-.074.479.08Z"/>
  <path d="m36.55 98.006 67.139.007v.687l-67.139-.006Zm0 1.719c-.76 0-1.375-.616-1.375-1.375 0-.76.616-1.375 1.375-1.375.76 0 1.375.616 1.375 1.375 0 .76-.616 1.375-1.375 1.375Zm64.562-3.27 3.259 1.901-3.26 1.901a.3435.3435 0 0 1-.47-.124.3443.3443 0 0 1 .124-.47l2.75-1.604v.594l-2.75-1.604a.3431.3431 0 0 1-.123-.47c.095-.164.306-.22.47-.124Zm55.053 63.27-.942-1.834.611-.315.942 1.835Zm-1.256-2.446-.942-1.835.611-.314.942 1.835Zm-1.256-2.446-.942-1.835.611-.314.942 1.835Zm-1.256-2.447-.943-1.835.612-.314.942 1.835Zm-1.257-2.446-.942-1.835.612-.314.942 1.835Zm-1.256-2.447-.942-1.834.612-.314.942 1.834Zm-1.256-2.446-.942-1.835.612-.314.942 1.835Zm-1.256-2.446-.942-1.835.612-.314.942 1.835Zm-1.256-2.447-.942-1.835.612-.314.942 1.835Zm-1.256-2.446-.942-1.835.612-.314.942 1.835Zm-1.256-2.447-.942-1.834.612-.314.942 1.834Zm-1.256-2.446-.942-1.835.612-.314.942 1.835Zm-1.256-2.446-.337-.657.612-.314.337.657Zm16.602 28.571c.347.676.08 1.505-.595 1.851-.676.347-1.505.081-1.852-.595-.347-.675-.08-1.504.595-1.851.676-.347 1.505-.08 1.852.595Zm-17.147-26.224.202-3.767 3.18 2.03c.16.103.207.315.105.475a.3443.3443 0 0 1-.475.105l-2.683-1.714.528-.271-.171 3.179c-.01.19-.172.335-.362.325a.3428.3428 0 0 1-.324-.362Zm.154-94.7948 1.538-.1688-.048.0088.756-.1938-.034.0109.737-.275-.025.0104.713-.3313-.027.0141.681-.3937-.025.0159.644-.45-.022.0163.6-.4938-.022.0196.557-.5437-.019.0202.5-.575-.019.0239.443-.6125-.018.0274.375-.6375-.016.0314.3-.6563-.014.037.218-.675-.01.0385.138-.6875-.006.0425.05-.6875v.0437l-.019-.3438.004.0358-.056-.35.013.0533-.226-.6812.022.0514-.356-.6812.027.044-.481-.6563.027.0323-.6-.6375.025.0241-.706-.6125.025.0195-.8-.575.021.014-.888-.5438.024.0132-.969-.4938.019.0091-1.037-.45.019.0079-1.087-.3938.021.007-1.143-.3313.019.005-1.181-.2687.02.0039-1.207-.2.022.0029-1.231-.125.022.0015-1.237-.0437.026-.0001-1.238.05.025-.0018-1.225.1375.022-.0034-1.212.2188.024-.0052-1.175.3.022-.0065-1.144.375.022-.0081-1.093.4438.02-.0092-1.031.5.02-.0104-.969.55.024-.0151-.887.6062.021-.016-.8.6438.024-.0204-.707.6812.025-.026-.6.7125.025-.0335-.482.7375.023-.0414-.356.7562.019-.0492-.225.7625.01-.0479-.014.0971-.68-.0987.018-.1215.239-.8114.378-.8016.505-.7749.625-.7421.73-.7044.823-.6619.91-.6218.991-.5626 1.052-.5098 1.115-.4525 1.166-.3822 1.198-.3059 1.236-.223 1.248-.1401 1.263-.051 1.262.0446 1.253.1272 1.227.2034 1.201.2733 1.164.3371 1.108.4012 1.057.4585.991.5048.91.5573.823.5916.731.6342.626.6655.509.6942.382.7291.242.734.063.395.021.3836-.053.7307-.145.7281-.231.7129-.316.6904-.392.6669-.463.6381-.519.5971-.577.5637-.621.5117-.667.4662-.708.4088-.738.3434-.767.2861-.798.2043-1.562.1714Zm.179 1.7095c-.756.0778-1.431-.4715-1.509-1.2269-.078-.7554.472-1.4308 1.227-1.5087.755-.0778 1.431.4715 1.509 1.2269.077.7554-.472 1.4308-1.227 1.5087Zm-16.15-10.9608-2.185 3.0758-1.602-3.416a.345.345 0 0 1 .165-.4572.3448.3448 0 0 1 .458.1653l1.351 2.8825-.591-.0531 1.844-2.5955a.3434.3434 0 0 1 .479-.0811.3434.3434 0 0 1 .081.4793Z"/>
  <path d="M122.894 13.15v16.8786h-.688V13.15Zm-1.719 0c0-.7594.616-1.375 1.375-1.375s1.375.6156 1.375 1.375-.616 1.375-1.375 1.375-1.375-.6156-1.375-1.375Zm3.276 14.3018-1.901 3.2591-1.901-3.259a.3436.3436 0 0 1 .124-.4702.3438.3438 0 0 1 .47.1237l1.604 2.75h-.594l1.604-2.75a.3438.3438 0 0 1 .47-.1237c.164.0957.22.3062.124.4701Z"/>
</svg>