{
    "accessors": {
        "accessor_16": {
            "bufferView": "bufferView_22",
            "byteOffset": 0,
            "byteStride": 0,
            "componentType": 5123,
            "count": 36,
            "type": "SCALAR"
        },
        "accessor_18": {
            "bufferView": "bufferView_23",
            "byteOffset": 0,
            "byteStride": 12,
            "componentType": 5126,
            "count": 36,
            "max": [
                0.5,
                0.5,
                0.5
            ],
            "min": [
                -0.5,
                -0.5,
                -0.5
            ],
            "type": "VEC3"
        },
        "accessor_20": {
            "bufferView": "bufferView_23",
            "byteOffset": 432,
            "byteStride": 12,
            "componentType": 5126,
            "count": 36,
            "max": [
                1,
                1,
                1
            ],
            "min": [
                -1,
                -1,
                -1
            ],
            "type": "VEC3"
        }
    },
    "animations": {},
    "asset": {
        "generator": "collada2gltf@cf6371beb0bdc18ba603378d5e40c966da53d385",
        "premultipliedAlpha": true,
        "profile": {
            "api": "WebGL",
            "version": "1.0.2"
        },
        "version": "1.0"
    },
    "bufferViews": {
        "bufferView_22": {
            "buffer": "boxWithoutIndices",
            "byteLength": 72,
            "byteOffset": 0,
            "target": 34963
        },
        "bufferView_23": {
            "buffer": "boxWithoutIndices",
            "byteLength": 864,
            "byteOffset": 72,
            "target": 34962
        }
    },
    "buffers": {
        "boxWithoutIndices": {
            "byteLength": 936,
            "type": "arraybuffer",
            "uri": "boxWithoutIndices.bin"
        }
    },
    "extensionsUsed": [
        "KHR_materials_common"
    ],
    "materials": {
        "Effect-Red": {
            "extensions": {
                "KHR_materials_common": {
                    "doubleSided": false,
                    "jointCount": 0,
                    "technique": "PHONG",
                    "transparent": false,
                    "values": {
                        "diffuse": [
                            0.8,
                            0,
                            0,
                            1
                        ],
                        "shininess": 256,
                        "specular": [
                            0.2,
                            0.2,
                            0.2,
                            1
                        ]
                    }
                }
            },
            "name": "Red"
        }
    },
    "meshes": {
        "Geometry-mesh002": {
            "name": "Mesh",
            "primitives": [
                {
                    "attributes": {
                        "NORMAL": "accessor_20",
                        "POSITION": "accessor_18"
                    },
                    "indices": "accessor_16",
                    "material": "Effect-Red",
                    "mode": 4
                }
            ]
        }
    },
    "nodes": {
        "Geometry-mesh002Node": {
            "children": [],
            "matrix": [
                1,
                0,
                0,
                0,
                0,
                1,
                0,
                0,
                0,
                0,
                1,
                0,
                0,
                0,
                0,
                1
            ],
            "meshes": [
                "Geometry-mesh002"
            ],
            "name": "Mesh"
        },
        "node_1": {
            "children": [
                "Geometry-mesh002Node"
            ],
            "matrix": [
                1,
                0,
                0,
                0,
                0,
                0,
                -1,
                0,
                0,
                1,
                0,
                0,
                0,
                0,
                0,
                1
            ],
            "name": "Y_UP_Transform"
        }
    },
    "scene": "defaultScene",
    "scenes": {
        "defaultScene": {
            "nodes": [
                "node_1"
            ]
        }
    },
    "skins": {}
}