{
  "accessors": {
    "accessor_18": {
      "bufferView": "bufferView_0",
      "byteOffset": 0,
      "byteStride": 0,
      "componentType": 5126,
      "count": 36,
      "max": [
        0.5,
        0.5,
        0.5
      ],
      "min": [
        -0.5,
        -0.5,
        -0.5
      ],
      "type": "VEC3"
    },
    "accessor_20": {
      "bufferView": "bufferView_0",
      "byteOffset": 432,
      "byteStride": 0,
      "componentType": 5126,
      "count": 36,
      "max": [
        1,
        1,
        1
      ],
      "min": [
        -1,
        -1,
        -1
      ],
      "type": "VEC3"
    }
  },
  "animations": {},
  "asset": {
    "generator": "collada2gltf@027f74366341d569dea42e9a68b7104cc3892054",
    "premultipliedAlpha": true,
    "profile": {
      "api": "WebGL",
      "version": "1.0.2"
    },
    "version": "1.0"
  },
  "bufferViews": {
    "bufferView_0": {
      "buffer": "BoxWithoutIndices",
      "byteLength": 864,
      "byteOffset": 0,
      "target": 34962
    }
  },
  "buffers": {
    "BoxWithoutIndices": {
      "byteLength": 864,
      "type": "arraybuffer",
      "uri": "BoxWithoutIndices.bin"
    }
  },
  "materials": {
    "Effect-Red": {
      "extensions": {
          "KHR_materials_common": {
              "doubleSided": false,
              "jointCount": 0,
              "technique": "PHONG",
              "transparent": false,
              "values": {
                  "diffuse": [
                      0.8,
                      0,
                      0,
                      1
                  ],
                  "shininess": 256,
                  "specular": [
                      0.2,
                      0.2,
                      0.2,
                      1
                  ]
              }
          }
      },
      "name": "Red"
    }
  },
  "meshes": {
    "Geometry-mesh002": {
      "name": "Mesh",
      "primitives": [
        {
          "attributes": {
            "NORMAL": "accessor_20",
            "POSITION": "accessor_18"
          },
          "material": "Effect-Red",
          "mode": 4
        }
      ]
    }
  },
  "nodes": {
    "rootNode": {
      "children": [],
      "meshes": [
        "Geometry-mesh002"
      ],
      "matrix": [
        1,
        0,
        0,
        0,
        0,
        1,
        0,
        0,
        0,
        0,
        1,
        0,
        0,
        0,
        0,
        1
      ]
    }
  },
  "scene": "defaultScene",
  "scenes": {
    "defaultScene": {
      "nodes": [
        "rootNode"
      ]
    }
  },
  "skins": {},
  "extensionsUsed": [
      "KHR_materials_common"
  ],
  "cameras": {},
  "images": {},
  "samplers": {},
  "textures": {}
}
