<?xml version="1.0" encoding="UTF-8" standalone="no"?>
<!DOCTYPE svg PUBLIC "-//W3C//DTD SVG 1.1//EN" "http://www.w3.org/Graphics/SVG/1.1/DTD/svg11.dtd">
<!-- Generated by Microsoft Visio, SVG Export cube_map.svg Page-2 -->
<svg xmlns="http://www.w3.org/2000/svg" xmlns:xlink="http://www.w3.org/1999/xlink" width="6.65625in" height="5.00694in" viewBox="0 0 479.25 360.5" xml:space="preserve" color-interpolation-filters="sRGB" class="st8">
	<style type="text/css">
	<![CDATA[
		.st1 {fill:#1ba1e2;stroke:#ffffff;stroke-linecap:round;stroke-linejoin:round;stroke-width:0.5}
		.st2 {fill:#ffffff;font-family:URW Geometric;font-size:0.833336em}
		.st3 {font-size:1em}
		.st4 {stroke:none;stroke-linecap:round;stroke-linejoin:round;stroke-width:0.75}
		.st5 {fill:#000000;font-family:URW Geometric;font-size:1.32285em}
		.st6 {marker-end:url(#mrkr4-39);stroke:#000000;stroke-linecap:round;stroke-linejoin:round;stroke-width:0.5}
		.st7 {fill:#000000;fill-opacity:1;stroke:#000000;stroke-opacity:1;stroke-width:0.16556291390728}
		.st8 {fill:none;fill-rule:evenodd;font-size:12px;overflow:visible;stroke-linecap:square;stroke-miterlimit:3}
	]]>
	</style>

	<defs>
		<g id="lend4">
			<path d="M 2 1 L 0 0 L 2 -1 L 2 1 " style="stroke:none"/>
		</g>
		<marker id="mrkr4-39" class="st7" refX="-12.08" orient="auto" markerUnits="strokeWidth" overflow="visible">
			<use xlink:href="#lend4" transform="scale(-6.04,-6.04) "/>
		</marker>
	</defs>
	<g>
		<g transform="translate(29,-126.25)">
			<desc>-X FACE 1</desc>
			<rect x="0" y="252.5" width="108" height="108" class="st1"/>
			<text x="50.08" y="303.5" class="st2">-X<tspan x="40.28" dy="1.2em" class="st3">FACE 1</tspan></text>
		</g>
		<g transform="translate(137,-126.25)">
			<desc>+Z FACE 4</desc>
			<rect x="0" y="252.5" width="108" height="108" class="st1"/>
			<text x="48.68" y="303.5" class="st2">+Z<tspan x="39.2" dy="1.2em" class="st3">FACE 4</tspan></text>
		</g>
		<g transform="translate(245,-126.25)">
			<desc>+X FACE 0</desc>
			<rect x="0" y="252.5" width="108" height="108" class="st1"/>
			<text x="48.57" y="303.5" class="st2">+X<tspan x="38.93" dy="1.2em" class="st3">FACE 0</tspan></text>
		</g>
		<g transform="translate(353,-126.25)">
			<desc>-Z FACE 5</desc>
			<rect x="0" y="252.5" width="108" height="108" class="st1"/>
			<text x="50.18" y="303.5" class="st2">-Z<tspan x="39.18" dy="1.2em" class="st3">FACE 5</tspan></text>
		</g>
		<g transform="translate(137,-234.25)">
			<desc>+Y FACE 2</desc>
			<rect x="0" y="252.5" width="108" height="108" class="st1"/>
			<text x="48.69" y="303.5" class="st2">+Y<tspan x="39.38" dy="1.2em" class="st3">FACE 2</tspan></text>
		</g>
		<g transform="translate(137,-18.25)">
			<desc>-Y FACE 3</desc>
			<rect x="0" y="252.5" width="108" height="108" class="st1"/>
			<text x="50.19" y="303.5" class="st2">-Y<tspan x="39.42" dy="1.2em" class="st3">FACE 3</tspan></text>
		</g>
		<g transform="translate(207.182,-83.5)">
			<g transform="translate(3.13148,-23.6974)">
				<desc>v</desc>
				<path d="M12.62 341.45 L0 341.45 L0 360.5 L12.62 360.5 L12.62 341.45" class="st4"/>
				<text x="2.27" y="355.74" class="st5">v</text>
			</g>
			<g transform="translate(25.1816,-1.19743)">
				<desc>u</desc>
				<path d="M12.64 341.45 L0 341.45 L0 360.5 L12.64 360.5 L12.64 341.45" class="st4"/>
				<text x="2.74" y="355.74" class="st5">u</text>
			</g>
			<g transform="translate(0,-9)">
				<path d="M9 360.5 L9 348.54" class="st6"/>
			</g>
			<g transform="translate(9,0)">
				<path d="M0 351.5 L11.96 351.5" class="st6"/>
			</g>
		</g>
		<g transform="translate(423.182,-191.5)">
			<g transform="translate(3.13148,-23.6974)">
				<desc>v</desc>
				<path d="M12.62 341.45 L0 341.45 L0 360.5 L12.62 360.5 L12.62 341.45" class="st4"/>
				<text x="2.27" y="355.74" class="st5">v</text>
			</g>
			<g transform="translate(25.1816,-1.19743)">
				<desc>u</desc>
				<path d="M12.64 341.45 L0 341.45 L0 360.5 L12.64 360.5 L12.64 341.45" class="st4"/>
				<text x="2.74" y="355.74" class="st5">u</text>
			</g>
			<g transform="translate(0,-9)">
				<path d="M9 360.5 L9 348.54" class="st6"/>
			</g>
			<g transform="translate(9,0)">
				<path d="M0 351.5 L11.96 351.5" class="st6"/>
			</g>
		</g>
		<g transform="translate(315.182,-191.5)">
			<g transform="translate(3.13148,-23.6974)">
				<desc>v</desc>
				<path d="M12.62 341.45 L0 341.45 L0 360.5 L12.62 360.5 L12.62 341.45" class="st4"/>
				<text x="2.27" y="355.74" class="st5">v</text>
			</g>
			<g transform="translate(25.1816,-1.19743)">
				<desc>u</desc>
				<path d="M12.64 341.45 L0 341.45 L0 360.5 L12.64 360.5 L12.64 341.45" class="st4"/>
				<text x="2.74" y="355.74" class="st5">u</text>
			</g>
			<g transform="translate(0,-9)">
				<path d="M9 360.5 L9 348.54" class="st6"/>
			</g>
			<g transform="translate(9,0)">
				<path d="M0 351.5 L11.96 351.5" class="st6"/>
			</g>
		</g>
		<g transform="translate(207.182,-191.5)">
			<g transform="translate(3.13148,-23.6974)">
				<desc>v</desc>
				<path d="M12.62 341.45 L0 341.45 L0 360.5 L12.62 360.5 L12.62 341.45" class="st4"/>
				<text x="2.27" y="355.74" class="st5">v</text>
			</g>
			<g transform="translate(25.1816,-1.19743)">
				<desc>u</desc>
				<path d="M12.64 341.45 L0 341.45 L0 360.5 L12.64 360.5 L12.64 341.45" class="st4"/>
				<text x="2.74" y="355.74" class="st5">u</text>
			</g>
			<g transform="translate(0,-9)">
				<path d="M9 360.5 L9 348.54" class="st6"/>
			</g>
			<g transform="translate(9,0)">
				<path d="M0 351.5 L11.96 351.5" class="st6"/>
			</g>
		</g>
		<g transform="translate(207.182,-299.5)">
			<g transform="translate(3.13148,-23.6974)">
				<desc>v</desc>
				<path d="M12.62 341.45 L0 341.45 L0 360.5 L12.62 360.5 L12.62 341.45" class="st4"/>
				<text x="2.27" y="355.74" class="st5">v</text>
			</g>
			<g transform="translate(25.1816,-1.19743)">
				<desc>u</desc>
				<path d="M12.64 341.45 L0 341.45 L0 360.5 L12.64 360.5 L12.64 341.45" class="st4"/>
				<text x="2.74" y="355.74" class="st5">u</text>
			</g>
			<g transform="translate(0,-9)">
				<path d="M9 360.5 L9 348.54" class="st6"/>
			</g>
			<g transform="translate(9,0)">
				<path d="M0 351.5 L11.96 351.5" class="st6"/>
			</g>
		</g>
		<g transform="translate(99.1816,-191.5)">
			<g transform="translate(3.13148,-23.6974)">
				<desc>v</desc>
				<path d="M12.62 341.45 L0 341.45 L0 360.5 L12.62 360.5 L12.62 341.45" class="st4"/>
				<text x="2.27" y="355.74" class="st5">v</text>
			</g>
			<g transform="translate(25.1816,-1.19743)">
				<desc>u</desc>
				<path d="M12.64 341.45 L0 341.45 L0 360.5 L12.64 360.5 L12.64 341.45" class="st4"/>
				<text x="2.74" y="355.74" class="st5">u</text>
			</g>
			<g transform="translate(0,-9)">
				<path d="M9 360.5 L9 348.54" class="st6"/>
			</g>
			<g transform="translate(9,0)">
				<path d="M0 351.5 L11.96 351.5" class="st6"/>
			</g>
		</g>
		<g transform="translate(29,-126.25)">
			<g transform="translate(3.13148,-27)">
				<desc>y</desc>
				<path d="M12.62 341.45 L0 341.45 L0 360.5 L12.62 360.5 L12.62 341.45" class="st4"/>
				<text x="2.81" y="355.74" class="st5">y</text>
			</g>
			<g transform="translate(25.1816,-1.19743)">
				<desc>z</desc>
				<path d="M12.64 341.45 L0 341.45 L0 360.5 L12.64 360.5 L12.64 341.45" class="st4"/>
				<text x="2.99" y="355.74" class="st5">z</text>
			</g>
			<g transform="translate(0,-9)">
				<path d="M9 360.5 L9 348.54" class="st6"/>
			</g>
			<g transform="translate(9,0)">
				<path d="M0 351.5 L11.96 351.5" class="st6"/>
			</g>
		</g>
		<g transform="translate(137,-126.25)">
			<g transform="translate(3.13148,-27)">
				<desc>y</desc>
				<path d="M12.62 341.45 L0 341.45 L0 360.5 L12.62 360.5 L12.62 341.45" class="st4"/>
				<text x="2.81" y="355.74" class="st5">y</text>
			</g>
			<g transform="translate(25.1816,-1.19743)">
				<desc>x</desc>
				<path d="M12.64 341.45 L0 341.45 L0 360.5 L12.64 360.5 L12.64 341.45" class="st4"/>
				<text x="2.81" y="355.74" class="st5">x</text>
			</g>
			<g transform="translate(0,-9)">
				<path d="M9 360.5 L9 348.54" class="st6"/>
			</g>
			<g transform="translate(9,0)">
				<path d="M0 351.5 L11.96 351.5" class="st6"/>
			</g>
		</g>
		<g transform="translate(245,-126.25)">
			<g transform="translate(3.13148,-27)">
				<desc>y</desc>
				<path d="M12.62 341.45 L0 341.45 L0 360.5 L12.62 360.5 L12.62 341.45" class="st4"/>
				<text x="2.81" y="355.74" class="st5">y</text>
			</g>
			<g transform="translate(27,-1.19743)">
				<desc>-z</desc>
				<path d="M12.64 341.45 L0 341.45 L0 360.5 L12.64 360.5 L12.64 341.45" class="st4"/>
				<text x="0.97" y="355.74" class="st5">-z</text>
			</g>
			<g transform="translate(0,-9)">
				<path d="M9 360.5 L9 348.54" class="st6"/>
			</g>
			<g transform="translate(9,0)">
				<path d="M0 351.5 L11.96 351.5" class="st6"/>
			</g>
		</g>
		<g transform="translate(355.682,-126.25)">
			<g transform="translate(3.13148,-27)">
				<desc>y</desc>
				<path d="M12.62 341.45 L0 341.45 L0 360.5 L12.62 360.5 L12.62 341.45" class="st4"/>
				<text x="2.81" y="355.74" class="st5">y</text>
			</g>
			<g transform="translate(27,-1.19743)">
				<desc>-x</desc>
				<path d="M12.64 341.45 L0 341.45 L0 360.5 L12.64 360.5 L12.64 341.45" class="st4"/>
				<text x="0.79" y="355.74" class="st5">-x</text>
			</g>
			<g transform="translate(0,-9)">
				<path d="M9 360.5 L9 348.54" class="st6"/>
			</g>
			<g transform="translate(9,0)">
				<path d="M0 351.5 L11.96 351.5" class="st6"/>
			</g>
		</g>
		<g transform="translate(137,-18.25)">
			<g transform="translate(3.13148,-27)">
				<desc>z</desc>
				<path d="M12.62 341.45 L0 341.45 L0 360.5 L12.62 360.5 L12.62 341.45" class="st4"/>
				<text x="2.98" y="355.74" class="st5">z</text>
			</g>
			<g transform="translate(25.1816,-1.19743)">
				<desc>x</desc>
				<path d="M12.64 341.45 L0 341.45 L0 360.5 L12.64 360.5 L12.64 341.45" class="st4"/>
				<text x="2.81" y="355.74" class="st5">x</text>
			</g>
			<g transform="translate(0,-9)">
				<path d="M9 360.5 L9 348.54" class="st6"/>
			</g>
			<g transform="translate(9,0)">
				<path d="M0 351.5 L11.96 351.5" class="st6"/>
			</g>
		</g>
		<g transform="translate(137,-234.25)">
			<g transform="translate(3.13148,-27)">
				<desc>-z</desc>
				<path d="M12.62 341.45 L0 341.45 L0 360.5 L12.62 360.5 L12.62 341.45" class="st4"/>
				<text x="0.96" y="355.74" class="st5">-z</text>
			</g>
			<g transform="translate(25.1816,-1.19743)">
				<desc>x</desc>
				<path d="M12.64 341.45 L0 341.45 L0 360.5 L12.64 360.5 L12.64 341.45" class="st4"/>
				<text x="2.81" y="355.74" class="st5">x</text>
			</g>
			<g transform="translate(0,-9)">
				<path d="M9 360.5 L9 348.54" class="st6"/>
			</g>
			<g transform="translate(9,0)">
				<path d="M0 351.5 L11.96 351.5" class="st6"/>
			</g>
		</g>
	</g>
</svg>
