{
  "asset": {
    "version": "2.0"
  },
  "extensionsUsed": [
    "EXT_feature_metadata"
  ],
  "extensions": {
    "EXT_feature_metadata": {
      "extras": {
        "draftVersion": "0.0.0"
      },
      "classes": {
        "weather": {
          "name": "Weather Data",
          "properties": {
            "airTemperature": {
              "name": "Air Temperature",
              "type": "FLOAT32"
            },
            "airPressure": {
              "name": "Air Pressure",
              "type": "FLOAT32"
            },
            "windVelocity": {
              "name": "Wind Velocity",
              "type": "ARRAY",
              "componentType": "FLOAT32",
              "componentCount": 3
            },
            "semantic": {
              "name": "Semantic",
              "type": "STRING",
              "optional": true,
              "default": "WEATHER"
            }
          }
        },
        "town": {
          "name": "Town Data",
          "properties": {
            "name": {
              "name": "Name",
              "type": "STRING"
            },
            "population": {
              "name": "Population",
              "type": "FLOAT32"
            },
            "semantic": {
              "name": "Semantic",
              "type": "STRING",
              "optional": true,
              "default": "TOWN"
            }
          }
        }
      },
      "featureTables": {
        "weatherTable": {
          "class": "weather",
          "count": 1000,
          "properties": {
            "airTemperature": {
              "bufferView": 2
            },
            "airPressure": {
              "bufferView": 3
            },
            "windVelocity": {
              "bufferView": 4
            }
          }
        },
        "townTable": {
          "class": "town",
          "count": 3,
          "properties": {
            "name": {
              "bufferView": 5,
              "offsetBufferViews": [
                6
              ]
            },
            "population": {
              "bufferView": 7
            }
          }
        }
      }
    }
  },
  "scene": 0,
  "scenes": [
    {
      "name": "Scene",
      "nodes": [
        0
      ]
    }
  ],
  "nodes": [
    {
      "name": "Point Cloud",
      "mesh": 0
    }
  ],
  "meshes": [
    {
      "name": "Point Cloud Mesh",
      "primitives": [
        {
          "attributes": {
            "POSITION": 0,
            "_FEATURE_ID_0": 1
          },
          "mode": 0,
          "extensions": {
            "EXT_feature_metadata": {
              "featureIdAttributes": [
                {
                  "featureTable": "weatherTable",
                  "featureIds": {
                    "constant": 0,
                    "vertexStride": 1
                  }
                },
                {
                  "featureTable": "townTable",
                  "featureIds": {
                    "attribute": "_FEATURE_ID_0"
                  }
                }
              ]
            }
          }
        }
      ]
    }
  ],
  "accessors": [
    {
      "name": "Positions",
      "bufferView": 0,
      "byteOffset": 0,
      "componentType": 5126,
      "count": 1000,
      "max": [
        0.9972160837586665,
        0.999361498913022,
        0.9994072872635433
      ],
      "min": [
        -0.9947182964094199,
        -0.9997488393612186,
        -0.999161109123424
      ],
      "type": "VEC3"
    },
    {
      "name": "Town Feature ID",
      "bufferView": 1,
      "byteOffset": 0,
      "componentType": 5126,
      "count": 1000,
      "type": "SCALAR"
    }
  ],
  "bufferViews": [
    {
      "name": "Positions",
      "buffer": 0,
      "byteLength": 12000,
      "byteOffset": 0
    },
    {
      "name": "Town Feature ID",
      "buffer": 1,
      "byteLength": 4000,
      "byteOffset": 0
    },
    {
      "name": "Air Temperature",
      "buffer": 1,
      "byteLength": 4000,
      "byteOffset": 4000
    },
    {
      "name": "Air Pressure",
      "buffer": 1,
      "byteLength": 4000,
      "byteOffset": 8000
    },
    {
      "name": "Wind Velocity",
      "buffer": 1,
      "byteLength": 12000,
      "byteOffset": 12000
    },
    {
      "name": "Town Name",
      "buffer": 1,
      "byteLength": 26,
      "byteOffset": 24000
    },
    {
      "name": "Town Name Offsets",
      "buffer": 1,
      "byteLength": 16,
      "byteOffset": 24026
    },
    {
      "name": "Town Population",
      "buffer": 1,
      "byteLength": 6,
      "byteOffset": 24042
    }
  ],
  "buffers": [
    {
      "name": "Geometry Buffer",
      "byteLength": 12000,
      "uri": "weather.bin"
    },
    {
      "name": "Metadata Buffer",
      "byteLength": 24048,
      "uri": "weather-metadata.bin"
    }
  ]
}